<?xml version="1.0" encoding="UTF-8" standalone="no"?>
<!DOCTYPE svg PUBLIC "-//W3C//DTD SVG 1.1//EN"
 "http://www.w3.org/Graphics/SVG/1.1/DTD/svg11.dtd">
<!-- Generated by graphviz version 5.0.0 (20220707.1540)
 -->
<!-- Title: dependencies Pages: 1 -->
<svg width="4875pt" height="247pt"
 viewBox="0.00 0.00 4875.00 246.80" xmlns="http://www.w3.org/2000/svg" xmlns:xlink="http://www.w3.org/1999/xlink">
<g id="graph0" class="graph" transform="scale(1 1) rotate(0) translate(4 242.8)">
<title>dependencies</title>
<polygon fill="white" stroke="transparent" points="-4,4 -4,-242.8 4871,-242.8 4871,4 -4,4"/>
<text text-anchor="middle" x="2433.5" y="-8.2" font-family="sans-serif" font-size="14.00">dependencies</text>
<g id="clust1" class="cluster">
<title>cluster_AppModule</title>
<polygon fill="none" stroke="black" stroke-dasharray="1,5" points="8,-32.8 8,-230.8 4859,-230.8 4859,-32.8 8,-32.8"/>
</g>
<g id="clust2" class="cluster">
<title>cluster_AppModule_declarations</title>
<polygon fill="none" stroke="black" points="1125,-40.8 1125,-92.8 4851,-92.8 4851,-40.8 1125,-40.8"/>
</g>
<g id="clust23" class="cluster">
<title>cluster_AppModule_imports</title>
<polygon fill="none" stroke="black" points="973,-40.8 973,-92.8 1117,-92.8 1117,-40.8 973,-40.8"/>
</g>
<g id="clust25" class="cluster">
<title>cluster_AppModule_bootstrap</title>
<polygon fill="none" stroke="black" points="2428,-170.8 2428,-222.8 2552,-222.8 2552,-170.8 2428,-170.8"/>
</g>
<g id="clust26" class="cluster">
<title>cluster_AppModule_providers</title>
<polygon fill="none" stroke="black" points="16,-40.8 16,-92.8 965,-92.8 965,-40.8 16,-40.8"/>
</g>
<!-- AppComponent -->
<g id="node1" class="node">
<title>AppComponent</title>
<polygon fill="#ffffb3" stroke="black" points="4842.94,-84.8 4737.06,-84.8 4737.06,-48.8 4842.94,-48.8 4842.94,-84.8"/>
<text text-anchor="middle" x="4790" y="-62.6" font-family="Times,serif" font-size="14.00">AppComponent</text>
</g>
<!-- AppModule -->
<g id="node21" class="node">
<title>AppModule</title>
<polygon fill="#8dd3c7" stroke="black" points="2531.66,-149.8 2528.66,-153.8 2507.66,-153.8 2504.66,-149.8 2448.34,-149.8 2448.34,-113.8 2531.66,-113.8 2531.66,-149.8"/>
<text text-anchor="middle" x="2490" y="-127.6" font-family="Times,serif" font-size="14.00">AppModule</text>
</g>
<!-- AppComponent&#45;&gt;AppModule -->
<g id="edge1" class="edge">
<title>AppComponent&#45;&gt;AppModule</title>
<path fill="none" stroke="black" d="M4790,-85.18C4790,-109.08 4790,-147.8 4790,-147.8 4790,-147.8 2541.88,-147.8 2541.88,-147.8"/>
<polygon fill="black" stroke="black" points="2541.88,-144.3 2531.88,-147.8 2541.88,-151.3 2541.88,-144.3"/>
</g>
<!-- AppNavLayoutComponent -->
<g id="node2" class="node">
<title>AppNavLayoutComponent</title>
<polygon fill="#ffffb3" stroke="black" points="4719.42,-84.8 4550.58,-84.8 4550.58,-48.8 4719.42,-48.8 4719.42,-84.8"/>
<text text-anchor="middle" x="4635" y="-62.6" font-family="Times,serif" font-size="14.00">AppNavLayoutComponent</text>
</g>
<!-- AppNavLayoutComponent&#45;&gt;AppModule -->
<g id="edge2" class="edge">
<title>AppNavLayoutComponent&#45;&gt;AppModule</title>
<path fill="none" stroke="black" d="M4635,-84.89C4635,-107.93 4635,-144.8 4635,-144.8 4635,-144.8 2541.89,-144.8 2541.89,-144.8"/>
<polygon fill="black" stroke="black" points="2541.89,-141.3 2531.89,-144.8 2541.89,-148.3 2541.89,-141.3"/>
</g>
<!-- AssignmentChooserComponent -->
<g id="node3" class="node">
<title>AssignmentChooserComponent</title>
<polygon fill="#ffffb3" stroke="black" points="4532.38,-84.8 4337.62,-84.8 4337.62,-48.8 4532.38,-48.8 4532.38,-84.8"/>
<text text-anchor="middle" x="4435" y="-62.6" font-family="Times,serif" font-size="14.00">AssignmentChooserComponent</text>
</g>
<!-- AssignmentChooserComponent&#45;&gt;AppModule -->
<g id="edge3" class="edge">
<title>AssignmentChooserComponent&#45;&gt;AppModule</title>
<path fill="none" stroke="black" d="M4435,-84.81C4435,-107.29 4435,-142.8 4435,-142.8 4435,-142.8 2541.98,-142.8 2541.98,-142.8"/>
<polygon fill="black" stroke="black" points="2541.98,-139.3 2531.98,-142.8 2541.98,-146.3 2541.98,-139.3"/>
</g>
<!-- AuthLangNavItemComponent -->
<g id="node4" class="node">
<title>AuthLangNavItemComponent</title>
<polygon fill="#ffffb3" stroke="black" points="4319.58,-84.8 4132.42,-84.8 4132.42,-48.8 4319.58,-48.8 4319.58,-84.8"/>
<text text-anchor="middle" x="4226" y="-62.6" font-family="Times,serif" font-size="14.00">AuthLangNavItemComponent</text>
</g>
<!-- AuthLangNavItemComponent&#45;&gt;AppModule -->
<g id="edge4" class="edge">
<title>AuthLangNavItemComponent&#45;&gt;AppModule</title>
<path fill="none" stroke="black" d="M4226,-84.84C4226,-106.46 4226,-139.8 4226,-139.8 4226,-139.8 2542.05,-139.8 2542.05,-139.8"/>
<polygon fill="black" stroke="black" points="2542.05,-136.3 2532.05,-139.8 2542.05,-143.3 2542.05,-136.3"/>
</g>
<!-- ConfigurationComponent -->
<g id="node5" class="node">
<title>ConfigurationComponent</title>
<polygon fill="#ffffb3" stroke="black" points="4114.88,-84.8 3955.12,-84.8 3955.12,-48.8 4114.88,-48.8 4114.88,-84.8"/>
<text text-anchor="middle" x="4035" y="-62.6" font-family="Times,serif" font-size="14.00">ConfigurationComponent</text>
</g>
<!-- ConfigurationComponent&#45;&gt;AppModule -->
<g id="edge5" class="edge">
<title>ConfigurationComponent&#45;&gt;AppModule</title>
<path fill="none" stroke="black" d="M4035,-85.08C4035,-106.12 4035,-137.8 4035,-137.8 4035,-137.8 2541.72,-137.8 2541.72,-137.8"/>
<polygon fill="black" stroke="black" points="2541.72,-134.3 2531.72,-137.8 2541.72,-141.3 2541.72,-134.3"/>
</g>
<!-- EditMilestoneComponent -->
<g id="node6" class="node">
<title>EditMilestoneComponent</title>
<polygon fill="#ffffb3" stroke="black" points="3937.16,-84.8 3776.84,-84.8 3776.84,-48.8 3937.16,-48.8 3937.16,-84.8"/>
<text text-anchor="middle" x="3857" y="-62.6" font-family="Times,serif" font-size="14.00">EditMilestoneComponent</text>
</g>
<!-- EditMilestoneComponent&#45;&gt;AppModule -->
<g id="edge6" class="edge">
<title>EditMilestoneComponent&#45;&gt;AppModule</title>
<path fill="none" stroke="black" d="M3857,-85.02C3857,-105.17 3857,-134.8 3857,-134.8 3857,-134.8 2542.03,-134.8 2542.03,-134.8"/>
<polygon fill="black" stroke="black" points="2542.03,-131.3 2532.03,-134.8 2542.03,-138.3 2542.03,-131.3"/>
</g>
<!-- EditRepositoriesComponent -->
<g id="node7" class="node">
<title>EditRepositoriesComponent</title>
<polygon fill="#ffffb3" stroke="black" points="3758.16,-84.8 3583.84,-84.8 3583.84,-48.8 3758.16,-48.8 3758.16,-84.8"/>
<text text-anchor="middle" x="3671" y="-62.6" font-family="Times,serif" font-size="14.00">EditRepositoriesComponent</text>
</g>
<!-- EditRepositoriesComponent&#45;&gt;AppModule -->
<g id="edge7" class="edge">
<title>EditRepositoriesComponent&#45;&gt;AppModule</title>
<path fill="none" stroke="black" d="M3671,-84.91C3671,-104.14 3671,-131.8 3671,-131.8 3671,-131.8 2541.69,-131.8 2541.69,-131.8"/>
<polygon fill="black" stroke="black" points="2541.69,-128.3 2531.69,-131.8 2541.69,-135.3 2541.69,-128.3"/>
</g>
<!-- EditSessionComponent -->
<g id="node8" class="node">
<title>EditSessionComponent</title>
<polygon fill="#ffffb3" stroke="black" points="3565.95,-84.8 3418.05,-84.8 3418.05,-48.8 3565.95,-48.8 3565.95,-84.8"/>
<text text-anchor="middle" x="3492" y="-62.6" font-family="Times,serif" font-size="14.00">EditSessionComponent</text>
</g>
<!-- EditSessionComponent&#45;&gt;AppModule -->
<g id="edge8" class="edge">
<title>EditSessionComponent&#45;&gt;AppModule</title>
<path fill="none" stroke="black" d="M3492,-85.02C3492,-103.63 3492,-129.8 3492,-129.8 3492,-129.8 2541.78,-129.8 2541.78,-129.8"/>
<polygon fill="black" stroke="black" points="2541.78,-126.3 2531.78,-129.8 2541.78,-133.3 2541.78,-126.3"/>
</g>
<!-- FileChooserComponent -->
<g id="node9" class="node">
<title>FileChooserComponent</title>
<polygon fill="#ffffb3" stroke="black" points="3399.77,-84.8 3250.23,-84.8 3250.23,-48.8 3399.77,-48.8 3399.77,-84.8"/>
<text text-anchor="middle" x="3325" y="-62.6" font-family="Times,serif" font-size="14.00">FileChooserComponent</text>
</g>
<!-- FileChooserComponent&#45;&gt;AppModule -->
<g id="edge9" class="edge">
<title>FileChooserComponent&#45;&gt;AppModule</title>
<path fill="none" stroke="black" d="M3325,-84.8C3325,-102.48 3325,-126.8 3325,-126.8 3325,-126.8 2541.69,-126.8 2541.69,-126.8"/>
<polygon fill="black" stroke="black" points="2541.69,-123.3 2531.69,-126.8 2541.69,-130.3 2541.69,-123.3"/>
</g>
<!-- FourOhFourComponent -->
<g id="node10" class="node">
<title>FourOhFourComponent</title>
<polygon fill="#ffffb3" stroke="black" points="3231.84,-84.8 3080.16,-84.8 3080.16,-48.8 3231.84,-48.8 3231.84,-84.8"/>
<text text-anchor="middle" x="3156" y="-62.6" font-family="Times,serif" font-size="14.00">FourOhFourComponent</text>
</g>
<!-- FourOhFourComponent&#45;&gt;AppModule -->
<g id="edge10" class="edge">
<title>FourOhFourComponent&#45;&gt;AppModule</title>
<path fill="none" stroke="black" d="M3156,-84.83C3156,-101.86 3156,-124.8 3156,-124.8 3156,-124.8 2541.91,-124.8 2541.91,-124.8"/>
<polygon fill="black" stroke="black" points="2541.91,-121.3 2531.91,-124.8 2541.91,-128.3 2541.91,-121.3"/>
</g>
<!-- HelpNavItemComponent -->
<g id="node11" class="node">
<title>HelpNavItemComponent</title>
<polygon fill="#ffffb3" stroke="black" points="3062.53,-84.8 2905.47,-84.8 2905.47,-48.8 3062.53,-48.8 3062.53,-84.8"/>
<text text-anchor="middle" x="2984" y="-62.6" font-family="Times,serif" font-size="14.00">HelpNavItemComponent</text>
</g>
<!-- HelpNavItemComponent&#45;&gt;AppModule -->
<g id="edge11" class="edge">
<title>HelpNavItemComponent&#45;&gt;AppModule</title>
<path fill="none" stroke="black" d="M2984,-84.81C2984,-100.85 2984,-121.8 2984,-121.8 2984,-121.8 2541.69,-121.8 2541.69,-121.8"/>
<polygon fill="black" stroke="black" points="2541.69,-118.3 2531.69,-121.8 2541.69,-125.3 2541.69,-118.3"/>
</g>
<!-- HomeComponent -->
<g id="node12" class="node">
<title>HomeComponent</title>
<polygon fill="#ffffb3" stroke="black" points="2886.55,-84.8 2771.45,-84.8 2771.45,-48.8 2886.55,-48.8 2886.55,-84.8"/>
<text text-anchor="middle" x="2829" y="-62.6" font-family="Times,serif" font-size="14.00">HomeComponent</text>
</g>
<!-- HomeComponent&#45;&gt;AppModule -->
<g id="edge12" class="edge">
<title>HomeComponent&#45;&gt;AppModule</title>
<path fill="none" stroke="black" d="M2829,-85.04C2829,-100.37 2829,-119.8 2829,-119.8 2829,-119.8 2541.91,-119.8 2541.91,-119.8"/>
<polygon fill="black" stroke="black" points="2541.91,-116.3 2531.91,-119.8 2541.91,-123.3 2541.91,-116.3"/>
</g>
<!-- HomeNavLayoutComponent -->
<g id="node13" class="node">
<title>HomeNavLayoutComponent</title>
<polygon fill="#ffffb3" stroke="black" points="2753.03,-84.8 2574.97,-84.8 2574.97,-48.8 2753.03,-48.8 2753.03,-84.8"/>
<text text-anchor="middle" x="2664" y="-62.6" font-family="Times,serif" font-size="14.00">HomeNavLayoutComponent</text>
</g>
<!-- HomeNavLayoutComponent&#45;&gt;AppModule -->
<g id="edge13" class="edge">
<title>HomeNavLayoutComponent&#45;&gt;AppModule</title>
<path fill="none" stroke="black" d="M2664,-84.85C2664,-99.17 2664,-116.8 2664,-116.8 2664,-116.8 2541.68,-116.8 2541.68,-116.8"/>
<polygon fill="black" stroke="black" points="2541.68,-113.3 2531.68,-116.8 2541.68,-120.3 2541.68,-113.3"/>
</g>
<!-- MetadataComponent -->
<g id="node14" class="node">
<title>MetadataComponent</title>
<polygon fill="#ffffb3" stroke="black" points="2556.91,-84.8 2423.09,-84.8 2423.09,-48.8 2556.91,-48.8 2556.91,-84.8"/>
<text text-anchor="middle" x="2490" y="-62.6" font-family="Times,serif" font-size="14.00">MetadataComponent</text>
</g>
<!-- MetadataComponent&#45;&gt;AppModule -->
<g id="edge14" class="edge">
<title>MetadataComponent&#45;&gt;AppModule</title>
<path fill="none" stroke="black" d="M2490,-84.91C2490,-84.91 2490,-103.79 2490,-103.79"/>
<polygon fill="black" stroke="black" points="2486.5,-103.79 2490,-113.79 2493.5,-103.79 2486.5,-103.79"/>
</g>
<!-- ModalAddRepositoriesComponent -->
<g id="node15" class="node">
<title>ModalAddRepositoriesComponent</title>
<polygon fill="#ffffb3" stroke="black" points="2404.99,-84.8 2193.01,-84.8 2193.01,-48.8 2404.99,-48.8 2404.99,-84.8"/>
<text text-anchor="middle" x="2299" y="-62.6" font-family="Times,serif" font-size="14.00">ModalAddRepositoriesComponent</text>
</g>
<!-- ModalAddRepositoriesComponent&#45;&gt;AppModule -->
<g id="edge15" class="edge">
<title>ModalAddRepositoriesComponent&#45;&gt;AppModule</title>
<path fill="none" stroke="black" d="M2299,-84.85C2299,-99.17 2299,-116.8 2299,-116.8 2299,-116.8 2438.08,-116.8 2438.08,-116.8"/>
<polygon fill="black" stroke="black" points="2438.08,-120.3 2448.08,-116.8 2438.08,-113.3 2438.08,-120.3"/>
</g>
<!-- OverviewComponent -->
<g id="node16" class="node">
<title>OverviewComponent</title>
<polygon fill="#ffffb3" stroke="black" points="2175.03,-84.8 2038.97,-84.8 2038.97,-48.8 2175.03,-48.8 2175.03,-84.8"/>
<text text-anchor="middle" x="2107" y="-62.6" font-family="Times,serif" font-size="14.00">OverviewComponent</text>
</g>
<!-- OverviewComponent&#45;&gt;AppModule -->
<g id="edge16" class="edge">
<title>OverviewComponent&#45;&gt;AppModule</title>
<path fill="none" stroke="black" d="M2107,-85.04C2107,-100.37 2107,-119.8 2107,-119.8 2107,-119.8 2438.28,-119.8 2438.28,-119.8"/>
<polygon fill="black" stroke="black" points="2438.28,-123.3 2448.28,-119.8 2438.28,-116.3 2438.28,-123.3"/>
</g>
<!-- OverviewGraphContextualMenuComponent -->
<g id="node17" class="node">
<title>OverviewGraphContextualMenuComponent</title>
<polygon fill="#ffffb3" stroke="black" points="2020.61,-84.8 1755.39,-84.8 1755.39,-48.8 2020.61,-48.8 2020.61,-84.8"/>
<text text-anchor="middle" x="1888" y="-62.6" font-family="Times,serif" font-size="14.00">OverviewGraphContextualMenuComponent</text>
</g>
<!-- OverviewGraphContextualMenuComponent&#45;&gt;AppModule -->
<g id="edge17" class="edge">
<title>OverviewGraphContextualMenuComponent&#45;&gt;AppModule</title>
<path fill="none" stroke="black" d="M1888,-84.81C1888,-100.85 1888,-121.8 1888,-121.8 1888,-121.8 2438.15,-121.8 2438.15,-121.8"/>
<polygon fill="black" stroke="black" points="2438.15,-125.3 2448.15,-121.8 2438.15,-118.3 2438.15,-125.3"/>
</g>
<!-- QuestionsChooserComponent -->
<g id="node18" class="node">
<title>QuestionsChooserComponent</title>
<polygon fill="#ffffb3" stroke="black" points="1736.99,-84.8 1553.01,-84.8 1553.01,-48.8 1736.99,-48.8 1736.99,-84.8"/>
<text text-anchor="middle" x="1645" y="-62.6" font-family="Times,serif" font-size="14.00">QuestionsChooserComponent</text>
</g>
<!-- QuestionsChooserComponent&#45;&gt;AppModule -->
<g id="edge18" class="edge">
<title>QuestionsChooserComponent&#45;&gt;AppModule</title>
<path fill="none" stroke="black" d="M1645,-84.83C1645,-101.86 1645,-124.8 1645,-124.8 1645,-124.8 2438.1,-124.8 2438.1,-124.8"/>
<polygon fill="black" stroke="black" points="2438.1,-128.3 2448.1,-124.8 2438.1,-121.3 2438.1,-128.3"/>
</g>
<!-- QuestionsCompletionComponent -->
<g id="node19" class="node">
<title>QuestionsCompletionComponent</title>
<polygon fill="#ffffb3" stroke="black" points="1534.94,-84.8 1331.06,-84.8 1331.06,-48.8 1534.94,-48.8 1534.94,-84.8"/>
<text text-anchor="middle" x="1433" y="-62.6" font-family="Times,serif" font-size="14.00">QuestionsCompletionComponent</text>
</g>
<!-- QuestionsCompletionComponent&#45;&gt;AppModule -->
<g id="edge19" class="edge">
<title>QuestionsCompletionComponent&#45;&gt;AppModule</title>
<path fill="none" stroke="black" d="M1433,-84.8C1433,-102.48 1433,-126.8 1433,-126.8 1433,-126.8 2438.24,-126.8 2438.24,-126.8"/>
<polygon fill="black" stroke="black" points="2438.24,-130.3 2448.24,-126.8 2438.24,-123.3 2438.24,-130.3"/>
</g>
<!-- StudentsCommitsComponent -->
<g id="node20" class="node">
<title>StudentsCommitsComponent</title>
<polygon fill="#ffffb3" stroke="black" points="1313.4,-84.8 1132.6,-84.8 1132.6,-48.8 1313.4,-48.8 1313.4,-84.8"/>
<text text-anchor="middle" x="1223" y="-62.6" font-family="Times,serif" font-size="14.00">StudentsCommitsComponent</text>
</g>
<!-- StudentsCommitsComponent&#45;&gt;AppModule -->
<g id="edge20" class="edge">
<title>StudentsCommitsComponent&#45;&gt;AppModule</title>
<path fill="none" stroke="black" d="M1223,-85.02C1223,-103.63 1223,-129.8 1223,-129.8 1223,-129.8 2438.21,-129.8 2438.21,-129.8"/>
<polygon fill="black" stroke="black" points="2438.21,-133.3 2448.21,-129.8 2438.21,-126.3 2438.21,-133.3"/>
</g>
<!-- AppComponent  -->
<g id="node23" class="node">
<title>AppComponent </title>
<polygon fill="#80b1d3" stroke="black" points="2544.44,-214.8 2435.56,-214.8 2435.56,-178.8 2544.44,-178.8 2544.44,-214.8"/>
<text text-anchor="middle" x="2490" y="-192.6" font-family="Times,serif" font-size="14.00">AppComponent </text>
</g>
<!-- AppModule&#45;&gt;AppComponent  -->
<g id="edge22" class="edge">
<title>AppModule&#45;&gt;AppComponent </title>
<path fill="none" stroke="black" stroke-dasharray="1,5" d="M2490,-149.91C2490,-149.91 2490,-168.79 2490,-168.79"/>
<polygon fill="black" stroke="black" points="2486.5,-168.79 2490,-178.79 2493.5,-168.79 2486.5,-168.79"/>
</g>
<!-- AppRoutingModule -->
<g id="node22" class="node">
<title>AppRoutingModule</title>
<polygon fill="#8dd3c7" stroke="black" points="1109.28,-84.8 1106.28,-88.8 1085.28,-88.8 1082.28,-84.8 980.72,-84.8 980.72,-48.8 1109.28,-48.8 1109.28,-84.8"/>
<text text-anchor="middle" x="1045" y="-62.6" font-family="Times,serif" font-size="14.00">AppRoutingModule</text>
</g>
<!-- AppRoutingModule&#45;&gt;AppModule -->
<g id="edge21" class="edge">
<title>AppRoutingModule&#45;&gt;AppModule</title>
<path fill="none" stroke="black" d="M1045,-84.91C1045,-104.14 1045,-131.8 1045,-131.8 1045,-131.8 2438.31,-131.8 2438.31,-131.8"/>
<polygon fill="black" stroke="black" points="2438.31,-135.3 2448.31,-131.8 2438.31,-128.3 2438.31,-135.3"/>
</g>
<!-- AuthService -->
<g id="node24" class="node">
<title>AuthService</title>
<ellipse fill="#fdb462" stroke="black" cx="898" cy="-66.8" rx="59.11" ry="18"/>
<text text-anchor="middle" x="898" y="-62.6" font-family="Times,serif" font-size="14.00">AuthService</text>
</g>
<!-- AuthService&#45;&gt;AppModule -->
<g id="edge23" class="edge">
<title>AuthService&#45;&gt;AppModule</title>
<path fill="none" stroke="black" d="M898,-85.02C898,-105.17 898,-134.8 898,-134.8 898,-134.8 2438.24,-134.8 2438.24,-134.8"/>
<polygon fill="black" stroke="black" points="2438.24,-138.3 2448.24,-134.8 2438.24,-131.3 2438.24,-138.3"/>
</g>
<!-- CommitsService -->
<g id="node25" class="node">
<title>CommitsService</title>
<ellipse fill="#fdb462" stroke="black" cx="745" cy="-66.8" rx="75.32" ry="18"/>
<text text-anchor="middle" x="745" y="-62.6" font-family="Times,serif" font-size="14.00">CommitsService</text>
</g>
<!-- CommitsService&#45;&gt;AppModule -->
<g id="edge24" class="edge">
<title>CommitsService&#45;&gt;AppModule</title>
<path fill="none" stroke="black" d="M745,-85.08C745,-106.12 745,-137.8 745,-137.8 745,-137.8 2438.16,-137.8 2438.16,-137.8"/>
<polygon fill="black" stroke="black" points="2438.16,-141.3 2448.16,-137.8 2438.16,-134.3 2438.16,-141.3"/>
</g>
<!-- DataService -->
<g id="node26" class="node">
<title>DataService</title>
<ellipse fill="#fdb462" stroke="black" cx="593" cy="-66.8" rx="58.45" ry="18"/>
<text text-anchor="middle" x="593" y="-62.6" font-family="Times,serif" font-size="14.00">DataService</text>
</g>
<!-- DataService&#45;&gt;AppModule -->
<g id="edge25" class="edge">
<title>DataService&#45;&gt;AppModule</title>
<path fill="none" stroke="black" d="M593,-84.84C593,-106.46 593,-139.8 593,-139.8 593,-139.8 2438.17,-139.8 2438.17,-139.8"/>
<polygon fill="black" stroke="black" points="2438.17,-143.3 2448.17,-139.8 2438.17,-136.3 2438.17,-143.3"/>
</g>
<!-- DatabaseService -->
<g id="node27" class="node">
<title>DatabaseService</title>
<ellipse fill="#fdb462" stroke="black" cx="441" cy="-66.8" rx="75.26" ry="18"/>
<text text-anchor="middle" x="441" y="-62.6" font-family="Times,serif" font-size="14.00">DatabaseService</text>
</g>
<!-- DatabaseService&#45;&gt;AppModule -->
<g id="edge26" class="edge">
<title>DatabaseService&#45;&gt;AppModule</title>
<path fill="none" stroke="black" d="M441,-84.81C441,-107.29 441,-142.8 441,-142.8 441,-142.8 2438.14,-142.8 2438.14,-142.8"/>
<polygon fill="black" stroke="black" points="2438.14,-146.3 2448.14,-142.8 2438.14,-139.3 2438.14,-146.3"/>
</g>
<!-- JsonManagerService -->
<g id="node28" class="node">
<title>JsonManagerService</title>
<ellipse fill="#fdb462" stroke="black" cx="256" cy="-66.8" rx="91.47" ry="18"/>
<text text-anchor="middle" x="256" y="-62.6" font-family="Times,serif" font-size="14.00">JsonManagerService</text>
</g>
<!-- JsonManagerService&#45;&gt;AppModule -->
<g id="edge27" class="edge">
<title>JsonManagerService&#45;&gt;AppModule</title>
<path fill="none" stroke="black" d="M256,-84.89C256,-107.93 256,-144.8 256,-144.8 256,-144.8 2437.86,-144.8 2437.86,-144.8"/>
<polygon fill="black" stroke="black" points="2437.86,-148.3 2447.86,-144.8 2437.86,-141.3 2437.86,-148.3"/>
</g>
<!-- ToastService -->
<g id="node29" class="node">
<title>ToastService</title>
<ellipse fill="#fdb462" stroke="black" cx="85" cy="-66.8" rx="61.4" ry="18"/>
<text text-anchor="middle" x="85" y="-62.6" font-family="Times,serif" font-size="14.00">ToastService</text>
</g>
<!-- ToastService&#45;&gt;AppModule -->
<g id="edge28" class="edge">
<title>ToastService&#45;&gt;AppModule</title>
<path fill="none" stroke="black" d="M85,-85.18C85,-109.08 85,-147.8 85,-147.8 85,-147.8 2438.26,-147.8 2438.26,-147.8"/>
<polygon fill="black" stroke="black" points="2438.26,-151.3 2448.26,-147.8 2438.26,-144.3 2438.26,-151.3"/>
</g>
</g>
</svg>
