<?xml version="1.0" encoding="UTF-8" standalone="no"?>
<!DOCTYPE svg PUBLIC "-//W3C//DTD SVG 1.1//EN"
 "http://www.w3.org/Graphics/SVG/1.1/DTD/svg11.dtd">
<!-- Generated by graphviz version 2.44.1 (20200629.0846)
 -->
<!-- Title: dependencies Pages: 1 -->
<svg width="3450pt" height="284pt"
 viewBox="0.00 0.00 3450.00 284.00" xmlns="http://www.w3.org/2000/svg" xmlns:xlink="http://www.w3.org/1999/xlink">
<g id="graph0" class="graph" transform="scale(1 1) rotate(0) translate(4 280)">
<title>dependencies</title>
<polygon fill="white" stroke="transparent" points="-4,4 -4,-280 3446,-280 3446,4 -4,4"/>
<text text-anchor="start" x="1700.01" y="-42.4" font-family="sans-serif" font-weight="bold" font-size="14.00">Legend</text>
<polygon fill="#ffffb3" stroke="transparent" points="1487,-10 1487,-30 1507,-30 1507,-10 1487,-10"/>
<text text-anchor="start" x="1510.63" y="-15.4" font-family="sans-serif" font-size="14.00"> &#160;Declarations</text>
<polygon fill="#8dd3c7" stroke="transparent" points="1600,-10 1600,-30 1620,-30 1620,-10 1600,-10"/>
<text text-anchor="start" x="1623.73" y="-15.4" font-family="sans-serif" font-size="14.00"> &#160;Module</text>
<polygon fill="#80b1d3" stroke="transparent" points="1686,-10 1686,-30 1706,-30 1706,-10 1686,-10"/>
<text text-anchor="start" x="1709.78" y="-15.4" font-family="sans-serif" font-size="14.00"> &#160;Bootstrap</text>
<polygon fill="#fdb462" stroke="transparent" points="1783,-10 1783,-30 1803,-30 1803,-10 1783,-10"/>
<text text-anchor="start" x="1806.67" y="-15.4" font-family="sans-serif" font-size="14.00"> &#160;Providers</text>
<polygon fill="#fb8072" stroke="transparent" points="1879,-10 1879,-30 1899,-30 1899,-10 1879,-10"/>
<text text-anchor="start" x="1902.73" y="-15.4" font-family="sans-serif" font-size="14.00"> &#160;Exports</text>
<g id="clust1" class="cluster">
<title>cluster_AppModule</title>
<polygon fill="none" stroke="black" stroke-dasharray="1,5" points="8,-70 8,-268 3434,-268 3434,-70 8,-70"/>
</g>
<g id="clust2" class="cluster">
<title>cluster_AppModule_declarations</title>
<polygon fill="none" stroke="black" points="1125,-78 1125,-130 3426,-130 3426,-78 1125,-78"/>
</g>
<g id="clust16" class="cluster">
<title>cluster_AppModule_imports</title>
<polygon fill="none" stroke="black" points="973,-78 973,-130 1117,-130 1117,-78 973,-78"/>
</g>
<g id="clust18" class="cluster">
<title>cluster_AppModule_bootstrap</title>
<polygon fill="none" stroke="black" points="1655,-208 1655,-260 1779,-260 1779,-208 1655,-208"/>
</g>
<g id="clust19" class="cluster">
<title>cluster_AppModule_providers</title>
<polygon fill="none" stroke="black" points="16,-78 16,-130 965,-130 965,-78 16,-78"/>
</g>
<!-- AppComponent -->
<g id="node1" class="node">
<title>AppComponent</title>
<polygon fill="#ffffb3" stroke="black" points="3417.94,-122 3312.06,-122 3312.06,-86 3417.94,-86 3417.94,-122"/>
<text text-anchor="middle" x="3365" y="-99.8" font-family="Times,serif" font-size="14.00">AppComponent</text>
</g>
<!-- AppModule -->
<g id="node14" class="node">
<title>AppModule</title>
<polygon fill="#8dd3c7" stroke="black" points="1758.66,-187 1755.66,-191 1734.66,-191 1731.66,-187 1675.34,-187 1675.34,-151 1758.66,-151 1758.66,-187"/>
<text text-anchor="middle" x="1717" y="-164.8" font-family="Times,serif" font-size="14.00">AppModule</text>
</g>
<!-- AppComponent&#45;&gt;AppModule -->
<g id="edge1" class="edge">
<title>AppComponent&#45;&gt;AppModule</title>
<path fill="none" stroke="black" d="M3365,-122.15C3365,-145.76 3365,-184 3365,-184 3365,-184 1768.98,-184 1768.98,-184"/>
<polygon fill="black" stroke="black" points="1768.98,-180.5 1758.98,-184 1768.98,-187.5 1768.98,-180.5"/>
</g>
<!-- AssignmentChooserComponent -->
<g id="node2" class="node">
<title>AssignmentChooserComponent</title>
<polygon fill="#ffffb3" stroke="black" points="3294.37,-122 3099.63,-122 3099.63,-86 3294.37,-86 3294.37,-122"/>
<text text-anchor="middle" x="3197" y="-99.8" font-family="Times,serif" font-size="14.00">AssignmentChooserComponent</text>
</g>
<!-- AssignmentChooserComponent&#45;&gt;AppModule -->
<g id="edge2" class="edge">
<title>AssignmentChooserComponent&#45;&gt;AppModule</title>
<path fill="none" stroke="black" d="M3197,-122.01C3197,-144.49 3197,-180 3197,-180 3197,-180 1768.91,-180 1768.91,-180"/>
<polygon fill="black" stroke="black" points="1768.91,-176.5 1758.91,-180 1768.91,-183.5 1768.91,-176.5"/>
</g>
<!-- ConfigurationComponent -->
<g id="node3" class="node">
<title>ConfigurationComponent</title>
<polygon fill="#ffffb3" stroke="black" points="3081.88,-122 2922.12,-122 2922.12,-86 3081.88,-86 3081.88,-122"/>
<text text-anchor="middle" x="3002" y="-99.8" font-family="Times,serif" font-size="14.00">ConfigurationComponent</text>
</g>
<!-- ConfigurationComponent&#45;&gt;AppModule -->
<g id="edge3" class="edge">
<title>ConfigurationComponent&#45;&gt;AppModule</title>
<path fill="none" stroke="black" d="M3002,-122.04C3002,-143.66 3002,-177 3002,-177 3002,-177 1768.66,-177 1768.66,-177"/>
<polygon fill="black" stroke="black" points="1768.66,-173.5 1758.66,-177 1768.66,-180.5 1768.66,-173.5"/>
</g>
<!-- EditRepositoriesComponent -->
<g id="node4" class="node">
<title>EditRepositoriesComponent</title>
<polygon fill="#ffffb3" stroke="black" points="2904.15,-122 2729.85,-122 2729.85,-86 2904.15,-86 2904.15,-122"/>
<text text-anchor="middle" x="2817" y="-99.8" font-family="Times,serif" font-size="14.00">EditRepositoriesComponent</text>
</g>
<!-- EditRepositoriesComponent&#45;&gt;AppModule -->
<g id="edge4" class="edge">
<title>EditRepositoriesComponent&#45;&gt;AppModule</title>
<path fill="none" stroke="black" d="M2817,-122.13C2817,-142.57 2817,-173 2817,-173 2817,-173 1768.78,-173 1768.78,-173"/>
<polygon fill="black" stroke="black" points="1768.78,-169.5 1758.78,-173 1768.78,-176.5 1768.78,-169.5"/>
</g>
<!-- EditSessionsComponent -->
<g id="node5" class="node">
<title>EditSessionsComponent</title>
<polygon fill="#ffffb3" stroke="black" points="2711.39,-122 2558.61,-122 2558.61,-86 2711.39,-86 2711.39,-122"/>
<text text-anchor="middle" x="2635" y="-99.8" font-family="Times,serif" font-size="14.00">EditSessionsComponent</text>
</g>
<!-- EditSessionsComponent&#45;&gt;AppModule -->
<g id="edge5" class="edge">
<title>EditSessionsComponent&#45;&gt;AppModule</title>
<path fill="none" stroke="black" d="M2635,-122.11C2635,-141.34 2635,-169 2635,-169 2635,-169 1768.83,-169 1768.83,-169"/>
<polygon fill="black" stroke="black" points="1768.83,-165.5 1758.83,-169 1768.83,-172.5 1768.83,-165.5"/>
</g>
<!-- FileChooserComponent -->
<g id="node6" class="node">
<title>FileChooserComponent</title>
<polygon fill="#ffffb3" stroke="black" points="2540.77,-122 2391.23,-122 2391.23,-86 2540.77,-86 2540.77,-122"/>
<text text-anchor="middle" x="2466" y="-99.8" font-family="Times,serif" font-size="14.00">FileChooserComponent</text>
</g>
<!-- FileChooserComponent&#45;&gt;AppModule -->
<g id="edge6" class="edge">
<title>FileChooserComponent&#45;&gt;AppModule</title>
<path fill="none" stroke="black" d="M2466,-122.27C2466,-140.56 2466,-166 2466,-166 2466,-166 1768.87,-166 1768.87,-166"/>
<polygon fill="black" stroke="black" points="1768.87,-162.5 1758.87,-166 1768.87,-169.5 1768.87,-162.5"/>
</g>
<!-- FourOhFourComponent -->
<g id="node7" class="node">
<title>FourOhFourComponent</title>
<polygon fill="#ffffb3" stroke="black" points="2372.83,-122 2221.17,-122 2221.17,-86 2372.83,-86 2372.83,-122"/>
<text text-anchor="middle" x="2297" y="-99.8" font-family="Times,serif" font-size="14.00">FourOhFourComponent</text>
</g>
<!-- FourOhFourComponent&#45;&gt;AppModule -->
<g id="edge7" class="edge">
<title>FourOhFourComponent&#45;&gt;AppModule</title>
<path fill="none" stroke="black" d="M2297,-122.03C2297,-139.06 2297,-162 2297,-162 2297,-162 1768.71,-162 1768.71,-162"/>
<polygon fill="black" stroke="black" points="1768.71,-158.5 1758.71,-162 1768.71,-165.5 1768.71,-158.5"/>
</g>
<!-- HomeComponent -->
<g id="node8" class="node">
<title>HomeComponent</title>
<polygon fill="#ffffb3" stroke="black" points="2203.55,-122 2088.45,-122 2088.45,-86 2203.55,-86 2203.55,-122"/>
<text text-anchor="middle" x="2146" y="-99.8" font-family="Times,serif" font-size="14.00">HomeComponent</text>
</g>
<!-- HomeComponent&#45;&gt;AppModule -->
<g id="edge8" class="edge">
<title>HomeComponent&#45;&gt;AppModule</title>
<path fill="none" stroke="black" d="M2146,-122.01C2146,-138.05 2146,-159 2146,-159 2146,-159 1768.92,-159 1768.92,-159"/>
<polygon fill="black" stroke="black" points="1768.92,-155.5 1758.92,-159 1768.92,-162.5 1768.92,-155.5"/>
</g>
<!-- MetadataComponent -->
<g id="node9" class="node">
<title>MetadataComponent</title>
<polygon fill="#ffffb3" stroke="black" points="2070.92,-122 1937.08,-122 1937.08,-86 2070.92,-86 2070.92,-122"/>
<text text-anchor="middle" x="2004" y="-99.8" font-family="Times,serif" font-size="14.00">MetadataComponent</text>
</g>
<!-- MetadataComponent&#45;&gt;AppModule -->
<g id="edge9" class="edge">
<title>MetadataComponent&#45;&gt;AppModule</title>
<path fill="none" stroke="black" d="M2004,-122.12C2004,-136.78 2004,-155 2004,-155 2004,-155 1768.73,-155 1768.73,-155"/>
<polygon fill="black" stroke="black" points="1768.73,-151.5 1758.73,-155 1768.73,-158.5 1768.73,-151.5"/>
</g>
<!-- ModalAddRepositoriesComponent -->
<g id="node10" class="node">
<title>ModalAddRepositoriesComponent</title>
<polygon fill="#ffffb3" stroke="black" points="1918.98,-122 1707.02,-122 1707.02,-86 1918.98,-86 1918.98,-122"/>
<text text-anchor="middle" x="1813" y="-99.8" font-family="Times,serif" font-size="14.00">ModalAddRepositoriesComponent</text>
</g>
<!-- ModalAddRepositoriesComponent&#45;&gt;AppModule -->
<g id="edge10" class="edge">
<title>ModalAddRepositoriesComponent&#45;&gt;AppModule</title>
<path fill="none" stroke="black" d="M1732.92,-122.11C1732.92,-122.11 1732.92,-140.99 1732.92,-140.99"/>
<polygon fill="black" stroke="black" points="1729.42,-140.99 1732.92,-150.99 1736.42,-140.99 1729.42,-140.99"/>
</g>
<!-- OverviewComponent -->
<g id="node11" class="node">
<title>OverviewComponent</title>
<polygon fill="#ffffb3" stroke="black" points="1689.03,-122 1552.97,-122 1552.97,-86 1689.03,-86 1689.03,-122"/>
<text text-anchor="middle" x="1621" y="-99.8" font-family="Times,serif" font-size="14.00">OverviewComponent</text>
</g>
<!-- OverviewComponent&#45;&gt;AppModule -->
<g id="edge11" class="edge">
<title>OverviewComponent&#45;&gt;AppModule</title>
<path fill="none" stroke="black" d="M1682.22,-122.11C1682.22,-122.11 1682.22,-140.99 1682.22,-140.99"/>
<polygon fill="black" stroke="black" points="1678.72,-140.99 1682.22,-150.99 1685.72,-140.99 1678.72,-140.99"/>
</g>
<!-- QuestionsCompletionComponent -->
<g id="node12" class="node">
<title>QuestionsCompletionComponent</title>
<polygon fill="#ffffb3" stroke="black" points="1534.94,-122 1331.06,-122 1331.06,-86 1534.94,-86 1534.94,-122"/>
<text text-anchor="middle" x="1433" y="-99.8" font-family="Times,serif" font-size="14.00">QuestionsCompletionComponent</text>
</g>
<!-- QuestionsCompletionComponent&#45;&gt;AppModule -->
<g id="edge12" class="edge">
<title>QuestionsCompletionComponent&#45;&gt;AppModule</title>
<path fill="none" stroke="black" d="M1433,-122.12C1433,-136.78 1433,-155 1433,-155 1433,-155 1665.09,-155 1665.09,-155"/>
<polygon fill="black" stroke="black" points="1665.09,-158.5 1675.09,-155 1665.09,-151.5 1665.09,-158.5"/>
</g>
<!-- StudentsCommitsComponent -->
<g id="node13" class="node">
<title>StudentsCommitsComponent</title>
<polygon fill="#ffffb3" stroke="black" points="1313.4,-122 1132.6,-122 1132.6,-86 1313.4,-86 1313.4,-122"/>
<text text-anchor="middle" x="1223" y="-99.8" font-family="Times,serif" font-size="14.00">StudentsCommitsComponent</text>
</g>
<!-- StudentsCommitsComponent&#45;&gt;AppModule -->
<g id="edge13" class="edge">
<title>StudentsCommitsComponent&#45;&gt;AppModule</title>
<path fill="none" stroke="black" d="M1223,-122.01C1223,-138.05 1223,-159 1223,-159 1223,-159 1665.31,-159 1665.31,-159"/>
<polygon fill="black" stroke="black" points="1665.31,-162.5 1675.31,-159 1665.31,-155.5 1665.31,-162.5"/>
</g>
<!-- AppComponent  -->
<g id="node16" class="node">
<title>AppComponent </title>
<polygon fill="#80b1d3" stroke="black" points="1771.44,-252 1662.56,-252 1662.56,-216 1771.44,-216 1771.44,-252"/>
<text text-anchor="middle" x="1717" y="-229.8" font-family="Times,serif" font-size="14.00">AppComponent </text>
</g>
<!-- AppModule&#45;&gt;AppComponent  -->
<g id="edge15" class="edge">
<title>AppModule&#45;&gt;AppComponent </title>
<path fill="none" stroke="black" stroke-dasharray="1,5" d="M1717,-187.11C1717,-187.11 1717,-205.99 1717,-205.99"/>
<polygon fill="black" stroke="black" points="1713.5,-205.99 1717,-215.99 1720.5,-205.99 1713.5,-205.99"/>
</g>
<!-- AppRoutingModule -->
<g id="node15" class="node">
<title>AppRoutingModule</title>
<polygon fill="#8dd3c7" stroke="black" points="1109.27,-122 1106.27,-126 1085.27,-126 1082.27,-122 980.73,-122 980.73,-86 1109.27,-86 1109.27,-122"/>
<text text-anchor="middle" x="1045" y="-99.8" font-family="Times,serif" font-size="14.00">AppRoutingModule</text>
</g>
<!-- AppRoutingModule&#45;&gt;AppModule -->
<g id="edge14" class="edge">
<title>AppRoutingModule&#45;&gt;AppModule</title>
<path fill="none" stroke="black" d="M1045,-122.03C1045,-139.06 1045,-162 1045,-162 1045,-162 1665.22,-162 1665.22,-162"/>
<polygon fill="black" stroke="black" points="1665.22,-165.5 1675.22,-162 1665.22,-158.5 1665.22,-165.5"/>
</g>
<!-- AuthService -->
<g id="node17" class="node">
<title>AuthService</title>
<ellipse fill="#fdb462" stroke="black" cx="898" cy="-104" rx="59.11" ry="18"/>
<text text-anchor="middle" x="898" y="-99.8" font-family="Times,serif" font-size="14.00">AuthService</text>
</g>
<!-- AuthService&#45;&gt;AppModule -->
<g id="edge16" class="edge">
<title>AuthService&#45;&gt;AppModule</title>
<path fill="none" stroke="black" d="M898,-122.27C898,-140.56 898,-166 898,-166 898,-166 1665.26,-166 1665.26,-166"/>
<polygon fill="black" stroke="black" points="1665.26,-169.5 1675.26,-166 1665.26,-162.5 1665.26,-169.5"/>
</g>
<!-- CommitsService -->
<g id="node18" class="node">
<title>CommitsService</title>
<ellipse fill="#fdb462" stroke="black" cx="745" cy="-104" rx="75.32" ry="18"/>
<text text-anchor="middle" x="745" y="-99.8" font-family="Times,serif" font-size="14.00">CommitsService</text>
</g>
<!-- CommitsService&#45;&gt;AppModule -->
<g id="edge17" class="edge">
<title>CommitsService&#45;&gt;AppModule</title>
<path fill="none" stroke="black" d="M745,-122.11C745,-141.34 745,-169 745,-169 745,-169 1665.23,-169 1665.23,-169"/>
<polygon fill="black" stroke="black" points="1665.23,-172.5 1675.23,-169 1665.23,-165.5 1665.23,-172.5"/>
</g>
<!-- DataService -->
<g id="node19" class="node">
<title>DataService</title>
<ellipse fill="#fdb462" stroke="black" cx="593" cy="-104" rx="58.44" ry="18"/>
<text text-anchor="middle" x="593" y="-99.8" font-family="Times,serif" font-size="14.00">DataService</text>
</g>
<!-- DataService&#45;&gt;AppModule -->
<g id="edge18" class="edge">
<title>DataService&#45;&gt;AppModule</title>
<path fill="none" stroke="black" d="M593,-122.13C593,-142.57 593,-173 593,-173 593,-173 1665.33,-173 1665.33,-173"/>
<polygon fill="black" stroke="black" points="1665.33,-176.5 1675.33,-173 1665.33,-169.5 1665.33,-176.5"/>
</g>
<!-- DatabaseService -->
<g id="node20" class="node">
<title>DatabaseService</title>
<ellipse fill="#fdb462" stroke="black" cx="441" cy="-104" rx="75.26" ry="18"/>
<text text-anchor="middle" x="441" y="-99.8" font-family="Times,serif" font-size="14.00">DatabaseService</text>
</g>
<!-- DatabaseService&#45;&gt;AppModule -->
<g id="edge19" class="edge">
<title>DatabaseService&#45;&gt;AppModule</title>
<path fill="none" stroke="black" d="M441,-122.04C441,-143.66 441,-177 441,-177 441,-177 1665.27,-177 1665.27,-177"/>
<polygon fill="black" stroke="black" points="1665.27,-180.5 1675.27,-177 1665.27,-173.5 1665.27,-180.5"/>
</g>
<!-- JsonManagerService -->
<g id="node21" class="node">
<title>JsonManagerService</title>
<ellipse fill="#fdb462" stroke="black" cx="256" cy="-104" rx="91.45" ry="18"/>
<text text-anchor="middle" x="256" y="-99.8" font-family="Times,serif" font-size="14.00">JsonManagerService</text>
</g>
<!-- JsonManagerService&#45;&gt;AppModule -->
<g id="edge20" class="edge">
<title>JsonManagerService&#45;&gt;AppModule</title>
<path fill="none" stroke="black" d="M256,-122.01C256,-144.49 256,-180 256,-180 256,-180 1665.24,-180 1665.24,-180"/>
<polygon fill="black" stroke="black" points="1665.24,-183.5 1675.24,-180 1665.24,-176.5 1665.24,-183.5"/>
</g>
<!-- ToastService -->
<g id="node22" class="node">
<title>ToastService</title>
<ellipse fill="#fdb462" stroke="black" cx="85" cy="-104" rx="61.39" ry="18"/>
<text text-anchor="middle" x="85" y="-99.8" font-family="Times,serif" font-size="14.00">ToastService</text>
</g>
<!-- ToastService&#45;&gt;AppModule -->
<g id="edge21" class="edge">
<title>ToastService&#45;&gt;AppModule</title>
<path fill="none" stroke="black" d="M85,-122.15C85,-145.76 85,-184 85,-184 85,-184 1665.02,-184 1665.02,-184"/>
<polygon fill="black" stroke="black" points="1665.02,-187.5 1675.02,-184 1665.02,-180.5 1665.02,-187.5"/>
</g>
</g>
</svg>
