<?xml version="1.0" encoding="UTF-8" standalone="no"?>
<!DOCTYPE svg PUBLIC "-//W3C//DTD SVG 1.1//EN"
 "http://www.w3.org/Graphics/SVG/1.1/DTD/svg11.dtd">
<!-- Generated by graphviz version 5.0.0 (20220707.1540)
 -->
<!-- Title: dependencies Pages: 1 -->
<svg width="5355pt" height="247pt"
 viewBox="0.00 0.00 5355.00 246.80" xmlns="http://www.w3.org/2000/svg" xmlns:xlink="http://www.w3.org/1999/xlink">
<g id="graph0" class="graph" transform="scale(1 1) rotate(0) translate(4 242.8)">
<title>dependencies</title>
<polygon fill="white" stroke="transparent" points="-4,4 -4,-242.8 5351,-242.8 5351,4 -4,4"/>
<text text-anchor="middle" x="2673.5" y="-8.2" font-family="sans-serif" font-size="14.00">dependencies</text>
<g id="clust1" class="cluster">
<title>cluster_AppModule</title>
<polygon fill="none" stroke="black" stroke-dasharray="1,5" points="8,-32.8 8,-230.8 5339,-230.8 5339,-32.8 8,-32.8"/>
</g>
<g id="clust25" class="cluster">
<title>cluster_AppModule_imports</title>
<polygon fill="none" stroke="black" points="5056,-40.8 5056,-92.8 5331,-92.8 5331,-40.8 5056,-40.8"/>
</g>
<g id="clust27" class="cluster">
<title>cluster_AppModule_bootstrap</title>
<polygon fill="none" stroke="black" points="2765,-170.8 2765,-222.8 2889,-222.8 2889,-170.8 2765,-170.8"/>
</g>
<g id="clust28" class="cluster">
<title>cluster_AppModule_providers</title>
<polygon fill="none" stroke="black" points="4099,-40.8 4099,-92.8 5048,-92.8 5048,-40.8 4099,-40.8"/>
</g>
<g id="clust2" class="cluster">
<title>cluster_AppModule_declarations</title>
<polygon fill="none" stroke="black" points="16,-40.8 16,-92.8 4091,-92.8 4091,-40.8 16,-40.8"/>
</g>
<!-- AccountsComponent -->
<g id="node1" class="node">
<title>AccountsComponent</title>
<polygon fill="#ffffb3" stroke="black" points="4083.21,-84.8 3948.79,-84.8 3948.79,-48.8 4083.21,-48.8 4083.21,-84.8"/>
<text text-anchor="middle" x="4016" y="-62.6" font-family="Times,serif" font-size="14.00">AccountsComponent</text>
</g>
<!-- AppModule -->
<g id="node23" class="node">
<title>AppModule</title>
<polygon fill="#8dd3c7" stroke="black" points="2868.66,-149.8 2865.66,-153.8 2844.66,-153.8 2841.66,-149.8 2785.34,-149.8 2785.34,-113.8 2868.66,-113.8 2868.66,-149.8"/>
<text text-anchor="middle" x="2827" y="-127.6" font-family="Times,serif" font-size="14.00">AppModule</text>
</g>
<!-- AccountsComponent&#45;&gt;AppModule -->
<g id="edge1" class="edge">
<title>AccountsComponent&#45;&gt;AppModule</title>
<path fill="none" stroke="black" d="M4016,-85.07C4016,-103.36 4016,-128.8 4016,-128.8 4016,-128.8 2878.97,-128.8 2878.97,-128.8"/>
<polygon fill="black" stroke="black" points="2878.97,-125.3 2868.97,-128.8 2878.97,-132.3 2878.97,-125.3"/>
</g>
<!-- AddAccountModalComponent -->
<g id="node2" class="node">
<title>AddAccountModalComponent</title>
<polygon fill="#ffffb3" stroke="black" points="3930.92,-84.8 3741.08,-84.8 3741.08,-48.8 3930.92,-48.8 3930.92,-84.8"/>
<text text-anchor="middle" x="3836" y="-62.6" font-family="Times,serif" font-size="14.00">AddAccountModalComponent</text>
</g>
<!-- AddAccountModalComponent&#45;&gt;AppModule -->
<g id="edge2" class="edge">
<title>AddAccountModalComponent&#45;&gt;AppModule</title>
<path fill="none" stroke="black" d="M3836,-84.82C3836,-102.17 3836,-125.8 3836,-125.8 3836,-125.8 2878.75,-125.8 2878.75,-125.8"/>
<polygon fill="black" stroke="black" points="2878.75,-122.3 2868.75,-125.8 2878.75,-129.3 2878.75,-122.3"/>
</g>
<!-- AppComponent -->
<g id="node3" class="node">
<title>AppComponent</title>
<polygon fill="#ffffb3" stroke="black" points="3723.94,-84.8 3618.06,-84.8 3618.06,-48.8 3723.94,-48.8 3723.94,-84.8"/>
<text text-anchor="middle" x="3671" y="-62.6" font-family="Times,serif" font-size="14.00">AppComponent</text>
</g>
<!-- AppComponent&#45;&gt;AppModule -->
<g id="edge3" class="edge">
<title>AppComponent&#45;&gt;AppModule</title>
<path fill="none" stroke="black" d="M3671,-84.84C3671,-101.53 3671,-123.8 3671,-123.8 3671,-123.8 2878.85,-123.8 2878.85,-123.8"/>
<polygon fill="black" stroke="black" points="2878.85,-120.3 2868.85,-123.8 2878.85,-127.3 2878.85,-120.3"/>
</g>
<!-- AppNavLayoutComponent -->
<g id="node4" class="node">
<title>AppNavLayoutComponent</title>
<polygon fill="#ffffb3" stroke="black" points="3600.42,-84.8 3431.58,-84.8 3431.58,-48.8 3600.42,-48.8 3600.42,-84.8"/>
<text text-anchor="middle" x="3516" y="-62.6" font-family="Times,serif" font-size="14.00">AppNavLayoutComponent</text>
</g>
<!-- AppNavLayoutComponent&#45;&gt;AppModule -->
<g id="edge4" class="edge">
<title>AppNavLayoutComponent&#45;&gt;AppModule</title>
<path fill="none" stroke="black" d="M3516,-84.81C3516,-100.85 3516,-121.8 3516,-121.8 3516,-121.8 2878.81,-121.8 2878.81,-121.8"/>
<polygon fill="black" stroke="black" points="2878.81,-118.3 2868.81,-121.8 2878.81,-125.3 2878.81,-118.3"/>
</g>
<!-- AssignmentChooserComponent -->
<g id="node5" class="node">
<title>AssignmentChooserComponent</title>
<polygon fill="#ffffb3" stroke="black" points="3413.38,-84.8 3218.62,-84.8 3218.62,-48.8 3413.38,-48.8 3413.38,-84.8"/>
<text text-anchor="middle" x="3316" y="-62.6" font-family="Times,serif" font-size="14.00">AssignmentChooserComponent</text>
</g>
<!-- AssignmentChooserComponent&#45;&gt;AppModule -->
<g id="edge5" class="edge">
<title>AssignmentChooserComponent&#45;&gt;AppModule</title>
<path fill="none" stroke="black" d="M3316,-84.99C3316,-99.98 3316,-118.8 3316,-118.8 3316,-118.8 2878.69,-118.8 2878.69,-118.8"/>
<polygon fill="black" stroke="black" points="2878.69,-115.3 2868.69,-118.8 2878.69,-122.3 2878.69,-115.3"/>
</g>
<!-- AuthLangNavItemComponent -->
<g id="node6" class="node">
<title>AuthLangNavItemComponent</title>
<polygon fill="#ffffb3" stroke="black" points="3200.58,-84.8 3013.42,-84.8 3013.42,-48.8 3200.58,-48.8 3200.58,-84.8"/>
<text text-anchor="middle" x="3107" y="-62.6" font-family="Times,serif" font-size="14.00">AuthLangNavItemComponent</text>
</g>
<!-- AuthLangNavItemComponent&#45;&gt;AppModule -->
<g id="edge6" class="edge">
<title>AuthLangNavItemComponent&#45;&gt;AppModule</title>
<path fill="none" stroke="black" d="M3107,-84.85C3107,-99.17 3107,-116.8 3107,-116.8 3107,-116.8 2878.92,-116.8 2878.92,-116.8"/>
<polygon fill="black" stroke="black" points="2878.92,-113.3 2868.92,-116.8 2878.92,-120.3 2878.92,-113.3"/>
</g>
<!-- ConfigurationComponent -->
<g id="node7" class="node">
<title>ConfigurationComponent</title>
<polygon fill="#ffffb3" stroke="black" points="2995.88,-84.8 2836.12,-84.8 2836.12,-48.8 2995.88,-48.8 2995.88,-84.8"/>
<text text-anchor="middle" x="2916" y="-62.6" font-family="Times,serif" font-size="14.00">ConfigurationComponent</text>
</g>
<!-- ConfigurationComponent&#45;&gt;AppModule -->
<g id="edge7" class="edge">
<title>ConfigurationComponent&#45;&gt;AppModule</title>
<path fill="none" stroke="black" d="M2852.45,-84.91C2852.45,-84.91 2852.45,-103.79 2852.45,-103.79"/>
<polygon fill="black" stroke="black" points="2848.95,-103.79 2852.45,-113.79 2855.95,-103.79 2848.95,-103.79"/>
</g>
<!-- EditMilestoneComponent -->
<g id="node8" class="node">
<title>EditMilestoneComponent</title>
<polygon fill="#ffffb3" stroke="black" points="2818.16,-84.8 2657.84,-84.8 2657.84,-48.8 2818.16,-48.8 2818.16,-84.8"/>
<text text-anchor="middle" x="2738" y="-62.6" font-family="Times,serif" font-size="14.00">EditMilestoneComponent</text>
</g>
<!-- EditMilestoneComponent&#45;&gt;AppModule -->
<g id="edge8" class="edge">
<title>EditMilestoneComponent&#45;&gt;AppModule</title>
<path fill="none" stroke="black" d="M2801.75,-84.91C2801.75,-84.91 2801.75,-103.79 2801.75,-103.79"/>
<polygon fill="black" stroke="black" points="2798.25,-103.79 2801.75,-113.79 2805.25,-103.79 2798.25,-103.79"/>
</g>
<!-- EditRepositoriesComponent -->
<g id="node9" class="node">
<title>EditRepositoriesComponent</title>
<polygon fill="#ffffb3" stroke="black" points="2639.16,-84.8 2464.84,-84.8 2464.84,-48.8 2639.16,-48.8 2639.16,-84.8"/>
<text text-anchor="middle" x="2552" y="-62.6" font-family="Times,serif" font-size="14.00">EditRepositoriesComponent</text>
</g>
<!-- EditRepositoriesComponent&#45;&gt;AppModule -->
<g id="edge9" class="edge">
<title>EditRepositoriesComponent&#45;&gt;AppModule</title>
<path fill="none" stroke="black" d="M2552,-84.85C2552,-99.17 2552,-116.8 2552,-116.8 2552,-116.8 2775.23,-116.8 2775.23,-116.8"/>
<polygon fill="black" stroke="black" points="2775.23,-120.3 2785.23,-116.8 2775.23,-113.3 2775.23,-120.3"/>
</g>
<!-- EditSessionComponent -->
<g id="node10" class="node">
<title>EditSessionComponent</title>
<polygon fill="#ffffb3" stroke="black" points="2446.95,-84.8 2299.05,-84.8 2299.05,-48.8 2446.95,-48.8 2446.95,-84.8"/>
<text text-anchor="middle" x="2373" y="-62.6" font-family="Times,serif" font-size="14.00">EditSessionComponent</text>
</g>
<!-- EditSessionComponent&#45;&gt;AppModule -->
<g id="edge10" class="edge">
<title>EditSessionComponent&#45;&gt;AppModule</title>
<path fill="none" stroke="black" d="M2373,-84.99C2373,-99.98 2373,-118.8 2373,-118.8 2373,-118.8 2775.1,-118.8 2775.1,-118.8"/>
<polygon fill="black" stroke="black" points="2775.1,-122.3 2785.1,-118.8 2775.1,-115.3 2775.1,-122.3"/>
</g>
<!-- FileChooserComponent -->
<g id="node11" class="node">
<title>FileChooserComponent</title>
<polygon fill="#ffffb3" stroke="black" points="2280.77,-84.8 2131.23,-84.8 2131.23,-48.8 2280.77,-48.8 2280.77,-84.8"/>
<text text-anchor="middle" x="2206" y="-62.6" font-family="Times,serif" font-size="14.00">FileChooserComponent</text>
</g>
<!-- FileChooserComponent&#45;&gt;AppModule -->
<g id="edge11" class="edge">
<title>FileChooserComponent&#45;&gt;AppModule</title>
<path fill="none" stroke="black" d="M2206,-84.81C2206,-100.85 2206,-121.8 2206,-121.8 2206,-121.8 2775.29,-121.8 2775.29,-121.8"/>
<polygon fill="black" stroke="black" points="2775.29,-125.3 2785.29,-121.8 2775.29,-118.3 2775.29,-125.3"/>
</g>
<!-- FourOhFourComponent -->
<g id="node12" class="node">
<title>FourOhFourComponent</title>
<polygon fill="#ffffb3" stroke="black" points="2112.84,-84.8 1961.16,-84.8 1961.16,-48.8 2112.84,-48.8 2112.84,-84.8"/>
<text text-anchor="middle" x="2037" y="-62.6" font-family="Times,serif" font-size="14.00">FourOhFourComponent</text>
</g>
<!-- FourOhFourComponent&#45;&gt;AppModule -->
<g id="edge12" class="edge">
<title>FourOhFourComponent&#45;&gt;AppModule</title>
<path fill="none" stroke="black" d="M2037,-84.84C2037,-101.53 2037,-123.8 2037,-123.8 2037,-123.8 2775.08,-123.8 2775.08,-123.8"/>
<polygon fill="black" stroke="black" points="2775.08,-127.3 2785.08,-123.8 2775.08,-120.3 2775.08,-127.3"/>
</g>
<!-- HelpNavItemComponent -->
<g id="node13" class="node">
<title>HelpNavItemComponent</title>
<polygon fill="#ffffb3" stroke="black" points="1943.53,-84.8 1786.47,-84.8 1786.47,-48.8 1943.53,-48.8 1943.53,-84.8"/>
<text text-anchor="middle" x="1865" y="-62.6" font-family="Times,serif" font-size="14.00">HelpNavItemComponent</text>
</g>
<!-- HelpNavItemComponent&#45;&gt;AppModule -->
<g id="edge13" class="edge">
<title>HelpNavItemComponent&#45;&gt;AppModule</title>
<path fill="none" stroke="black" d="M1865,-84.82C1865,-102.17 1865,-125.8 1865,-125.8 1865,-125.8 2775.05,-125.8 2775.05,-125.8"/>
<polygon fill="black" stroke="black" points="2775.05,-129.3 2785.05,-125.8 2775.05,-122.3 2775.05,-129.3"/>
</g>
<!-- HomeComponent -->
<g id="node14" class="node">
<title>HomeComponent</title>
<polygon fill="#ffffb3" stroke="black" points="1767.55,-84.8 1652.45,-84.8 1652.45,-48.8 1767.55,-48.8 1767.55,-84.8"/>
<text text-anchor="middle" x="1710" y="-62.6" font-family="Times,serif" font-size="14.00">HomeComponent</text>
</g>
<!-- HomeComponent&#45;&gt;AppModule -->
<g id="edge14" class="edge">
<title>HomeComponent&#45;&gt;AppModule</title>
<path fill="none" stroke="black" d="M1710,-85.07C1710,-103.36 1710,-128.8 1710,-128.8 1710,-128.8 2775.25,-128.8 2775.25,-128.8"/>
<polygon fill="black" stroke="black" points="2775.25,-132.3 2785.25,-128.8 2775.25,-125.3 2775.25,-132.3"/>
</g>
<!-- MetadataComponent -->
<g id="node15" class="node">
<title>MetadataComponent</title>
<polygon fill="#ffffb3" stroke="black" points="1634.91,-84.8 1501.09,-84.8 1501.09,-48.8 1634.91,-48.8 1634.91,-84.8"/>
<text text-anchor="middle" x="1568" y="-62.6" font-family="Times,serif" font-size="14.00">MetadataComponent</text>
</g>
<!-- MetadataComponent&#45;&gt;AppModule -->
<g id="edge15" class="edge">
<title>MetadataComponent&#45;&gt;AppModule</title>
<path fill="none" stroke="black" d="M1568,-84.97C1568,-103.89 1568,-130.8 1568,-130.8 1568,-130.8 2775.11,-130.8 2775.11,-130.8"/>
<polygon fill="black" stroke="black" points="2775.11,-134.3 2785.11,-130.8 2775.11,-127.3 2775.11,-134.3"/>
</g>
<!-- ModalAddRepositoriesComponent -->
<g id="node16" class="node">
<title>ModalAddRepositoriesComponent</title>
<polygon fill="#ffffb3" stroke="black" points="1482.99,-84.8 1271.01,-84.8 1271.01,-48.8 1482.99,-48.8 1482.99,-84.8"/>
<text text-anchor="middle" x="1377" y="-62.6" font-family="Times,serif" font-size="14.00">ModalAddRepositoriesComponent</text>
</g>
<!-- ModalAddRepositoriesComponent&#45;&gt;AppModule -->
<g id="edge16" class="edge">
<title>ModalAddRepositoriesComponent&#45;&gt;AppModule</title>
<path fill="none" stroke="black" d="M1377,-85.11C1377,-104.95 1377,-133.8 1377,-133.8 1377,-133.8 2775.17,-133.8 2775.17,-133.8"/>
<polygon fill="black" stroke="black" points="2775.17,-137.3 2785.17,-133.8 2775.17,-130.3 2775.17,-137.3"/>
</g>
<!-- OverviewComponent -->
<g id="node17" class="node">
<title>OverviewComponent</title>
<polygon fill="#ffffb3" stroke="black" points="1253.03,-84.8 1116.97,-84.8 1116.97,-48.8 1253.03,-48.8 1253.03,-84.8"/>
<text text-anchor="middle" x="1185" y="-62.6" font-family="Times,serif" font-size="14.00">OverviewComponent</text>
</g>
<!-- OverviewComponent&#45;&gt;AppModule -->
<g id="edge17" class="edge">
<title>OverviewComponent&#45;&gt;AppModule</title>
<path fill="none" stroke="black" d="M1185,-84.93C1185,-105.37 1185,-135.8 1185,-135.8 1185,-135.8 2775.18,-135.8 2775.18,-135.8"/>
<polygon fill="black" stroke="black" points="2775.18,-139.3 2785.18,-135.8 2775.18,-132.3 2775.18,-139.3"/>
</g>
<!-- OverviewGraphContextualMenuComponent -->
<g id="node18" class="node">
<title>OverviewGraphContextualMenuComponent</title>
<polygon fill="#ffffb3" stroke="black" points="1098.61,-84.8 833.39,-84.8 833.39,-48.8 1098.61,-48.8 1098.61,-84.8"/>
<text text-anchor="middle" x="966" y="-62.6" font-family="Times,serif" font-size="14.00">OverviewGraphContextualMenuComponent</text>
</g>
<!-- OverviewGraphContextualMenuComponent&#45;&gt;AppModule -->
<g id="edge18" class="edge">
<title>OverviewGraphContextualMenuComponent&#45;&gt;AppModule</title>
<path fill="none" stroke="black" d="M966,-85.08C966,-106.12 966,-137.8 966,-137.8 966,-137.8 2775.08,-137.8 2775.08,-137.8"/>
<polygon fill="black" stroke="black" points="2775.08,-141.3 2785.08,-137.8 2775.08,-134.3 2775.08,-141.3"/>
</g>
<!-- QuestionsChooserComponent -->
<g id="node19" class="node">
<title>QuestionsChooserComponent</title>
<polygon fill="#ffffb3" stroke="black" points="814.99,-84.8 631.01,-84.8 631.01,-48.8 814.99,-48.8 814.99,-84.8"/>
<text text-anchor="middle" x="723" y="-62.6" font-family="Times,serif" font-size="14.00">QuestionsChooserComponent</text>
</g>
<!-- QuestionsChooserComponent&#45;&gt;AppModule -->
<g id="edge19" class="edge">
<title>QuestionsChooserComponent&#45;&gt;AppModule</title>
<path fill="none" stroke="black" d="M723,-85.09C723,-107.01 723,-140.8 723,-140.8 723,-140.8 2774.97,-140.8 2774.97,-140.8"/>
<polygon fill="black" stroke="black" points="2774.97,-144.3 2784.97,-140.8 2774.97,-137.3 2774.97,-144.3"/>
</g>
<!-- QuestionsCompletionComponent -->
<g id="node20" class="node">
<title>QuestionsCompletionComponent</title>
<polygon fill="#ffffb3" stroke="black" points="612.94,-84.8 409.06,-84.8 409.06,-48.8 612.94,-48.8 612.94,-84.8"/>
<text text-anchor="middle" x="511" y="-62.6" font-family="Times,serif" font-size="14.00">QuestionsCompletionComponent</text>
</g>
<!-- QuestionsCompletionComponent&#45;&gt;AppModule -->
<g id="edge20" class="edge">
<title>QuestionsCompletionComponent&#45;&gt;AppModule</title>
<path fill="none" stroke="black" d="M511,-84.81C511,-107.29 511,-142.8 511,-142.8 511,-142.8 2775.32,-142.8 2775.32,-142.8"/>
<polygon fill="black" stroke="black" points="2775.32,-146.3 2785.32,-142.8 2775.32,-139.3 2775.32,-146.3"/>
</g>
<!-- SidebarSettingsComponent -->
<g id="node21" class="node">
<title>SidebarSettingsComponent</title>
<polygon fill="#ffffb3" stroke="black" points="391.71,-84.8 222.29,-84.8 222.29,-48.8 391.71,-48.8 391.71,-84.8"/>
<text text-anchor="middle" x="307" y="-62.6" font-family="Times,serif" font-size="14.00">SidebarSettingsComponent</text>
</g>
<!-- SidebarSettingsComponent&#45;&gt;AppModule -->
<g id="edge21" class="edge">
<title>SidebarSettingsComponent&#45;&gt;AppModule</title>
<path fill="none" stroke="black" d="M307,-85.12C307,-108.46 307,-145.8 307,-145.8 307,-145.8 2775.1,-145.8 2775.1,-145.8"/>
<polygon fill="black" stroke="black" points="2775.1,-149.3 2785.1,-145.8 2775.1,-142.3 2775.1,-149.3"/>
</g>
<!-- StudentsCommitsComponent -->
<g id="node22" class="node">
<title>StudentsCommitsComponent</title>
<polygon fill="#ffffb3" stroke="black" points="204.4,-84.8 23.6,-84.8 23.6,-48.8 204.4,-48.8 204.4,-84.8"/>
<text text-anchor="middle" x="114" y="-62.6" font-family="Times,serif" font-size="14.00">StudentsCommitsComponent</text>
</g>
<!-- StudentsCommitsComponent&#45;&gt;AppModule -->
<g id="edge22" class="edge">
<title>StudentsCommitsComponent&#45;&gt;AppModule</title>
<path fill="none" stroke="black" d="M114,-85.18C114,-109.08 114,-147.8 114,-147.8 114,-147.8 2775.2,-147.8 2775.2,-147.8"/>
<polygon fill="black" stroke="black" points="2775.2,-151.3 2785.2,-147.8 2775.2,-144.3 2775.2,-151.3"/>
</g>
<!-- AppComponent  -->
<g id="node26" class="node">
<title>AppComponent </title>
<polygon fill="#80b1d3" stroke="black" points="2881.44,-214.8 2772.56,-214.8 2772.56,-178.8 2881.44,-178.8 2881.44,-214.8"/>
<text text-anchor="middle" x="2827" y="-192.6" font-family="Times,serif" font-size="14.00">AppComponent </text>
</g>
<!-- AppModule&#45;&gt;AppComponent  -->
<g id="edge25" class="edge">
<title>AppModule&#45;&gt;AppComponent </title>
<path fill="none" stroke="black" stroke-dasharray="1,5" d="M2827,-149.91C2827,-149.91 2827,-168.79 2827,-168.79"/>
<polygon fill="black" stroke="black" points="2823.5,-168.79 2827,-178.79 2830.5,-168.79 2823.5,-168.79"/>
</g>
<!-- AppRoutingModule -->
<g id="node24" class="node">
<title>AppRoutingModule</title>
<polygon fill="#8dd3c7" stroke="black" points="5323.28,-84.8 5320.28,-88.8 5299.28,-88.8 5296.28,-84.8 5194.72,-84.8 5194.72,-48.8 5323.28,-48.8 5323.28,-84.8"/>
<text text-anchor="middle" x="5259" y="-62.6" font-family="Times,serif" font-size="14.00">AppRoutingModule</text>
</g>
<!-- AppRoutingModule&#45;&gt;AppModule -->
<g id="edge23" class="edge">
<title>AppRoutingModule&#45;&gt;AppModule</title>
<path fill="none" stroke="black" d="M5259,-85.18C5259,-109.08 5259,-147.8 5259,-147.8 5259,-147.8 2878.7,-147.8 2878.7,-147.8"/>
<polygon fill="black" stroke="black" points="2878.7,-144.3 2868.7,-147.8 2878.7,-151.3 2878.7,-144.3"/>
</g>
<!-- SharedUiModule -->
<g id="node25" class="node">
<title>SharedUiModule</title>
<polygon fill="#8dd3c7" stroke="black" points="5176.43,-84.8 5173.43,-88.8 5152.43,-88.8 5149.43,-84.8 5063.57,-84.8 5063.57,-48.8 5176.43,-48.8 5176.43,-84.8"/>
<text text-anchor="middle" x="5120" y="-62.6" font-family="Times,serif" font-size="14.00">SharedUiModule</text>
</g>
<!-- SharedUiModule&#45;&gt;AppModule -->
<g id="edge24" class="edge">
<title>SharedUiModule&#45;&gt;AppModule</title>
<path fill="none" stroke="black" d="M5120,-85.12C5120,-108.46 5120,-145.8 5120,-145.8 5120,-145.8 2878.76,-145.8 2878.76,-145.8"/>
<polygon fill="black" stroke="black" points="2878.76,-142.3 2868.76,-145.8 2878.76,-149.3 2878.76,-142.3"/>
</g>
<!-- AuthService -->
<g id="node27" class="node">
<title>AuthService</title>
<ellipse fill="#fdb462" stroke="black" cx="4981" cy="-66.8" rx="59.11" ry="18"/>
<text text-anchor="middle" x="4981" y="-62.6" font-family="Times,serif" font-size="14.00">AuthService</text>
</g>
<!-- AuthService&#45;&gt;AppModule -->
<g id="edge26" class="edge">
<title>AuthService&#45;&gt;AppModule</title>
<path fill="none" stroke="black" d="M4981,-84.81C4981,-107.29 4981,-142.8 4981,-142.8 4981,-142.8 2879.06,-142.8 2879.06,-142.8"/>
<polygon fill="black" stroke="black" points="2879.06,-139.3 2869.06,-142.8 2879.06,-146.3 2879.06,-139.3"/>
</g>
<!-- CommitsService -->
<g id="node28" class="node">
<title>CommitsService</title>
<ellipse fill="#fdb462" stroke="black" cx="4828" cy="-66.8" rx="75.32" ry="18"/>
<text text-anchor="middle" x="4828" y="-62.6" font-family="Times,serif" font-size="14.00">CommitsService</text>
</g>
<!-- CommitsService&#45;&gt;AppModule -->
<g id="edge27" class="edge">
<title>CommitsService&#45;&gt;AppModule</title>
<path fill="none" stroke="black" d="M4828,-85.09C4828,-107.01 4828,-140.8 4828,-140.8 4828,-140.8 2878.79,-140.8 2878.79,-140.8"/>
<polygon fill="black" stroke="black" points="2878.79,-137.3 2868.79,-140.8 2878.79,-144.3 2878.79,-137.3"/>
</g>
<!-- DataService -->
<g id="node29" class="node">
<title>DataService</title>
<ellipse fill="#fdb462" stroke="black" cx="4676" cy="-66.8" rx="58.45" ry="18"/>
<text text-anchor="middle" x="4676" y="-62.6" font-family="Times,serif" font-size="14.00">DataService</text>
</g>
<!-- DataService&#45;&gt;AppModule -->
<g id="edge28" class="edge">
<title>DataService&#45;&gt;AppModule</title>
<path fill="none" stroke="black" d="M4676,-85.08C4676,-106.12 4676,-137.8 4676,-137.8 4676,-137.8 2879.09,-137.8 2879.09,-137.8"/>
<polygon fill="black" stroke="black" points="2879.09,-134.3 2869.09,-137.8 2879.09,-141.3 2879.09,-134.3"/>
</g>
<!-- DatabaseService -->
<g id="node30" class="node">
<title>DatabaseService</title>
<ellipse fill="#fdb462" stroke="black" cx="4524" cy="-66.8" rx="75.26" ry="18"/>
<text text-anchor="middle" x="4524" y="-62.6" font-family="Times,serif" font-size="14.00">DatabaseService</text>
</g>
<!-- DatabaseService&#45;&gt;AppModule -->
<g id="edge29" class="edge">
<title>DatabaseService&#45;&gt;AppModule</title>
<path fill="none" stroke="black" d="M4524,-84.93C4524,-105.37 4524,-135.8 4524,-135.8 4524,-135.8 2878.95,-135.8 2878.95,-135.8"/>
<polygon fill="black" stroke="black" points="2878.95,-132.3 2868.95,-135.8 2878.95,-139.3 2878.95,-132.3"/>
</g>
<!-- JsonManagerService -->
<g id="node31" class="node">
<title>JsonManagerService</title>
<ellipse fill="#fdb462" stroke="black" cx="4339" cy="-66.8" rx="91.47" ry="18"/>
<text text-anchor="middle" x="4339" y="-62.6" font-family="Times,serif" font-size="14.00">JsonManagerService</text>
</g>
<!-- JsonManagerService&#45;&gt;AppModule -->
<g id="edge30" class="edge">
<title>JsonManagerService&#45;&gt;AppModule</title>
<path fill="none" stroke="black" d="M4339,-85.11C4339,-104.95 4339,-133.8 4339,-133.8 4339,-133.8 2879.02,-133.8 2879.02,-133.8"/>
<polygon fill="black" stroke="black" points="2879.02,-130.3 2869.02,-133.8 2879.02,-137.3 2879.02,-130.3"/>
</g>
<!-- ToastService -->
<g id="node32" class="node">
<title>ToastService</title>
<ellipse fill="#fdb462" stroke="black" cx="4168" cy="-66.8" rx="61.4" ry="18"/>
<text text-anchor="middle" x="4168" y="-62.6" font-family="Times,serif" font-size="14.00">ToastService</text>
</g>
<!-- ToastService&#45;&gt;AppModule -->
<g id="edge31" class="edge">
<title>ToastService&#45;&gt;AppModule</title>
<path fill="none" stroke="black" d="M4168,-84.97C4168,-103.89 4168,-130.8 4168,-130.8 4168,-130.8 2878.98,-130.8 2878.98,-130.8"/>
<polygon fill="black" stroke="black" points="2878.98,-127.3 2868.98,-130.8 2878.98,-134.3 2878.98,-127.3"/>
</g>
</g>
</svg>
