<?xml version="1.0" encoding="UTF-8" standalone="no"?>
<!DOCTYPE svg PUBLIC "-//W3C//DTD SVG 1.1//EN"
 "http://www.w3.org/Graphics/SVG/1.1/DTD/svg11.dtd">
<!-- Generated by graphviz version 2.44.1 (20200629.0846)
 -->
<!-- Title: dependencies Pages: 1 -->
<svg width="3450pt" height="284pt"
 viewBox="0.00 0.00 3450.00 284.00" xmlns="http://www.w3.org/2000/svg" xmlns:xlink="http://www.w3.org/1999/xlink">
<g id="graph0" class="graph" transform="scale(1 1) rotate(0) translate(4 280)">
<title>dependencies</title>
<polygon fill="white" stroke="transparent" points="-4,4 -4,-280 3446,-280 3446,4 -4,4"/>
<text text-anchor="start" x="1700.01" y="-42.4" font-family="sans-serif" font-weight="bold" font-size="14.00">Legend</text>
<polygon fill="#ffffb3" stroke="transparent" points="1487,-10 1487,-30 1507,-30 1507,-10 1487,-10"/>
<text text-anchor="start" x="1510.63" y="-15.4" font-family="sans-serif" font-size="14.00"> &#160;Declarations</text>
<polygon fill="#8dd3c7" stroke="transparent" points="1600,-10 1600,-30 1620,-30 1620,-10 1600,-10"/>
<text text-anchor="start" x="1623.73" y="-15.4" font-family="sans-serif" font-size="14.00"> &#160;Module</text>
<polygon fill="#80b1d3" stroke="transparent" points="1686,-10 1686,-30 1706,-30 1706,-10 1686,-10"/>
<text text-anchor="start" x="1709.78" y="-15.4" font-family="sans-serif" font-size="14.00"> &#160;Bootstrap</text>
<polygon fill="#fdb462" stroke="transparent" points="1783,-10 1783,-30 1803,-30 1803,-10 1783,-10"/>
<text text-anchor="start" x="1806.67" y="-15.4" font-family="sans-serif" font-size="14.00"> &#160;Providers</text>
<polygon fill="#fb8072" stroke="transparent" points="1879,-10 1879,-30 1899,-30 1899,-10 1879,-10"/>
<text text-anchor="start" x="1902.73" y="-15.4" font-family="sans-serif" font-size="14.00"> &#160;Exports</text>
<g id="clust1" class="cluster">
<title>cluster_AppModule</title>
<polygon fill="none" stroke="black" stroke-dasharray="1,5" points="8,-70 8,-268 3434,-268 3434,-70 8,-70"/>
</g>
<g id="clust16" class="cluster">
<title>cluster_AppModule_imports</title>
<polygon fill="none" stroke="black" points="3282,-78 3282,-130 3426,-130 3426,-78 3282,-78"/>
</g>
<g id="clust18" class="cluster">
<title>cluster_AppModule_bootstrap</title>
<polygon fill="none" stroke="black" points="1738,-208 1738,-260 1862,-260 1862,-208 1738,-208"/>
</g>
<g id="clust19" class="cluster">
<title>cluster_AppModule_providers</title>
<polygon fill="none" stroke="black" points="2325,-78 2325,-130 3274,-130 3274,-78 2325,-78"/>
</g>
<g id="clust2" class="cluster">
<title>cluster_AppModule_declarations</title>
<polygon fill="none" stroke="black" points="16,-78 16,-130 2317,-130 2317,-78 16,-78"/>
</g>
<!-- AppComponent -->
<g id="node1" class="node">
<title>AppComponent</title>
<polygon fill="#ffffb3" stroke="black" points="2308.94,-122 2203.06,-122 2203.06,-86 2308.94,-86 2308.94,-122"/>
<text text-anchor="middle" x="2256" y="-99.8" font-family="Times,serif" font-size="14.00">AppComponent</text>
</g>
<!-- AppModule -->
<g id="node14" class="node">
<title>AppModule</title>
<polygon fill="#8dd3c7" stroke="black" points="1841.66,-187 1838.66,-191 1817.66,-191 1814.66,-187 1758.34,-187 1758.34,-151 1841.66,-151 1841.66,-187"/>
<text text-anchor="middle" x="1800" y="-164.8" font-family="Times,serif" font-size="14.00">AppModule</text>
</g>
<!-- AppComponent&#45;&gt;AppModule -->
<g id="edge1" class="edge">
<title>AppComponent&#45;&gt;AppModule</title>
<path fill="none" stroke="black" d="M2256,-122.01C2256,-138.05 2256,-159 2256,-159 2256,-159 1851.68,-159 1851.68,-159"/>
<polygon fill="black" stroke="black" points="1851.68,-155.5 1841.68,-159 1851.68,-162.5 1851.68,-155.5"/>
</g>
<!-- AssignmentChooserComponent -->
<g id="node2" class="node">
<title>AssignmentChooserComponent</title>
<polygon fill="#ffffb3" stroke="black" points="2185.37,-122 1990.63,-122 1990.63,-86 2185.37,-86 2185.37,-122"/>
<text text-anchor="middle" x="2088" y="-99.8" font-family="Times,serif" font-size="14.00">AssignmentChooserComponent</text>
</g>
<!-- AssignmentChooserComponent&#45;&gt;AppModule -->
<g id="edge2" class="edge">
<title>AssignmentChooserComponent&#45;&gt;AppModule</title>
<path fill="none" stroke="black" d="M2088,-122.12C2088,-136.78 2088,-155 2088,-155 2088,-155 1851.88,-155 1851.88,-155"/>
<polygon fill="black" stroke="black" points="1851.88,-151.5 1841.88,-155 1851.88,-158.5 1851.88,-151.5"/>
</g>
<!-- ConfigurationComponent -->
<g id="node3" class="node">
<title>ConfigurationComponent</title>
<polygon fill="#ffffb3" stroke="black" points="1972.88,-122 1813.12,-122 1813.12,-86 1972.88,-86 1972.88,-122"/>
<text text-anchor="middle" x="1893" y="-99.8" font-family="Times,serif" font-size="14.00">ConfigurationComponent</text>
</g>
<!-- ConfigurationComponent&#45;&gt;AppModule -->
<g id="edge3" class="edge">
<title>ConfigurationComponent&#45;&gt;AppModule</title>
<path fill="none" stroke="black" d="M1827.44,-122.11C1827.44,-122.11 1827.44,-140.99 1827.44,-140.99"/>
<polygon fill="black" stroke="black" points="1823.95,-140.99 1827.44,-150.99 1830.95,-140.99 1823.95,-140.99"/>
</g>
<!-- EditRepositoriesComponent -->
<g id="node4" class="node">
<title>EditRepositoriesComponent</title>
<polygon fill="#ffffb3" stroke="black" points="1795.15,-122 1620.85,-122 1620.85,-86 1795.15,-86 1795.15,-122"/>
<text text-anchor="middle" x="1708" y="-99.8" font-family="Times,serif" font-size="14.00">EditRepositoriesComponent</text>
</g>
<!-- EditRepositoriesComponent&#45;&gt;AppModule -->
<g id="edge4" class="edge">
<title>EditRepositoriesComponent&#45;&gt;AppModule</title>
<path fill="none" stroke="black" d="M1776.75,-122.11C1776.75,-122.11 1776.75,-140.99 1776.75,-140.99"/>
<polygon fill="black" stroke="black" points="1773.25,-140.99 1776.75,-150.99 1780.25,-140.99 1773.25,-140.99"/>
</g>
<!-- EditSessionsComponent -->
<g id="node5" class="node">
<title>EditSessionsComponent</title>
<polygon fill="#ffffb3" stroke="black" points="1602.39,-122 1449.61,-122 1449.61,-86 1602.39,-86 1602.39,-122"/>
<text text-anchor="middle" x="1526" y="-99.8" font-family="Times,serif" font-size="14.00">EditSessionsComponent</text>
</g>
<!-- EditSessionsComponent&#45;&gt;AppModule -->
<g id="edge5" class="edge">
<title>EditSessionsComponent&#45;&gt;AppModule</title>
<path fill="none" stroke="black" d="M1526,-122.12C1526,-136.78 1526,-155 1526,-155 1526,-155 1748.09,-155 1748.09,-155"/>
<polygon fill="black" stroke="black" points="1748.09,-158.5 1758.09,-155 1748.09,-151.5 1748.09,-158.5"/>
</g>
<!-- FileChooserComponent -->
<g id="node6" class="node">
<title>FileChooserComponent</title>
<polygon fill="#ffffb3" stroke="black" points="1431.77,-122 1282.23,-122 1282.23,-86 1431.77,-86 1431.77,-122"/>
<text text-anchor="middle" x="1357" y="-99.8" font-family="Times,serif" font-size="14.00">FileChooserComponent</text>
</g>
<!-- FileChooserComponent&#45;&gt;AppModule -->
<g id="edge6" class="edge">
<title>FileChooserComponent&#45;&gt;AppModule</title>
<path fill="none" stroke="black" d="M1357,-122.01C1357,-138.05 1357,-159 1357,-159 1357,-159 1748.32,-159 1748.32,-159"/>
<polygon fill="black" stroke="black" points="1748.32,-162.5 1758.32,-159 1748.32,-155.5 1748.32,-162.5"/>
</g>
<!-- FourOhFourComponent -->
<g id="node7" class="node">
<title>FourOhFourComponent</title>
<polygon fill="#ffffb3" stroke="black" points="1263.83,-122 1112.17,-122 1112.17,-86 1263.83,-86 1263.83,-122"/>
<text text-anchor="middle" x="1188" y="-99.8" font-family="Times,serif" font-size="14.00">FourOhFourComponent</text>
</g>
<!-- FourOhFourComponent&#45;&gt;AppModule -->
<g id="edge7" class="edge">
<title>FourOhFourComponent&#45;&gt;AppModule</title>
<path fill="none" stroke="black" d="M1188,-122.03C1188,-139.06 1188,-162 1188,-162 1188,-162 1747.93,-162 1747.93,-162"/>
<polygon fill="black" stroke="black" points="1747.93,-165.5 1757.93,-162 1747.93,-158.5 1747.93,-165.5"/>
</g>
<!-- HomeComponent -->
<g id="node8" class="node">
<title>HomeComponent</title>
<polygon fill="#ffffb3" stroke="black" points="1094.55,-122 979.45,-122 979.45,-86 1094.55,-86 1094.55,-122"/>
<text text-anchor="middle" x="1037" y="-99.8" font-family="Times,serif" font-size="14.00">HomeComponent</text>
</g>
<!-- HomeComponent&#45;&gt;AppModule -->
<g id="edge8" class="edge">
<title>HomeComponent&#45;&gt;AppModule</title>
<path fill="none" stroke="black" d="M1037,-122.27C1037,-140.56 1037,-166 1037,-166 1037,-166 1748.16,-166 1748.16,-166"/>
<polygon fill="black" stroke="black" points="1748.16,-169.5 1758.16,-166 1748.16,-162.5 1748.16,-169.5"/>
</g>
<!-- MetadataComponent -->
<g id="node9" class="node">
<title>MetadataComponent</title>
<polygon fill="#ffffb3" stroke="black" points="961.92,-122 828.08,-122 828.08,-86 961.92,-86 961.92,-122"/>
<text text-anchor="middle" x="895" y="-99.8" font-family="Times,serif" font-size="14.00">MetadataComponent</text>
</g>
<!-- MetadataComponent&#45;&gt;AppModule -->
<g id="edge9" class="edge">
<title>MetadataComponent&#45;&gt;AppModule</title>
<path fill="none" stroke="black" d="M895,-122.11C895,-141.34 895,-169 895,-169 895,-169 1748.17,-169 1748.17,-169"/>
<polygon fill="black" stroke="black" points="1748.17,-172.5 1758.17,-169 1748.16,-165.5 1748.17,-172.5"/>
</g>
<!-- ModalAddRepositoriesComponent -->
<g id="node10" class="node">
<title>ModalAddRepositoriesComponent</title>
<polygon fill="#ffffb3" stroke="black" points="809.98,-122 598.02,-122 598.02,-86 809.98,-86 809.98,-122"/>
<text text-anchor="middle" x="704" y="-99.8" font-family="Times,serif" font-size="14.00">ModalAddRepositoriesComponent</text>
</g>
<!-- ModalAddRepositoriesComponent&#45;&gt;AppModule -->
<g id="edge10" class="edge">
<title>ModalAddRepositoriesComponent&#45;&gt;AppModule</title>
<path fill="none" stroke="black" d="M704,-122.13C704,-142.57 704,-173 704,-173 704,-173 1748.04,-173 1748.04,-173"/>
<polygon fill="black" stroke="black" points="1748.04,-176.5 1758.04,-173 1748.04,-169.5 1748.04,-176.5"/>
</g>
<!-- OverviewComponent -->
<g id="node11" class="node">
<title>OverviewComponent</title>
<polygon fill="#ffffb3" stroke="black" points="580.03,-122 443.97,-122 443.97,-86 580.03,-86 580.03,-122"/>
<text text-anchor="middle" x="512" y="-99.8" font-family="Times,serif" font-size="14.00">OverviewComponent</text>
</g>
<!-- OverviewComponent&#45;&gt;AppModule -->
<g id="edge11" class="edge">
<title>OverviewComponent&#45;&gt;AppModule</title>
<path fill="none" stroke="black" d="M512,-122.04C512,-143.66 512,-177 512,-177 512,-177 1748.24,-177 1748.24,-177"/>
<polygon fill="black" stroke="black" points="1748.24,-180.5 1758.24,-177 1748.24,-173.5 1748.24,-180.5"/>
</g>
<!-- QuestionsCompletionComponent -->
<g id="node12" class="node">
<title>QuestionsCompletionComponent</title>
<polygon fill="#ffffb3" stroke="black" points="425.94,-122 222.06,-122 222.06,-86 425.94,-86 425.94,-122"/>
<text text-anchor="middle" x="324" y="-99.8" font-family="Times,serif" font-size="14.00">QuestionsCompletionComponent</text>
</g>
<!-- QuestionsCompletionComponent&#45;&gt;AppModule -->
<g id="edge12" class="edge">
<title>QuestionsCompletionComponent&#45;&gt;AppModule</title>
<path fill="none" stroke="black" d="M324,-122.01C324,-144.49 324,-180 324,-180 324,-180 1748.2,-180 1748.2,-180"/>
<polygon fill="black" stroke="black" points="1748.2,-183.5 1758.2,-180 1748.2,-176.5 1748.2,-183.5"/>
</g>
<!-- StudentsCommitsComponent -->
<g id="node13" class="node">
<title>StudentsCommitsComponent</title>
<polygon fill="#ffffb3" stroke="black" points="204.4,-122 23.6,-122 23.6,-86 204.4,-86 204.4,-122"/>
<text text-anchor="middle" x="114" y="-99.8" font-family="Times,serif" font-size="14.00">StudentsCommitsComponent</text>
</g>
<!-- StudentsCommitsComponent&#45;&gt;AppModule -->
<g id="edge13" class="edge">
<title>StudentsCommitsComponent&#45;&gt;AppModule</title>
<path fill="none" stroke="black" d="M114,-122.15C114,-145.76 114,-184 114,-184 114,-184 1748.32,-184 1748.32,-184"/>
<polygon fill="black" stroke="black" points="1748.32,-187.5 1758.32,-184 1748.32,-180.5 1748.32,-187.5"/>
</g>
<!-- AppComponent  -->
<g id="node16" class="node">
<title>AppComponent </title>
<polygon fill="#80b1d3" stroke="black" points="1854.44,-252 1745.56,-252 1745.56,-216 1854.44,-216 1854.44,-252"/>
<text text-anchor="middle" x="1800" y="-229.8" font-family="Times,serif" font-size="14.00">AppComponent </text>
</g>
<!-- AppModule&#45;&gt;AppComponent  -->
<g id="edge15" class="edge">
<title>AppModule&#45;&gt;AppComponent </title>
<path fill="none" stroke="black" stroke-dasharray="1,5" d="M1800,-187.11C1800,-187.11 1800,-205.99 1800,-205.99"/>
<polygon fill="black" stroke="black" points="1796.5,-205.99 1800,-215.99 1803.5,-205.99 1796.5,-205.99"/>
</g>
<!-- AppRoutingModule -->
<g id="node15" class="node">
<title>AppRoutingModule</title>
<polygon fill="#8dd3c7" stroke="black" points="3418.27,-122 3415.27,-126 3394.27,-126 3391.27,-122 3289.73,-122 3289.73,-86 3418.27,-86 3418.27,-122"/>
<text text-anchor="middle" x="3354" y="-99.8" font-family="Times,serif" font-size="14.00">AppRoutingModule</text>
</g>
<!-- AppRoutingModule&#45;&gt;AppModule -->
<g id="edge14" class="edge">
<title>AppRoutingModule&#45;&gt;AppModule</title>
<path fill="none" stroke="black" d="M3354,-122.15C3354,-145.76 3354,-184 3354,-184 3354,-184 1851.97,-184 1851.97,-184"/>
<polygon fill="black" stroke="black" points="1851.97,-180.5 1841.97,-184 1851.97,-187.5 1851.97,-180.5"/>
</g>
<!-- AuthService -->
<g id="node17" class="node">
<title>AuthService</title>
<ellipse fill="#fdb462" stroke="black" cx="3207" cy="-104" rx="59.11" ry="18"/>
<text text-anchor="middle" x="3207" y="-99.8" font-family="Times,serif" font-size="14.00">AuthService</text>
</g>
<!-- AuthService&#45;&gt;AppModule -->
<g id="edge16" class="edge">
<title>AuthService&#45;&gt;AppModule</title>
<path fill="none" stroke="black" d="M3207,-122.01C3207,-144.49 3207,-180 3207,-180 3207,-180 1851.73,-180 1851.73,-180"/>
<polygon fill="black" stroke="black" points="1851.73,-176.5 1841.73,-180 1851.73,-183.5 1851.73,-176.5"/>
</g>
<!-- CommitsService -->
<g id="node18" class="node">
<title>CommitsService</title>
<ellipse fill="#fdb462" stroke="black" cx="3054" cy="-104" rx="75.32" ry="18"/>
<text text-anchor="middle" x="3054" y="-99.8" font-family="Times,serif" font-size="14.00">CommitsService</text>
</g>
<!-- CommitsService&#45;&gt;AppModule -->
<g id="edge17" class="edge">
<title>CommitsService&#45;&gt;AppModule</title>
<path fill="none" stroke="black" d="M3054,-122.04C3054,-143.66 3054,-177 3054,-177 3054,-177 1851.72,-177 1851.72,-177"/>
<polygon fill="black" stroke="black" points="1851.72,-173.5 1841.72,-177 1851.72,-180.5 1851.72,-173.5"/>
</g>
<!-- DataService -->
<g id="node19" class="node">
<title>DataService</title>
<ellipse fill="#fdb462" stroke="black" cx="2902" cy="-104" rx="58.44" ry="18"/>
<text text-anchor="middle" x="2902" y="-99.8" font-family="Times,serif" font-size="14.00">DataService</text>
</g>
<!-- DataService&#45;&gt;AppModule -->
<g id="edge18" class="edge">
<title>DataService&#45;&gt;AppModule</title>
<path fill="none" stroke="black" d="M2902,-122.13C2902,-142.57 2902,-173 2902,-173 2902,-173 1851.85,-173 1851.85,-173"/>
<polygon fill="black" stroke="black" points="1851.85,-169.5 1841.85,-173 1851.85,-176.5 1851.85,-169.5"/>
</g>
<!-- DatabaseService -->
<g id="node20" class="node">
<title>DatabaseService</title>
<ellipse fill="#fdb462" stroke="black" cx="2750" cy="-104" rx="75.26" ry="18"/>
<text text-anchor="middle" x="2750" y="-99.8" font-family="Times,serif" font-size="14.00">DatabaseService</text>
</g>
<!-- DatabaseService&#45;&gt;AppModule -->
<g id="edge19" class="edge">
<title>DatabaseService&#45;&gt;AppModule</title>
<path fill="none" stroke="black" d="M2750,-122.11C2750,-141.34 2750,-169 2750,-169 2750,-169 1851.74,-169 1851.74,-169"/>
<polygon fill="black" stroke="black" points="1851.74,-165.5 1841.74,-169 1851.74,-172.5 1851.74,-165.5"/>
</g>
<!-- JsonManagerService -->
<g id="node21" class="node">
<title>JsonManagerService</title>
<ellipse fill="#fdb462" stroke="black" cx="2565" cy="-104" rx="91.45" ry="18"/>
<text text-anchor="middle" x="2565" y="-99.8" font-family="Times,serif" font-size="14.00">JsonManagerService</text>
</g>
<!-- JsonManagerService&#45;&gt;AppModule -->
<g id="edge20" class="edge">
<title>JsonManagerService&#45;&gt;AppModule</title>
<path fill="none" stroke="black" d="M2565,-122.27C2565,-140.56 2565,-166 2565,-166 2565,-166 1851.67,-166 1851.67,-166"/>
<polygon fill="black" stroke="black" points="1851.67,-162.5 1841.67,-166 1851.67,-169.5 1851.67,-162.5"/>
</g>
<!-- ToastService -->
<g id="node22" class="node">
<title>ToastService</title>
<ellipse fill="#fdb462" stroke="black" cx="2394" cy="-104" rx="61.39" ry="18"/>
<text text-anchor="middle" x="2394" y="-99.8" font-family="Times,serif" font-size="14.00">ToastService</text>
</g>
<!-- ToastService&#45;&gt;AppModule -->
<g id="edge21" class="edge">
<title>ToastService&#45;&gt;AppModule</title>
<path fill="none" stroke="black" d="M2394,-122.03C2394,-139.06 2394,-162 2394,-162 2394,-162 1851.77,-162 1851.77,-162"/>
<polygon fill="black" stroke="black" points="1851.77,-158.5 1841.77,-162 1851.77,-165.5 1851.77,-158.5"/>
</g>
</g>
</svg>
