<?xml version="1.0" encoding="UTF-8" standalone="no"?>
<!DOCTYPE svg PUBLIC "-//W3C//DTD SVG 1.1//EN"
 "http://www.w3.org/Graphics/SVG/1.1/DTD/svg11.dtd">
<!-- Generated by graphviz version 2.44.1 (20200629.0846)
 -->
<!-- Title: dependencies Pages: 1 -->
<svg width="4420pt" height="284pt"
 viewBox="0.00 0.00 4420.00 284.00" xmlns="http://www.w3.org/2000/svg" xmlns:xlink="http://www.w3.org/1999/xlink">
<g id="graph0" class="graph" transform="scale(1 1) rotate(0) translate(4 280)">
<title>dependencies</title>
<polygon fill="white" stroke="transparent" points="-4,4 -4,-280 4416,-280 4416,4 -4,4"/>
<text text-anchor="start" x="2185.01" y="-42.4" font-family="sans-serif" font-weight="bold" font-size="14.00">Legend</text>
<polygon fill="#ffffb3" stroke="transparent" points="1972,-10 1972,-30 1992,-30 1992,-10 1972,-10"/>
<text text-anchor="start" x="1995.63" y="-15.4" font-family="sans-serif" font-size="14.00"> &#160;Declarations</text>
<polygon fill="#8dd3c7" stroke="transparent" points="2085,-10 2085,-30 2105,-30 2105,-10 2085,-10"/>
<text text-anchor="start" x="2108.73" y="-15.4" font-family="sans-serif" font-size="14.00"> &#160;Module</text>
<polygon fill="#80b1d3" stroke="transparent" points="2171,-10 2171,-30 2191,-30 2191,-10 2171,-10"/>
<text text-anchor="start" x="2194.78" y="-15.4" font-family="sans-serif" font-size="14.00"> &#160;Bootstrap</text>
<polygon fill="#fdb462" stroke="transparent" points="2268,-10 2268,-30 2288,-30 2288,-10 2268,-10"/>
<text text-anchor="start" x="2291.67" y="-15.4" font-family="sans-serif" font-size="14.00"> &#160;Providers</text>
<polygon fill="#fb8072" stroke="transparent" points="2364,-10 2364,-30 2384,-30 2384,-10 2364,-10"/>
<text text-anchor="start" x="2387.73" y="-15.4" font-family="sans-serif" font-size="14.00"> &#160;Exports</text>
<g id="clust1" class="cluster">
<title>cluster_AppModule</title>
<polygon fill="none" stroke="black" stroke-dasharray="1,5" points="8,-70 8,-268 4404,-268 4404,-70 8,-70"/>
</g>
<g id="clust23" class="cluster">
<title>cluster_AppModule_bootstrap</title>
<polygon fill="none" stroke="black" points="2231,-208 2231,-260 2355,-260 2355,-208 2231,-208"/>
</g>
<g id="clust24" class="cluster">
<title>cluster_AppModule_providers</title>
<polygon fill="none" stroke="black" points="3447,-78 3447,-130 4396,-130 4396,-78 3447,-78"/>
</g>
<g id="clust21" class="cluster">
<title>cluster_AppModule_imports</title>
<polygon fill="none" stroke="black" points="3295,-78 3295,-130 3439,-130 3439,-78 3295,-78"/>
</g>
<g id="clust2" class="cluster">
<title>cluster_AppModule_declarations</title>
<polygon fill="none" stroke="black" points="16,-78 16,-130 3287,-130 3287,-78 16,-78"/>
</g>
<!-- AppComponent -->
<g id="node1" class="node">
<title>AppComponent</title>
<polygon fill="#ffffb3" stroke="black" points="3278.94,-122 3173.06,-122 3173.06,-86 3278.94,-86 3278.94,-122"/>
<text text-anchor="middle" x="3226" y="-99.8" font-family="Times,serif" font-size="14.00">AppComponent</text>
</g>
<!-- AppModule -->
<g id="node19" class="node">
<title>AppModule</title>
<polygon fill="#8dd3c7" stroke="black" points="2334.66,-187 2331.66,-191 2310.66,-191 2307.66,-187 2251.34,-187 2251.34,-151 2334.66,-151 2334.66,-187"/>
<text text-anchor="middle" x="2293" y="-164.8" font-family="Times,serif" font-size="14.00">AppModule</text>
</g>
<!-- AppComponent&#45;&gt;AppModule -->
<g id="edge1" class="edge">
<title>AppComponent&#45;&gt;AppModule</title>
<path fill="none" stroke="black" d="M3226,-122.3C3226,-140.27 3226,-165 3226,-165 3226,-165 2344.9,-165 2344.9,-165"/>
<polygon fill="black" stroke="black" points="2344.9,-161.5 2334.9,-165 2344.9,-168.5 2344.9,-161.5"/>
</g>
<!-- AppNavLayoutComponent -->
<g id="node2" class="node">
<title>AppNavLayoutComponent</title>
<polygon fill="#ffffb3" stroke="black" points="3155.42,-122 2986.58,-122 2986.58,-86 3155.42,-86 3155.42,-122"/>
<text text-anchor="middle" x="3071" y="-99.8" font-family="Times,serif" font-size="14.00">AppNavLayoutComponent</text>
</g>
<!-- AppNavLayoutComponent&#45;&gt;AppModule -->
<g id="edge2" class="edge">
<title>AppNavLayoutComponent&#45;&gt;AppModule</title>
<path fill="none" stroke="black" d="M3071,-122.02C3071,-139.37 3071,-163 3071,-163 3071,-163 2344.83,-163 2344.83,-163"/>
<polygon fill="black" stroke="black" points="2344.83,-159.5 2334.83,-163 2344.83,-166.5 2344.83,-159.5"/>
</g>
<!-- AssignmentChooserComponent -->
<g id="node3" class="node">
<title>AssignmentChooserComponent</title>
<polygon fill="#ffffb3" stroke="black" points="2968.37,-122 2773.63,-122 2773.63,-86 2968.37,-86 2968.37,-122"/>
<text text-anchor="middle" x="2871" y="-99.8" font-family="Times,serif" font-size="14.00">AssignmentChooserComponent</text>
</g>
<!-- AssignmentChooserComponent&#45;&gt;AppModule -->
<g id="edge3" class="edge">
<title>AssignmentChooserComponent&#45;&gt;AppModule</title>
<path fill="none" stroke="black" d="M2871,-122.03C2871,-138.4 2871,-160 2871,-160 2871,-160 2345.03,-160 2345.03,-160"/>
<polygon fill="black" stroke="black" points="2345.03,-156.5 2335.03,-160 2345.03,-163.5 2345.03,-156.5"/>
</g>
<!-- AuthLangNavItemComponent -->
<g id="node4" class="node">
<title>AuthLangNavItemComponent</title>
<polygon fill="#ffffb3" stroke="black" points="2755.57,-122 2568.43,-122 2568.43,-86 2755.57,-86 2755.57,-122"/>
<text text-anchor="middle" x="2662" y="-99.8" font-family="Times,serif" font-size="14.00">AuthLangNavItemComponent</text>
</g>
<!-- AuthLangNavItemComponent&#45;&gt;AppModule -->
<g id="edge4" class="edge">
<title>AuthLangNavItemComponent&#45;&gt;AppModule</title>
<path fill="none" stroke="black" d="M2662,-122.24C2662,-137.57 2662,-157 2662,-157 2662,-157 2344.97,-157 2344.97,-157"/>
<polygon fill="black" stroke="black" points="2344.97,-153.5 2334.97,-157 2344.97,-160.5 2344.97,-153.5"/>
</g>
<!-- ConfigurationComponent -->
<g id="node5" class="node">
<title>ConfigurationComponent</title>
<polygon fill="#ffffb3" stroke="black" points="2550.88,-122 2391.12,-122 2391.12,-86 2550.88,-86 2550.88,-122"/>
<text text-anchor="middle" x="2471" y="-99.8" font-family="Times,serif" font-size="14.00">ConfigurationComponent</text>
</g>
<!-- ConfigurationComponent&#45;&gt;AppModule -->
<g id="edge5" class="edge">
<title>ConfigurationComponent&#45;&gt;AppModule</title>
<path fill="none" stroke="black" d="M2471,-122.05C2471,-136.37 2471,-154 2471,-154 2471,-154 2344.73,-154 2344.73,-154"/>
<polygon fill="black" stroke="black" points="2344.73,-150.5 2334.73,-154 2344.73,-157.5 2344.73,-150.5"/>
</g>
<!-- EditMilestoneComponent -->
<g id="node6" class="node">
<title>EditMilestoneComponent</title>
<polygon fill="#ffffb3" stroke="black" points="2373.16,-122 2212.84,-122 2212.84,-86 2373.16,-86 2373.16,-122"/>
<text text-anchor="middle" x="2293" y="-99.8" font-family="Times,serif" font-size="14.00">EditMilestoneComponent</text>
</g>
<!-- EditMilestoneComponent&#45;&gt;AppModule -->
<g id="edge6" class="edge">
<title>EditMilestoneComponent&#45;&gt;AppModule</title>
<path fill="none" stroke="black" d="M2293,-122.11C2293,-122.11 2293,-140.99 2293,-140.99"/>
<polygon fill="black" stroke="black" points="2289.5,-140.99 2293,-150.99 2296.5,-140.99 2289.5,-140.99"/>
</g>
<!-- EditRepositoriesComponent -->
<g id="node7" class="node">
<title>EditRepositoriesComponent</title>
<polygon fill="#ffffb3" stroke="black" points="2194.15,-122 2019.85,-122 2019.85,-86 2194.15,-86 2194.15,-122"/>
<text text-anchor="middle" x="2107" y="-99.8" font-family="Times,serif" font-size="14.00">EditRepositoriesComponent</text>
</g>
<!-- EditRepositoriesComponent&#45;&gt;AppModule -->
<g id="edge7" class="edge">
<title>EditRepositoriesComponent&#45;&gt;AppModule</title>
<path fill="none" stroke="black" d="M2107,-122.05C2107,-136.37 2107,-154 2107,-154 2107,-154 2241.26,-154 2241.26,-154"/>
<polygon fill="black" stroke="black" points="2241.26,-157.5 2251.26,-154 2241.26,-150.5 2241.26,-157.5"/>
</g>
<!-- EditSessionsComponent -->
<g id="node8" class="node">
<title>EditSessionsComponent</title>
<polygon fill="#ffffb3" stroke="black" points="2001.39,-122 1848.61,-122 1848.61,-86 2001.39,-86 2001.39,-122"/>
<text text-anchor="middle" x="1925" y="-99.8" font-family="Times,serif" font-size="14.00">EditSessionsComponent</text>
</g>
<!-- EditSessionsComponent&#45;&gt;AppModule -->
<g id="edge8" class="edge">
<title>EditSessionsComponent&#45;&gt;AppModule</title>
<path fill="none" stroke="black" d="M1925,-122.24C1925,-137.57 1925,-157 1925,-157 1925,-157 2241.14,-157 2241.14,-157"/>
<polygon fill="black" stroke="black" points="2241.14,-160.5 2251.14,-157 2241.14,-153.5 2241.14,-160.5"/>
</g>
<!-- FileChooserComponent -->
<g id="node9" class="node">
<title>FileChooserComponent</title>
<polygon fill="#ffffb3" stroke="black" points="1830.77,-122 1681.23,-122 1681.23,-86 1830.77,-86 1830.77,-122"/>
<text text-anchor="middle" x="1756" y="-99.8" font-family="Times,serif" font-size="14.00">FileChooserComponent</text>
</g>
<!-- FileChooserComponent&#45;&gt;AppModule -->
<g id="edge9" class="edge">
<title>FileChooserComponent&#45;&gt;AppModule</title>
<path fill="none" stroke="black" d="M1756,-122.03C1756,-138.4 1756,-160 1756,-160 1756,-160 2241.31,-160 2241.31,-160"/>
<polygon fill="black" stroke="black" points="2241.31,-163.5 2251.31,-160 2241.31,-156.5 2241.31,-163.5"/>
</g>
<!-- FourOhFourComponent -->
<g id="node10" class="node">
<title>FourOhFourComponent</title>
<polygon fill="#ffffb3" stroke="black" points="1662.83,-122 1511.17,-122 1511.17,-86 1662.83,-86 1662.83,-122"/>
<text text-anchor="middle" x="1587" y="-99.8" font-family="Times,serif" font-size="14.00">FourOhFourComponent</text>
</g>
<!-- FourOhFourComponent&#45;&gt;AppModule -->
<g id="edge10" class="edge">
<title>FourOhFourComponent&#45;&gt;AppModule</title>
<path fill="none" stroke="black" d="M1587,-122.02C1587,-139.37 1587,-163 1587,-163 1587,-163 2241.21,-163 2241.21,-163"/>
<polygon fill="black" stroke="black" points="2241.21,-166.5 2251.21,-163 2241.21,-159.5 2241.21,-166.5"/>
</g>
<!-- HomeComponent -->
<g id="node11" class="node">
<title>HomeComponent</title>
<polygon fill="#ffffb3" stroke="black" points="1493.55,-122 1378.45,-122 1378.45,-86 1493.55,-86 1493.55,-122"/>
<text text-anchor="middle" x="1436" y="-99.8" font-family="Times,serif" font-size="14.00">HomeComponent</text>
</g>
<!-- HomeComponent&#45;&gt;AppModule -->
<g id="edge11" class="edge">
<title>HomeComponent&#45;&gt;AppModule</title>
<path fill="none" stroke="black" d="M1436,-122.3C1436,-140.27 1436,-165 1436,-165 1436,-165 2241.08,-165 2241.08,-165"/>
<polygon fill="black" stroke="black" points="2241.09,-168.5 2251.08,-165 2241.08,-161.5 2241.09,-168.5"/>
</g>
<!-- HomeNavLayoutComponent -->
<g id="node12" class="node">
<title>HomeNavLayoutComponent</title>
<polygon fill="#ffffb3" stroke="black" points="1360.02,-122 1181.98,-122 1181.98,-86 1360.02,-86 1360.02,-122"/>
<text text-anchor="middle" x="1271" y="-99.8" font-family="Times,serif" font-size="14.00">HomeNavLayoutComponent</text>
</g>
<!-- HomeNavLayoutComponent&#45;&gt;AppModule -->
<g id="edge12" class="edge">
<title>HomeNavLayoutComponent&#45;&gt;AppModule</title>
<path fill="none" stroke="black" d="M1271,-122.17C1271,-141.09 1271,-168 1271,-168 1271,-168 2241.03,-168 2241.03,-168"/>
<polygon fill="black" stroke="black" points="2241.03,-171.5 2251.03,-168 2241.03,-164.5 2241.03,-171.5"/>
</g>
<!-- MetadataComponent -->
<g id="node13" class="node">
<title>MetadataComponent</title>
<polygon fill="#ffffb3" stroke="black" points="1163.92,-122 1030.08,-122 1030.08,-86 1163.92,-86 1163.92,-122"/>
<text text-anchor="middle" x="1097" y="-99.8" font-family="Times,serif" font-size="14.00">MetadataComponent</text>
</g>
<!-- MetadataComponent&#45;&gt;AppModule -->
<g id="edge13" class="edge">
<title>MetadataComponent&#45;&gt;AppModule</title>
<path fill="none" stroke="black" d="M1097,-122.31C1097,-142.15 1097,-171 1097,-171 1097,-171 2241.14,-171 2241.14,-171"/>
<polygon fill="black" stroke="black" points="2241.14,-174.5 2251.14,-171 2241.13,-167.5 2241.14,-174.5"/>
</g>
<!-- ModalAddRepositoriesComponent -->
<g id="node14" class="node">
<title>ModalAddRepositoriesComponent</title>
<polygon fill="#ffffb3" stroke="black" points="1011.98,-122 800.02,-122 800.02,-86 1011.98,-86 1011.98,-122"/>
<text text-anchor="middle" x="906" y="-99.8" font-family="Times,serif" font-size="14.00">ModalAddRepositoriesComponent</text>
</g>
<!-- ModalAddRepositoriesComponent&#45;&gt;AppModule -->
<g id="edge14" class="edge">
<title>ModalAddRepositoriesComponent&#45;&gt;AppModule</title>
<path fill="none" stroke="black" d="M906,-122.03C906,-142.77 906,-174 906,-174 906,-174 2241.11,-174 2241.11,-174"/>
<polygon fill="black" stroke="black" points="2241.11,-177.5 2251.11,-174 2241.11,-170.5 2241.11,-177.5"/>
</g>
<!-- OverviewComponent -->
<g id="node15" class="node">
<title>OverviewComponent</title>
<polygon fill="#ffffb3" stroke="black" points="782.03,-122 645.97,-122 645.97,-86 782.03,-86 782.03,-122"/>
<text text-anchor="middle" x="714" y="-99.8" font-family="Times,serif" font-size="14.00">OverviewComponent</text>
</g>
<!-- OverviewComponent&#45;&gt;AppModule -->
<g id="edge15" class="edge">
<title>OverviewComponent&#45;&gt;AppModule</title>
<path fill="none" stroke="black" d="M714,-122.17C714,-143.5 714,-176 714,-176 714,-176 2241.17,-176 2241.17,-176"/>
<polygon fill="black" stroke="black" points="2241.17,-179.5 2251.17,-176 2241.17,-172.5 2241.17,-179.5"/>
</g>
<!-- QuestionsChooserComponent -->
<g id="node16" class="node">
<title>QuestionsChooserComponent</title>
<polygon fill="#ffffb3" stroke="black" points="627.98,-122 444.02,-122 444.02,-86 627.98,-86 627.98,-122"/>
<text text-anchor="middle" x="536" y="-99.8" font-family="Times,serif" font-size="14.00">QuestionsChooserComponent</text>
</g>
<!-- QuestionsChooserComponent&#45;&gt;AppModule -->
<g id="edge16" class="edge">
<title>QuestionsChooserComponent&#45;&gt;AppModule</title>
<path fill="none" stroke="black" d="M536,-122.16C536,-144.35 536,-179 536,-179 536,-179 2241.3,-179 2241.3,-179"/>
<polygon fill="black" stroke="black" points="2241.3,-182.5 2251.3,-179 2241.3,-175.5 2241.3,-182.5"/>
</g>
<!-- QuestionsCompletionComponent -->
<g id="node17" class="node">
<title>QuestionsCompletionComponent</title>
<polygon fill="#ffffb3" stroke="black" points="425.94,-122 222.06,-122 222.06,-86 425.94,-86 425.94,-122"/>
<text text-anchor="middle" x="324" y="-99.8" font-family="Times,serif" font-size="14.00">QuestionsCompletionComponent</text>
</g>
<!-- QuestionsCompletionComponent&#45;&gt;AppModule -->
<g id="edge17" class="edge">
<title>QuestionsCompletionComponent&#45;&gt;AppModule</title>
<path fill="none" stroke="black" d="M324,-122.09C324,-145.13 324,-182 324,-182 324,-182 2240.96,-182 2240.96,-182"/>
<polygon fill="black" stroke="black" points="2240.96,-185.5 2250.96,-182 2240.96,-178.5 2240.96,-185.5"/>
</g>
<!-- StudentsCommitsComponent -->
<g id="node18" class="node">
<title>StudentsCommitsComponent</title>
<polygon fill="#ffffb3" stroke="black" points="204.4,-122 23.6,-122 23.6,-86 204.4,-86 204.4,-122"/>
<text text-anchor="middle" x="114" y="-99.8" font-family="Times,serif" font-size="14.00">StudentsCommitsComponent</text>
</g>
<!-- StudentsCommitsComponent&#45;&gt;AppModule -->
<g id="edge18" class="edge">
<title>StudentsCommitsComponent&#45;&gt;AppModule</title>
<path fill="none" stroke="black" d="M114,-122.38C114,-146.28 114,-185 114,-185 114,-185 2240.94,-185 2240.94,-185"/>
<polygon fill="black" stroke="black" points="2240.94,-188.5 2250.94,-185 2240.94,-181.5 2240.94,-188.5"/>
</g>
<!-- AppComponent  -->
<g id="node21" class="node">
<title>AppComponent </title>
<polygon fill="#80b1d3" stroke="black" points="2347.44,-252 2238.56,-252 2238.56,-216 2347.44,-216 2347.44,-252"/>
<text text-anchor="middle" x="2293" y="-229.8" font-family="Times,serif" font-size="14.00">AppComponent </text>
</g>
<!-- AppModule&#45;&gt;AppComponent  -->
<g id="edge20" class="edge">
<title>AppModule&#45;&gt;AppComponent </title>
<path fill="none" stroke="black" stroke-dasharray="1,5" d="M2293,-187.11C2293,-187.11 2293,-205.99 2293,-205.99"/>
<polygon fill="black" stroke="black" points="2289.5,-205.99 2293,-215.99 2296.5,-205.99 2289.5,-205.99"/>
</g>
<!-- AppRoutingModule -->
<g id="node20" class="node">
<title>AppRoutingModule</title>
<polygon fill="#8dd3c7" stroke="black" points="3431.27,-122 3428.27,-126 3407.27,-126 3404.27,-122 3302.73,-122 3302.73,-86 3431.27,-86 3431.27,-122"/>
<text text-anchor="middle" x="3367" y="-99.8" font-family="Times,serif" font-size="14.00">AppRoutingModule</text>
</g>
<!-- AppRoutingModule&#45;&gt;AppModule -->
<g id="edge19" class="edge">
<title>AppRoutingModule&#45;&gt;AppModule</title>
<path fill="none" stroke="black" d="M3367,-122.17C3367,-141.09 3367,-168 3367,-168 3367,-168 2344.77,-168 2344.77,-168"/>
<polygon fill="black" stroke="black" points="2344.77,-164.5 2334.77,-168 2344.77,-171.5 2344.77,-164.5"/>
</g>
<!-- AuthService -->
<g id="node22" class="node">
<title>AuthService</title>
<ellipse fill="#fdb462" stroke="black" cx="4329" cy="-104" rx="59.11" ry="18"/>
<text text-anchor="middle" x="4329" y="-99.8" font-family="Times,serif" font-size="14.00">AuthService</text>
</g>
<!-- AuthService&#45;&gt;AppModule -->
<g id="edge21" class="edge">
<title>AuthService&#45;&gt;AppModule</title>
<path fill="none" stroke="black" d="M4329,-122.38C4329,-146.28 4329,-185 4329,-185 4329,-185 2345.06,-185 2345.06,-185"/>
<polygon fill="black" stroke="black" points="2345.06,-181.5 2335.06,-185 2345.06,-188.5 2345.06,-181.5"/>
</g>
<!-- CommitsService -->
<g id="node23" class="node">
<title>CommitsService</title>
<ellipse fill="#fdb462" stroke="black" cx="4176" cy="-104" rx="75.32" ry="18"/>
<text text-anchor="middle" x="4176" y="-99.8" font-family="Times,serif" font-size="14.00">CommitsService</text>
</g>
<!-- CommitsService&#45;&gt;AppModule -->
<g id="edge22" class="edge">
<title>CommitsService&#45;&gt;AppModule</title>
<path fill="none" stroke="black" d="M4176,-122.09C4176,-145.13 4176,-182 4176,-182 4176,-182 2344.97,-182 2344.97,-182"/>
<polygon fill="black" stroke="black" points="2344.97,-178.5 2334.97,-182 2344.97,-185.5 2344.97,-178.5"/>
</g>
<!-- DataService -->
<g id="node24" class="node">
<title>DataService</title>
<ellipse fill="#fdb462" stroke="black" cx="4024" cy="-104" rx="58.44" ry="18"/>
<text text-anchor="middle" x="4024" y="-99.8" font-family="Times,serif" font-size="14.00">DataService</text>
</g>
<!-- DataService&#45;&gt;AppModule -->
<g id="edge23" class="edge">
<title>DataService&#45;&gt;AppModule</title>
<path fill="none" stroke="black" d="M4024,-122.16C4024,-144.35 4024,-179 4024,-179 4024,-179 2344.93,-179 2344.93,-179"/>
<polygon fill="black" stroke="black" points="2344.93,-175.5 2334.93,-179 2344.93,-182.5 2344.93,-175.5"/>
</g>
<!-- DatabaseService -->
<g id="node25" class="node">
<title>DatabaseService</title>
<ellipse fill="#fdb462" stroke="black" cx="3872" cy="-104" rx="75.26" ry="18"/>
<text text-anchor="middle" x="3872" y="-99.8" font-family="Times,serif" font-size="14.00">DatabaseService</text>
</g>
<!-- DatabaseService&#45;&gt;AppModule -->
<g id="edge24" class="edge">
<title>DatabaseService&#45;&gt;AppModule</title>
<path fill="none" stroke="black" d="M3872,-122.17C3872,-143.5 3872,-176 3872,-176 3872,-176 2344.83,-176 2344.83,-176"/>
<polygon fill="black" stroke="black" points="2344.83,-172.5 2334.83,-176 2344.83,-179.5 2344.83,-172.5"/>
</g>
<!-- JsonManagerService -->
<g id="node26" class="node">
<title>JsonManagerService</title>
<ellipse fill="#fdb462" stroke="black" cx="3687" cy="-104" rx="91.45" ry="18"/>
<text text-anchor="middle" x="3687" y="-99.8" font-family="Times,serif" font-size="14.00">JsonManagerService</text>
</g>
<!-- JsonManagerService&#45;&gt;AppModule -->
<g id="edge25" class="edge">
<title>JsonManagerService&#45;&gt;AppModule</title>
<path fill="none" stroke="black" d="M3687,-122.03C3687,-142.77 3687,-174 3687,-174 3687,-174 2344.72,-174 2344.72,-174"/>
<polygon fill="black" stroke="black" points="2344.72,-170.5 2334.72,-174 2344.72,-177.5 2344.72,-170.5"/>
</g>
<!-- ToastService -->
<g id="node27" class="node">
<title>ToastService</title>
<ellipse fill="#fdb462" stroke="black" cx="3516" cy="-104" rx="61.39" ry="18"/>
<text text-anchor="middle" x="3516" y="-99.8" font-family="Times,serif" font-size="14.00">ToastService</text>
</g>
<!-- ToastService&#45;&gt;AppModule -->
<g id="edge26" class="edge">
<title>ToastService&#45;&gt;AppModule</title>
<path fill="none" stroke="black" d="M3516,-122.31C3516,-142.15 3516,-171 3516,-171 3516,-171 2344.74,-171 2344.74,-171"/>
<polygon fill="black" stroke="black" points="2344.74,-167.5 2334.74,-171 2344.74,-174.5 2344.74,-167.5"/>
</g>
</g>
</svg>
