<?xml version="1.0" encoding="UTF-8" standalone="no"?>
<!DOCTYPE svg PUBLIC "-//W3C//DTD SVG 1.1//EN"
 "http://www.w3.org/Graphics/SVG/1.1/DTD/svg11.dtd">
<!-- Generated by graphviz version 2.44.1 (20200629.0846)
 -->
<!-- Title: dependencies Pages: 1 -->
<svg width="3831pt" height="284pt"
 viewBox="0.00 0.00 3831.00 284.00" xmlns="http://www.w3.org/2000/svg" xmlns:xlink="http://www.w3.org/1999/xlink">
<g id="graph0" class="graph" transform="scale(1 1) rotate(0) translate(4 280)">
<title>dependencies</title>
<polygon fill="white" stroke="transparent" points="-4,4 -4,-280 3827,-280 3827,4 -4,4"/>
<text text-anchor="start" x="1890.51" y="-42.4" font-family="sans-serif" font-weight="bold" font-size="14.00">Legend</text>
<polygon fill="#ffffb3" stroke="transparent" points="1677.5,-10 1677.5,-30 1697.5,-30 1697.5,-10 1677.5,-10"/>
<text text-anchor="start" x="1701.13" y="-15.4" font-family="sans-serif" font-size="14.00"> &#160;Declarations</text>
<polygon fill="#8dd3c7" stroke="transparent" points="1790.5,-10 1790.5,-30 1810.5,-30 1810.5,-10 1790.5,-10"/>
<text text-anchor="start" x="1814.23" y="-15.4" font-family="sans-serif" font-size="14.00"> &#160;Module</text>
<polygon fill="#80b1d3" stroke="transparent" points="1876.5,-10 1876.5,-30 1896.5,-30 1896.5,-10 1876.5,-10"/>
<text text-anchor="start" x="1900.28" y="-15.4" font-family="sans-serif" font-size="14.00"> &#160;Bootstrap</text>
<polygon fill="#fdb462" stroke="transparent" points="1973.5,-10 1973.5,-30 1993.5,-30 1993.5,-10 1973.5,-10"/>
<text text-anchor="start" x="1997.17" y="-15.4" font-family="sans-serif" font-size="14.00"> &#160;Providers</text>
<polygon fill="#fb8072" stroke="transparent" points="2069.5,-10 2069.5,-30 2089.5,-30 2089.5,-10 2069.5,-10"/>
<text text-anchor="start" x="2093.23" y="-15.4" font-family="sans-serif" font-size="14.00"> &#160;Exports</text>
<g id="clust1" class="cluster">
<title>cluster_AppModule</title>
<polygon fill="none" stroke="black" stroke-dasharray="1,5" points="8,-70 8,-268 3815,-268 3815,-70 8,-70"/>
</g>
<g id="clust18" class="cluster">
<title>cluster_AppModule_imports</title>
<polygon fill="none" stroke="black" points="3663,-78 3663,-130 3807,-130 3807,-78 3663,-78"/>
</g>
<g id="clust2" class="cluster">
<title>cluster_AppModule_declarations</title>
<polygon fill="none" stroke="black" points="973,-78 973,-130 3655,-130 3655,-78 973,-78"/>
</g>
<g id="clust20" class="cluster">
<title>cluster_AppModule_bootstrap</title>
<polygon fill="none" stroke="black" points="1896,-208 1896,-260 2020,-260 2020,-208 1896,-208"/>
</g>
<g id="clust21" class="cluster">
<title>cluster_AppModule_providers</title>
<polygon fill="none" stroke="black" points="16,-78 16,-130 965,-130 965,-78 16,-78"/>
</g>
<!-- AppComponent -->
<g id="node1" class="node">
<title>AppComponent</title>
<polygon fill="#ffffb3" stroke="black" points="3646.94,-122 3541.06,-122 3541.06,-86 3646.94,-86 3646.94,-122"/>
<text text-anchor="middle" x="3594" y="-99.8" font-family="Times,serif" font-size="14.00">AppComponent</text>
</g>
<!-- AppModule -->
<g id="node16" class="node">
<title>AppModule</title>
<polygon fill="#8dd3c7" stroke="black" points="1999.66,-187 1996.66,-191 1975.66,-191 1972.66,-187 1916.34,-187 1916.34,-151 1999.66,-151 1999.66,-187"/>
<text text-anchor="middle" x="1958" y="-164.8" font-family="Times,serif" font-size="14.00">AppModule</text>
</g>
<!-- AppComponent&#45;&gt;AppModule -->
<g id="edge1" class="edge">
<title>AppComponent&#45;&gt;AppModule</title>
<path fill="none" stroke="black" d="M3594,-122.25C3594,-145.02 3594,-181 3594,-181 3594,-181 2009.67,-181 2009.67,-181"/>
<polygon fill="black" stroke="black" points="2009.67,-177.5 1999.67,-181 2009.67,-184.5 2009.67,-177.5"/>
</g>
<!-- AssignmentChooserComponent -->
<g id="node2" class="node">
<title>AssignmentChooserComponent</title>
<polygon fill="#ffffb3" stroke="black" points="3523.37,-122 3328.63,-122 3328.63,-86 3523.37,-86 3523.37,-122"/>
<text text-anchor="middle" x="3426" y="-99.8" font-family="Times,serif" font-size="14.00">AssignmentChooserComponent</text>
</g>
<!-- AssignmentChooserComponent&#45;&gt;AppModule -->
<g id="edge2" class="edge">
<title>AssignmentChooserComponent&#45;&gt;AppModule</title>
<path fill="none" stroke="black" d="M3426,-122.29C3426,-144.21 3426,-178 3426,-178 3426,-178 2009.96,-178 2009.96,-178"/>
<polygon fill="black" stroke="black" points="2009.96,-174.5 1999.96,-178 2009.96,-181.5 2009.96,-174.5"/>
</g>
<!-- ConfigurationComponent -->
<g id="node3" class="node">
<title>ConfigurationComponent</title>
<polygon fill="#ffffb3" stroke="black" points="3310.88,-122 3151.12,-122 3151.12,-86 3310.88,-86 3310.88,-122"/>
<text text-anchor="middle" x="3231" y="-99.8" font-family="Times,serif" font-size="14.00">ConfigurationComponent</text>
</g>
<!-- ConfigurationComponent&#45;&gt;AppModule -->
<g id="edge3" class="edge">
<title>ConfigurationComponent&#45;&gt;AppModule</title>
<path fill="none" stroke="black" d="M3231,-122.03C3231,-142.77 3231,-174 3231,-174 3231,-174 2009.99,-174 2009.99,-174"/>
<polygon fill="black" stroke="black" points="2009.99,-170.5 1999.99,-174 2009.99,-177.5 2009.99,-170.5"/>
</g>
<!-- EditMilestoneComponent -->
<g id="node4" class="node">
<title>EditMilestoneComponent</title>
<polygon fill="#ffffb3" stroke="black" points="3133.16,-122 2972.84,-122 2972.84,-86 3133.16,-86 3133.16,-122"/>
<text text-anchor="middle" x="3053" y="-99.8" font-family="Times,serif" font-size="14.00">EditMilestoneComponent</text>
</g>
<!-- EditMilestoneComponent&#45;&gt;AppModule -->
<g id="edge4" class="edge">
<title>EditMilestoneComponent&#45;&gt;AppModule</title>
<path fill="none" stroke="black" d="M3053,-122.31C3053,-142.15 3053,-171 3053,-171 3053,-171 2009.92,-171 2009.92,-171"/>
<polygon fill="black" stroke="black" points="2009.92,-167.5 1999.92,-171 2009.92,-174.5 2009.92,-167.5"/>
</g>
<!-- EditRepositoriesComponent -->
<g id="node5" class="node">
<title>EditRepositoriesComponent</title>
<polygon fill="#ffffb3" stroke="black" points="2954.15,-122 2779.85,-122 2779.85,-86 2954.15,-86 2954.15,-122"/>
<text text-anchor="middle" x="2867" y="-99.8" font-family="Times,serif" font-size="14.00">EditRepositoriesComponent</text>
</g>
<!-- EditRepositoriesComponent&#45;&gt;AppModule -->
<g id="edge5" class="edge">
<title>EditRepositoriesComponent&#45;&gt;AppModule</title>
<path fill="none" stroke="black" d="M2867,-122.17C2867,-141.09 2867,-168 2867,-168 2867,-168 2009.72,-168 2009.72,-168"/>
<polygon fill="black" stroke="black" points="2009.72,-164.5 1999.72,-168 2009.72,-171.5 2009.72,-164.5"/>
</g>
<!-- EditSessionsComponent -->
<g id="node6" class="node">
<title>EditSessionsComponent</title>
<polygon fill="#ffffb3" stroke="black" points="2761.39,-122 2608.61,-122 2608.61,-86 2761.39,-86 2761.39,-122"/>
<text text-anchor="middle" x="2685" y="-99.8" font-family="Times,serif" font-size="14.00">EditSessionsComponent</text>
</g>
<!-- EditSessionsComponent&#45;&gt;AppModule -->
<g id="edge6" class="edge">
<title>EditSessionsComponent&#45;&gt;AppModule</title>
<path fill="none" stroke="black" d="M2685,-122.3C2685,-140.27 2685,-165 2685,-165 2685,-165 2009.7,-165 2009.7,-165"/>
<polygon fill="black" stroke="black" points="2009.7,-161.5 1999.7,-165 2009.7,-168.5 2009.7,-161.5"/>
</g>
<!-- FileChooserComponent -->
<g id="node7" class="node">
<title>FileChooserComponent</title>
<polygon fill="#ffffb3" stroke="black" points="2590.77,-122 2441.23,-122 2441.23,-86 2590.77,-86 2590.77,-122"/>
<text text-anchor="middle" x="2516" y="-99.8" font-family="Times,serif" font-size="14.00">FileChooserComponent</text>
</g>
<!-- FileChooserComponent&#45;&gt;AppModule -->
<g id="edge7" class="edge">
<title>FileChooserComponent&#45;&gt;AppModule</title>
<path fill="none" stroke="black" d="M2516,-122.04C2516,-138.73 2516,-161 2516,-161 2516,-161 2009.94,-161 2009.94,-161"/>
<polygon fill="black" stroke="black" points="2009.94,-157.5 1999.94,-161 2009.94,-164.5 2009.94,-157.5"/>
</g>
<!-- FourOhFourComponent -->
<g id="node8" class="node">
<title>FourOhFourComponent</title>
<polygon fill="#ffffb3" stroke="black" points="2422.83,-122 2271.17,-122 2271.17,-86 2422.83,-86 2422.83,-122"/>
<text text-anchor="middle" x="2347" y="-99.8" font-family="Times,serif" font-size="14.00">FourOhFourComponent</text>
</g>
<!-- FourOhFourComponent&#45;&gt;AppModule -->
<g id="edge8" class="edge">
<title>FourOhFourComponent&#45;&gt;AppModule</title>
<path fill="none" stroke="black" d="M2347,-122.28C2347,-137.95 2347,-158 2347,-158 2347,-158 2010,-158 2010,-158"/>
<polygon fill="black" stroke="black" points="2010,-154.5 2000,-158 2010,-161.5 2010,-154.5"/>
</g>
<!-- HomeComponent -->
<g id="node9" class="node">
<title>HomeComponent</title>
<polygon fill="#ffffb3" stroke="black" points="2253.55,-122 2138.45,-122 2138.45,-86 2253.55,-86 2253.55,-122"/>
<text text-anchor="middle" x="2196" y="-99.8" font-family="Times,serif" font-size="14.00">HomeComponent</text>
</g>
<!-- HomeComponent&#45;&gt;AppModule -->
<g id="edge9" class="edge">
<title>HomeComponent&#45;&gt;AppModule</title>
<path fill="none" stroke="black" d="M2196,-122.12C2196,-136.78 2196,-155 2196,-155 2196,-155 2009.73,-155 2009.73,-155"/>
<polygon fill="black" stroke="black" points="2009.73,-151.5 1999.73,-155 2009.73,-158.5 2009.73,-151.5"/>
</g>
<!-- MetadataComponent -->
<g id="node10" class="node">
<title>MetadataComponent</title>
<polygon fill="#ffffb3" stroke="black" points="2120.92,-122 1987.08,-122 1987.08,-86 2120.92,-86 2120.92,-122"/>
<text text-anchor="middle" x="2054" y="-99.8" font-family="Times,serif" font-size="14.00">MetadataComponent</text>
</g>
<!-- MetadataComponent&#45;&gt;AppModule -->
<g id="edge10" class="edge">
<title>MetadataComponent&#45;&gt;AppModule</title>
<path fill="none" stroke="black" d="M1993.56,-122.11C1993.56,-122.11 1993.56,-140.99 1993.56,-140.99"/>
<polygon fill="black" stroke="black" points="1990.06,-140.99 1993.56,-150.99 1997.06,-140.99 1990.06,-140.99"/>
</g>
<!-- ModalAddRepositoriesComponent -->
<g id="node11" class="node">
<title>ModalAddRepositoriesComponent</title>
<polygon fill="#ffffb3" stroke="black" points="1968.98,-122 1757.02,-122 1757.02,-86 1968.98,-86 1968.98,-122"/>
<text text-anchor="middle" x="1863" y="-99.8" font-family="Times,serif" font-size="14.00">ModalAddRepositoriesComponent</text>
</g>
<!-- ModalAddRepositoriesComponent&#45;&gt;AppModule -->
<g id="edge11" class="edge">
<title>ModalAddRepositoriesComponent&#45;&gt;AppModule</title>
<path fill="none" stroke="black" d="M1942.58,-122.11C1942.58,-122.11 1942.58,-140.99 1942.58,-140.99"/>
<polygon fill="black" stroke="black" points="1939.08,-140.99 1942.58,-150.99 1946.08,-140.99 1939.08,-140.99"/>
</g>
<!-- OverviewComponent -->
<g id="node12" class="node">
<title>OverviewComponent</title>
<polygon fill="#ffffb3" stroke="black" points="1739.03,-122 1602.97,-122 1602.97,-86 1739.03,-86 1739.03,-122"/>
<text text-anchor="middle" x="1671" y="-99.8" font-family="Times,serif" font-size="14.00">OverviewComponent</text>
</g>
<!-- OverviewComponent&#45;&gt;AppModule -->
<g id="edge12" class="edge">
<title>OverviewComponent&#45;&gt;AppModule</title>
<path fill="none" stroke="black" d="M1671,-122.12C1671,-136.78 1671,-155 1671,-155 1671,-155 1906.27,-155 1906.27,-155"/>
<polygon fill="black" stroke="black" points="1906.27,-158.5 1916.27,-155 1906.27,-151.5 1906.27,-158.5"/>
</g>
<!-- QuestionsChooserComponent -->
<g id="node13" class="node">
<title>QuestionsChooserComponent</title>
<polygon fill="#ffffb3" stroke="black" points="1584.98,-122 1401.02,-122 1401.02,-86 1584.98,-86 1584.98,-122"/>
<text text-anchor="middle" x="1493" y="-99.8" font-family="Times,serif" font-size="14.00">QuestionsChooserComponent</text>
</g>
<!-- QuestionsChooserComponent&#45;&gt;AppModule -->
<g id="edge13" class="edge">
<title>QuestionsChooserComponent&#45;&gt;AppModule</title>
<path fill="none" stroke="black" d="M1493,-122.28C1493,-137.95 1493,-158 1493,-158 1493,-158 1906.33,-158 1906.33,-158"/>
<polygon fill="black" stroke="black" points="1906.33,-161.5 1916.33,-158 1906.33,-154.5 1906.33,-161.5"/>
</g>
<!-- QuestionsCompletionComponent -->
<g id="node14" class="node">
<title>QuestionsCompletionComponent</title>
<polygon fill="#ffffb3" stroke="black" points="1382.94,-122 1179.06,-122 1179.06,-86 1382.94,-86 1382.94,-122"/>
<text text-anchor="middle" x="1281" y="-99.8" font-family="Times,serif" font-size="14.00">QuestionsCompletionComponent</text>
</g>
<!-- QuestionsCompletionComponent&#45;&gt;AppModule -->
<g id="edge14" class="edge">
<title>QuestionsCompletionComponent&#45;&gt;AppModule</title>
<path fill="none" stroke="black" d="M1281,-122.04C1281,-138.73 1281,-161 1281,-161 1281,-161 1906.16,-161 1906.16,-161"/>
<polygon fill="black" stroke="black" points="1906.16,-164.5 1916.16,-161 1906.16,-157.5 1906.16,-164.5"/>
</g>
<!-- StudentsCommitsComponent -->
<g id="node15" class="node">
<title>StudentsCommitsComponent</title>
<polygon fill="#ffffb3" stroke="black" points="1161.4,-122 980.6,-122 980.6,-86 1161.4,-86 1161.4,-122"/>
<text text-anchor="middle" x="1071" y="-99.8" font-family="Times,serif" font-size="14.00">StudentsCommitsComponent</text>
</g>
<!-- StudentsCommitsComponent&#45;&gt;AppModule -->
<g id="edge15" class="edge">
<title>StudentsCommitsComponent&#45;&gt;AppModule</title>
<path fill="none" stroke="black" d="M1071,-122.3C1071,-140.27 1071,-165 1071,-165 1071,-165 1906.11,-165 1906.11,-165"/>
<polygon fill="black" stroke="black" points="1906.11,-168.5 1916.11,-165 1906.11,-161.5 1906.11,-168.5"/>
</g>
<!-- AppComponent  -->
<g id="node18" class="node">
<title>AppComponent </title>
<polygon fill="#80b1d3" stroke="black" points="2012.44,-252 1903.56,-252 1903.56,-216 2012.44,-216 2012.44,-252"/>
<text text-anchor="middle" x="1958" y="-229.8" font-family="Times,serif" font-size="14.00">AppComponent </text>
</g>
<!-- AppModule&#45;&gt;AppComponent  -->
<g id="edge17" class="edge">
<title>AppModule&#45;&gt;AppComponent </title>
<path fill="none" stroke="black" stroke-dasharray="1,5" d="M1958,-187.11C1958,-187.11 1958,-205.99 1958,-205.99"/>
<polygon fill="black" stroke="black" points="1954.5,-205.99 1958,-215.99 1961.5,-205.99 1954.5,-205.99"/>
</g>
<!-- AppRoutingModule -->
<g id="node17" class="node">
<title>AppRoutingModule</title>
<polygon fill="#8dd3c7" stroke="black" points="3799.27,-122 3796.27,-126 3775.27,-126 3772.27,-122 3670.73,-122 3670.73,-86 3799.27,-86 3799.27,-122"/>
<text text-anchor="middle" x="3735" y="-99.8" font-family="Times,serif" font-size="14.00">AppRoutingModule</text>
</g>
<!-- AppRoutingModule&#45;&gt;AppModule -->
<g id="edge16" class="edge">
<title>AppRoutingModule&#45;&gt;AppModule</title>
<path fill="none" stroke="black" d="M3735,-122.15C3735,-145.76 3735,-184 3735,-184 3735,-184 2009.74,-184 2009.74,-184"/>
<polygon fill="black" stroke="black" points="2009.74,-180.5 1999.74,-184 2009.74,-187.5 2009.74,-180.5"/>
</g>
<!-- AuthService -->
<g id="node19" class="node">
<title>AuthService</title>
<ellipse fill="#fdb462" stroke="black" cx="898" cy="-104" rx="59.11" ry="18"/>
<text text-anchor="middle" x="898" y="-99.8" font-family="Times,serif" font-size="14.00">AuthService</text>
</g>
<!-- AuthService&#45;&gt;AppModule -->
<g id="edge18" class="edge">
<title>AuthService&#45;&gt;AppModule</title>
<path fill="none" stroke="black" d="M898,-122.17C898,-141.09 898,-168 898,-168 898,-168 1906.12,-168 1906.12,-168"/>
<polygon fill="black" stroke="black" points="1906.12,-171.5 1916.12,-168 1906.12,-164.5 1906.12,-171.5"/>
</g>
<!-- CommitsService -->
<g id="node20" class="node">
<title>CommitsService</title>
<ellipse fill="#fdb462" stroke="black" cx="745" cy="-104" rx="75.32" ry="18"/>
<text text-anchor="middle" x="745" y="-99.8" font-family="Times,serif" font-size="14.00">CommitsService</text>
</g>
<!-- CommitsService&#45;&gt;AppModule -->
<g id="edge19" class="edge">
<title>CommitsService&#45;&gt;AppModule</title>
<path fill="none" stroke="black" d="M745,-122.31C745,-142.15 745,-171 745,-171 745,-171 1906.25,-171 1906.25,-171"/>
<polygon fill="black" stroke="black" points="1906.25,-174.5 1916.25,-171 1906.25,-167.5 1906.25,-174.5"/>
</g>
<!-- DataService -->
<g id="node21" class="node">
<title>DataService</title>
<ellipse fill="#fdb462" stroke="black" cx="593" cy="-104" rx="58.44" ry="18"/>
<text text-anchor="middle" x="593" y="-99.8" font-family="Times,serif" font-size="14.00">DataService</text>
</g>
<!-- DataService&#45;&gt;AppModule -->
<g id="edge20" class="edge">
<title>DataService&#45;&gt;AppModule</title>
<path fill="none" stroke="black" d="M593,-122.03C593,-142.77 593,-174 593,-174 593,-174 1906.03,-174 1906.03,-174"/>
<polygon fill="black" stroke="black" points="1906.03,-177.5 1916.03,-174 1906.03,-170.5 1906.03,-177.5"/>
</g>
<!-- DatabaseService -->
<g id="node22" class="node">
<title>DatabaseService</title>
<ellipse fill="#fdb462" stroke="black" cx="441" cy="-104" rx="75.26" ry="18"/>
<text text-anchor="middle" x="441" y="-99.8" font-family="Times,serif" font-size="14.00">DatabaseService</text>
</g>
<!-- DatabaseService&#45;&gt;AppModule -->
<g id="edge21" class="edge">
<title>DatabaseService&#45;&gt;AppModule</title>
<path fill="none" stroke="black" d="M441,-122.29C441,-144.21 441,-178 441,-178 441,-178 1906.24,-178 1906.24,-178"/>
<polygon fill="black" stroke="black" points="1906.24,-181.5 1916.24,-178 1906.24,-174.5 1906.24,-181.5"/>
</g>
<!-- JsonManagerService -->
<g id="node23" class="node">
<title>JsonManagerService</title>
<ellipse fill="#fdb462" stroke="black" cx="256" cy="-104" rx="91.45" ry="18"/>
<text text-anchor="middle" x="256" y="-99.8" font-family="Times,serif" font-size="14.00">JsonManagerService</text>
</g>
<!-- JsonManagerService&#45;&gt;AppModule -->
<g id="edge22" class="edge">
<title>JsonManagerService&#45;&gt;AppModule</title>
<path fill="none" stroke="black" d="M256,-122.25C256,-145.02 256,-181 256,-181 256,-181 1905.93,-181 1905.93,-181"/>
<polygon fill="black" stroke="black" points="1905.93,-184.5 1915.93,-181 1905.93,-177.5 1905.93,-184.5"/>
</g>
<!-- ToastService -->
<g id="node24" class="node">
<title>ToastService</title>
<ellipse fill="#fdb462" stroke="black" cx="85" cy="-104" rx="61.39" ry="18"/>
<text text-anchor="middle" x="85" y="-99.8" font-family="Times,serif" font-size="14.00">ToastService</text>
</g>
<!-- ToastService&#45;&gt;AppModule -->
<g id="edge23" class="edge">
<title>ToastService&#45;&gt;AppModule</title>
<path fill="none" stroke="black" d="M85,-122.15C85,-145.76 85,-184 85,-184 85,-184 1906.25,-184 1906.25,-184"/>
<polygon fill="black" stroke="black" points="1906.25,-187.5 1916.25,-184 1906.25,-180.5 1906.25,-187.5"/>
</g>
</g>
</svg>
