<?xml version="1.0" encoding="UTF-8" standalone="no"?>
<!DOCTYPE svg PUBLIC "-//W3C//DTD SVG 1.1//EN"
 "http://www.w3.org/Graphics/SVG/1.1/DTD/svg11.dtd">
<!-- Generated by graphviz version 2.44.1 (20200629.0846)
 -->
<!-- Title: dependencies Pages: 1 -->
<svg width="4875pt" height="284pt"
 viewBox="0.00 0.00 4875.00 284.00" xmlns="http://www.w3.org/2000/svg" xmlns:xlink="http://www.w3.org/1999/xlink">
<g id="graph0" class="graph" transform="scale(1 1) rotate(0) translate(4 280)">
<title>dependencies</title>
<polygon fill="white" stroke="transparent" points="-4,4 -4,-280 4871,-280 4871,4 -4,4"/>
<text text-anchor="start" x="2412.51" y="-42.4" font-family="sans-serif" font-weight="bold" font-size="14.00">Legend</text>
<polygon fill="#ffffb3" stroke="transparent" points="2199.5,-10 2199.5,-30 2219.5,-30 2219.5,-10 2199.5,-10"/>
<text text-anchor="start" x="2223.13" y="-15.4" font-family="sans-serif" font-size="14.00"> &#160;Declarations</text>
<polygon fill="#8dd3c7" stroke="transparent" points="2312.5,-10 2312.5,-30 2332.5,-30 2332.5,-10 2312.5,-10"/>
<text text-anchor="start" x="2336.23" y="-15.4" font-family="sans-serif" font-size="14.00"> &#160;Module</text>
<polygon fill="#80b1d3" stroke="transparent" points="2398.5,-10 2398.5,-30 2418.5,-30 2418.5,-10 2398.5,-10"/>
<text text-anchor="start" x="2422.28" y="-15.4" font-family="sans-serif" font-size="14.00"> &#160;Bootstrap</text>
<polygon fill="#fdb462" stroke="transparent" points="2495.5,-10 2495.5,-30 2515.5,-30 2515.5,-10 2495.5,-10"/>
<text text-anchor="start" x="2519.17" y="-15.4" font-family="sans-serif" font-size="14.00"> &#160;Providers</text>
<polygon fill="#fb8072" stroke="transparent" points="2591.5,-10 2591.5,-30 2611.5,-30 2611.5,-10 2591.5,-10"/>
<text text-anchor="start" x="2615.23" y="-15.4" font-family="sans-serif" font-size="14.00"> &#160;Exports</text>
<g id="clust1" class="cluster">
<title>cluster_AppModule</title>
<polygon fill="none" stroke="black" stroke-dasharray="1,5" points="8,-70 8,-268 4859,-268 4859,-70 8,-70"/>
</g>
<g id="clust23" class="cluster">
<title>cluster_AppModule_imports</title>
<polygon fill="none" stroke="black" points="4707,-78 4707,-130 4851,-130 4851,-78 4707,-78"/>
</g>
<g id="clust25" class="cluster">
<title>cluster_AppModule_bootstrap</title>
<polygon fill="none" stroke="black" points="2500,-208 2500,-260 2624,-260 2624,-208 2500,-208"/>
</g>
<g id="clust26" class="cluster">
<title>cluster_AppModule_providers</title>
<polygon fill="none" stroke="black" points="3750,-78 3750,-130 4699,-130 4699,-78 3750,-78"/>
</g>
<g id="clust2" class="cluster">
<title>cluster_AppModule_declarations</title>
<polygon fill="none" stroke="black" points="16,-78 16,-130 3742,-130 3742,-78 16,-78"/>
</g>
<!-- AppComponent -->
<g id="node1" class="node">
<title>AppComponent</title>
<polygon fill="#ffffb3" stroke="black" points="3733.94,-122 3628.06,-122 3628.06,-86 3733.94,-86 3733.94,-122"/>
<text text-anchor="middle" x="3681" y="-99.8" font-family="Times,serif" font-size="14.00">AppComponent</text>
</g>
<!-- AppModule -->
<g id="node21" class="node">
<title>AppModule</title>
<polygon fill="#8dd3c7" stroke="black" points="2603.66,-187 2600.66,-191 2579.66,-191 2576.66,-187 2520.34,-187 2520.34,-151 2603.66,-151 2603.66,-187"/>
<text text-anchor="middle" x="2562" y="-164.8" font-family="Times,serif" font-size="14.00">AppModule</text>
</g>
<!-- AppComponent&#45;&gt;AppModule -->
<g id="edge1" class="edge">
<title>AppComponent&#45;&gt;AppModule</title>
<path fill="none" stroke="black" d="M3681,-122.22C3681,-140.83 3681,-167 3681,-167 3681,-167 2613.82,-167 2613.82,-167"/>
<polygon fill="black" stroke="black" points="2613.82,-163.5 2603.82,-167 2613.82,-170.5 2613.82,-163.5"/>
</g>
<!-- AppNavLayoutComponent -->
<g id="node2" class="node">
<title>AppNavLayoutComponent</title>
<polygon fill="#ffffb3" stroke="black" points="3610.42,-122 3441.58,-122 3441.58,-86 3610.42,-86 3610.42,-122"/>
<text text-anchor="middle" x="3526" y="-99.8" font-family="Times,serif" font-size="14.00">AppNavLayoutComponent</text>
</g>
<!-- AppNavLayoutComponent&#45;&gt;AppModule -->
<g id="edge2" class="edge">
<title>AppNavLayoutComponent&#45;&gt;AppModule</title>
<path fill="none" stroke="black" d="M3526,-122C3526,-139.68 3526,-164 3526,-164 3526,-164 2613.73,-164 2613.73,-164"/>
<polygon fill="black" stroke="black" points="2613.73,-160.5 2603.73,-164 2613.73,-167.5 2613.73,-160.5"/>
</g>
<!-- AssignmentChooserComponent -->
<g id="node3" class="node">
<title>AssignmentChooserComponent</title>
<polygon fill="#ffffb3" stroke="black" points="3423.37,-122 3228.63,-122 3228.63,-86 3423.37,-86 3423.37,-122"/>
<text text-anchor="middle" x="3326" y="-99.8" font-family="Times,serif" font-size="14.00">AssignmentChooserComponent</text>
</g>
<!-- AssignmentChooserComponent&#45;&gt;AppModule -->
<g id="edge3" class="edge">
<title>AssignmentChooserComponent&#45;&gt;AppModule</title>
<path fill="none" stroke="black" d="M3326,-122.03C3326,-139.06 3326,-162 3326,-162 3326,-162 2613.89,-162 2613.89,-162"/>
<polygon fill="black" stroke="black" points="2613.89,-158.5 2603.89,-162 2613.89,-165.5 2613.89,-158.5"/>
</g>
<!-- AuthLangNavItemComponent -->
<g id="node4" class="node">
<title>AuthLangNavItemComponent</title>
<polygon fill="#ffffb3" stroke="black" points="3210.57,-122 3023.43,-122 3023.43,-86 3210.57,-86 3210.57,-122"/>
<text text-anchor="middle" x="3117" y="-99.8" font-family="Times,serif" font-size="14.00">AuthLangNavItemComponent</text>
</g>
<!-- AuthLangNavItemComponent&#45;&gt;AppModule -->
<g id="edge4" class="edge">
<title>AuthLangNavItemComponent&#45;&gt;AppModule</title>
<path fill="none" stroke="black" d="M3117,-122.01C3117,-138.05 3117,-159 3117,-159 3117,-159 2613.72,-159 2613.72,-159"/>
<polygon fill="black" stroke="black" points="2613.72,-155.5 2603.72,-159 2613.72,-162.5 2613.72,-155.5"/>
</g>
<!-- ConfigurationComponent -->
<g id="node5" class="node">
<title>ConfigurationComponent</title>
<polygon fill="#ffffb3" stroke="black" points="3005.88,-122 2846.12,-122 2846.12,-86 3005.88,-86 3005.88,-122"/>
<text text-anchor="middle" x="2926" y="-99.8" font-family="Times,serif" font-size="14.00">ConfigurationComponent</text>
</g>
<!-- ConfigurationComponent&#45;&gt;AppModule -->
<g id="edge5" class="edge">
<title>ConfigurationComponent&#45;&gt;AppModule</title>
<path fill="none" stroke="black" d="M2926,-122.24C2926,-137.57 2926,-157 2926,-157 2926,-157 2613.76,-157 2613.76,-157"/>
<polygon fill="black" stroke="black" points="2613.76,-153.5 2603.76,-157 2613.76,-160.5 2613.76,-153.5"/>
</g>
<!-- EditMilestoneComponent -->
<g id="node6" class="node">
<title>EditMilestoneComponent</title>
<polygon fill="#ffffb3" stroke="black" points="2828.16,-122 2667.84,-122 2667.84,-86 2828.16,-86 2828.16,-122"/>
<text text-anchor="middle" x="2748" y="-99.8" font-family="Times,serif" font-size="14.00">EditMilestoneComponent</text>
</g>
<!-- EditMilestoneComponent&#45;&gt;AppModule -->
<g id="edge6" class="edge">
<title>EditMilestoneComponent&#45;&gt;AppModule</title>
<path fill="none" stroke="black" d="M2748,-122.05C2748,-136.37 2748,-154 2748,-154 2748,-154 2613.74,-154 2613.74,-154"/>
<polygon fill="black" stroke="black" points="2613.74,-150.5 2603.74,-154 2613.74,-157.5 2613.74,-150.5"/>
</g>
<!-- EditRepositoriesComponent -->
<g id="node7" class="node">
<title>EditRepositoriesComponent</title>
<polygon fill="#ffffb3" stroke="black" points="2649.15,-122 2474.85,-122 2474.85,-86 2649.15,-86 2649.15,-122"/>
<text text-anchor="middle" x="2562" y="-99.8" font-family="Times,serif" font-size="14.00">EditRepositoriesComponent</text>
</g>
<!-- EditRepositoriesComponent&#45;&gt;AppModule -->
<g id="edge7" class="edge">
<title>EditRepositoriesComponent&#45;&gt;AppModule</title>
<path fill="none" stroke="black" d="M2562,-122.11C2562,-122.11 2562,-140.99 2562,-140.99"/>
<polygon fill="black" stroke="black" points="2558.5,-140.99 2562,-150.99 2565.5,-140.99 2558.5,-140.99"/>
</g>
<!-- EditSessionComponent -->
<g id="node8" class="node">
<title>EditSessionComponent</title>
<polygon fill="#ffffb3" stroke="black" points="2456.94,-122 2309.06,-122 2309.06,-86 2456.94,-86 2456.94,-122"/>
<text text-anchor="middle" x="2383" y="-99.8" font-family="Times,serif" font-size="14.00">EditSessionComponent</text>
</g>
<!-- EditSessionComponent&#45;&gt;AppModule -->
<g id="edge8" class="edge">
<title>EditSessionComponent&#45;&gt;AppModule</title>
<path fill="none" stroke="black" d="M2383,-122.05C2383,-136.37 2383,-154 2383,-154 2383,-154 2510.03,-154 2510.03,-154"/>
<polygon fill="black" stroke="black" points="2510.03,-157.5 2520.03,-154 2510.03,-150.5 2510.03,-157.5"/>
</g>
<!-- FileChooserComponent -->
<g id="node9" class="node">
<title>FileChooserComponent</title>
<polygon fill="#ffffb3" stroke="black" points="2290.77,-122 2141.23,-122 2141.23,-86 2290.77,-86 2290.77,-122"/>
<text text-anchor="middle" x="2216" y="-99.8" font-family="Times,serif" font-size="14.00">FileChooserComponent</text>
</g>
<!-- FileChooserComponent&#45;&gt;AppModule -->
<g id="edge9" class="edge">
<title>FileChooserComponent&#45;&gt;AppModule</title>
<path fill="none" stroke="black" d="M2216,-122.24C2216,-137.57 2216,-157 2216,-157 2216,-157 2510.26,-157 2510.26,-157"/>
<polygon fill="black" stroke="black" points="2510.26,-160.5 2520.26,-157 2510.26,-153.5 2510.26,-160.5"/>
</g>
<!-- FourOhFourComponent -->
<g id="node10" class="node">
<title>FourOhFourComponent</title>
<polygon fill="#ffffb3" stroke="black" points="2122.83,-122 1971.17,-122 1971.17,-86 2122.83,-86 2122.83,-122"/>
<text text-anchor="middle" x="2047" y="-99.8" font-family="Times,serif" font-size="14.00">FourOhFourComponent</text>
</g>
<!-- FourOhFourComponent&#45;&gt;AppModule -->
<g id="edge10" class="edge">
<title>FourOhFourComponent&#45;&gt;AppModule</title>
<path fill="none" stroke="black" d="M2047,-122.01C2047,-138.05 2047,-159 2047,-159 2047,-159 2510.29,-159 2510.29,-159"/>
<polygon fill="black" stroke="black" points="2510.29,-162.5 2520.29,-159 2510.29,-155.5 2510.29,-162.5"/>
</g>
<!-- HelpNavItemComponent -->
<g id="node11" class="node">
<title>HelpNavItemComponent</title>
<polygon fill="#ffffb3" stroke="black" points="1953.52,-122 1796.48,-122 1796.48,-86 1953.52,-86 1953.52,-122"/>
<text text-anchor="middle" x="1875" y="-99.8" font-family="Times,serif" font-size="14.00">HelpNavItemComponent</text>
</g>
<!-- HelpNavItemComponent&#45;&gt;AppModule -->
<g id="edge11" class="edge">
<title>HelpNavItemComponent&#45;&gt;AppModule</title>
<path fill="none" stroke="black" d="M1875,-122.03C1875,-139.06 1875,-162 1875,-162 1875,-162 2510.32,-162 2510.32,-162"/>
<polygon fill="black" stroke="black" points="2510.32,-165.5 2520.32,-162 2510.32,-158.5 2510.32,-165.5"/>
</g>
<!-- HomeComponent -->
<g id="node12" class="node">
<title>HomeComponent</title>
<polygon fill="#ffffb3" stroke="black" points="1777.55,-122 1662.45,-122 1662.45,-86 1777.55,-86 1777.55,-122"/>
<text text-anchor="middle" x="1720" y="-99.8" font-family="Times,serif" font-size="14.00">HomeComponent</text>
</g>
<!-- HomeComponent&#45;&gt;AppModule -->
<g id="edge12" class="edge">
<title>HomeComponent&#45;&gt;AppModule</title>
<path fill="none" stroke="black" d="M1720,-122C1720,-139.68 1720,-164 1720,-164 1720,-164 2510.25,-164 2510.25,-164"/>
<polygon fill="black" stroke="black" points="2510.25,-167.5 2520.25,-164 2510.25,-160.5 2510.25,-167.5"/>
</g>
<!-- HomeNavLayoutComponent -->
<g id="node13" class="node">
<title>HomeNavLayoutComponent</title>
<polygon fill="#ffffb3" stroke="black" points="1644.02,-122 1465.98,-122 1465.98,-86 1644.02,-86 1644.02,-122"/>
<text text-anchor="middle" x="1555" y="-99.8" font-family="Times,serif" font-size="14.00">HomeNavLayoutComponent</text>
</g>
<!-- HomeNavLayoutComponent&#45;&gt;AppModule -->
<g id="edge13" class="edge">
<title>HomeNavLayoutComponent&#45;&gt;AppModule</title>
<path fill="none" stroke="black" d="M1555,-122.22C1555,-140.83 1555,-167 1555,-167 1555,-167 2510.33,-167 2510.33,-167"/>
<polygon fill="black" stroke="black" points="2510.33,-170.5 2520.33,-167 2510.33,-163.5 2510.33,-170.5"/>
</g>
<!-- MetadataComponent -->
<g id="node14" class="node">
<title>MetadataComponent</title>
<polygon fill="#ffffb3" stroke="black" points="1447.92,-122 1314.08,-122 1314.08,-86 1447.92,-86 1447.92,-122"/>
<text text-anchor="middle" x="1381" y="-99.8" font-family="Times,serif" font-size="14.00">MetadataComponent</text>
</g>
<!-- MetadataComponent&#45;&gt;AppModule -->
<g id="edge14" class="edge">
<title>MetadataComponent&#45;&gt;AppModule</title>
<path fill="none" stroke="black" d="M1381,-122.11C1381,-141.34 1381,-169 1381,-169 1381,-169 2510.31,-169 2510.31,-169"/>
<polygon fill="black" stroke="black" points="2510.31,-172.5 2520.31,-169 2510.31,-165.5 2510.31,-172.5"/>
</g>
<!-- ModalAddRepositoriesComponent -->
<g id="node15" class="node">
<title>ModalAddRepositoriesComponent</title>
<polygon fill="#ffffb3" stroke="black" points="1295.98,-122 1084.02,-122 1084.02,-86 1295.98,-86 1295.98,-122"/>
<text text-anchor="middle" x="1190" y="-99.8" font-family="Times,serif" font-size="14.00">ModalAddRepositoriesComponent</text>
</g>
<!-- ModalAddRepositoriesComponent&#45;&gt;AppModule -->
<g id="edge15" class="edge">
<title>ModalAddRepositoriesComponent&#45;&gt;AppModule</title>
<path fill="none" stroke="black" d="M1190,-122.22C1190,-142.37 1190,-172 1190,-172 1190,-172 2510.19,-172 2510.19,-172"/>
<polygon fill="black" stroke="black" points="2510.19,-175.5 2520.19,-172 2510.19,-168.5 2510.19,-175.5"/>
</g>
<!-- OverviewComponent -->
<g id="node16" class="node">
<title>OverviewComponent</title>
<polygon fill="#ffffb3" stroke="black" points="1066.03,-122 929.97,-122 929.97,-86 1066.03,-86 1066.03,-122"/>
<text text-anchor="middle" x="998" y="-99.8" font-family="Times,serif" font-size="14.00">OverviewComponent</text>
</g>
<!-- OverviewComponent&#45;&gt;AppModule -->
<g id="edge16" class="edge">
<title>OverviewComponent&#45;&gt;AppModule</title>
<path fill="none" stroke="black" d="M998,-122.28C998,-143.32 998,-175 998,-175 998,-175 2510.17,-175 2510.17,-175"/>
<polygon fill="black" stroke="black" points="2510.17,-178.5 2520.17,-175 2510.17,-171.5 2510.17,-178.5"/>
</g>
<!-- OverviewGraphContextualMenuComponent -->
<g id="node17" class="node">
<title>OverviewGraphContextualMenuComponent</title>
<polygon fill="#ffffb3" stroke="black" points="911.6,-122 646.4,-122 646.4,-86 911.6,-86 911.6,-122"/>
<text text-anchor="middle" x="779" y="-99.8" font-family="Times,serif" font-size="14.00">OverviewGraphContextualMenuComponent</text>
</g>
<!-- OverviewGraphContextualMenuComponent&#45;&gt;AppModule -->
<g id="edge17" class="edge">
<title>OverviewGraphContextualMenuComponent&#45;&gt;AppModule</title>
<path fill="none" stroke="black" d="M779,-122.04C779,-143.66 779,-177 779,-177 779,-177 2510.12,-177 2510.12,-177"/>
<polygon fill="black" stroke="black" points="2510.12,-180.5 2520.12,-177 2510.12,-173.5 2510.12,-180.5"/>
</g>
<!-- QuestionsChooserComponent -->
<g id="node18" class="node">
<title>QuestionsChooserComponent</title>
<polygon fill="#ffffb3" stroke="black" points="627.98,-122 444.02,-122 444.02,-86 627.98,-86 627.98,-122"/>
<text text-anchor="middle" x="536" y="-99.8" font-family="Times,serif" font-size="14.00">QuestionsChooserComponent</text>
</g>
<!-- QuestionsChooserComponent&#45;&gt;AppModule -->
<g id="edge18" class="edge">
<title>QuestionsChooserComponent&#45;&gt;AppModule</title>
<path fill="none" stroke="black" d="M536,-122.01C536,-144.49 536,-180 536,-180 536,-180 2510.15,-180 2510.15,-180"/>
<polygon fill="black" stroke="black" points="2510.15,-183.5 2520.15,-180 2510.15,-176.5 2510.15,-183.5"/>
</g>
<!-- QuestionsCompletionComponent -->
<g id="node19" class="node">
<title>QuestionsCompletionComponent</title>
<polygon fill="#ffffb3" stroke="black" points="425.94,-122 222.06,-122 222.06,-86 425.94,-86 425.94,-122"/>
<text text-anchor="middle" x="324" y="-99.8" font-family="Times,serif" font-size="14.00">QuestionsCompletionComponent</text>
</g>
<!-- QuestionsCompletionComponent&#45;&gt;AppModule -->
<g id="edge19" class="edge">
<title>QuestionsCompletionComponent&#45;&gt;AppModule</title>
<path fill="none" stroke="black" d="M324,-122.09C324,-145.13 324,-182 324,-182 324,-182 2510.27,-182 2510.27,-182"/>
<polygon fill="black" stroke="black" points="2510.27,-185.5 2520.27,-182 2510.27,-178.5 2510.27,-185.5"/>
</g>
<!-- StudentsCommitsComponent -->
<g id="node20" class="node">
<title>StudentsCommitsComponent</title>
<polygon fill="#ffffb3" stroke="black" points="204.4,-122 23.6,-122 23.6,-86 204.4,-86 204.4,-122"/>
<text text-anchor="middle" x="114" y="-99.8" font-family="Times,serif" font-size="14.00">StudentsCommitsComponent</text>
</g>
<!-- StudentsCommitsComponent&#45;&gt;AppModule -->
<g id="edge20" class="edge">
<title>StudentsCommitsComponent&#45;&gt;AppModule</title>
<path fill="none" stroke="black" d="M114,-122.38C114,-146.28 114,-185 114,-185 114,-185 2510.28,-185 2510.28,-185"/>
<polygon fill="black" stroke="black" points="2510.28,-188.5 2520.28,-185 2510.28,-181.5 2510.28,-188.5"/>
</g>
<!-- AppComponent  -->
<g id="node23" class="node">
<title>AppComponent </title>
<polygon fill="#80b1d3" stroke="black" points="2616.44,-252 2507.56,-252 2507.56,-216 2616.44,-216 2616.44,-252"/>
<text text-anchor="middle" x="2562" y="-229.8" font-family="Times,serif" font-size="14.00">AppComponent </text>
</g>
<!-- AppModule&#45;&gt;AppComponent  -->
<g id="edge22" class="edge">
<title>AppModule&#45;&gt;AppComponent </title>
<path fill="none" stroke="black" stroke-dasharray="1,5" d="M2562,-187.11C2562,-187.11 2562,-205.99 2562,-205.99"/>
<polygon fill="black" stroke="black" points="2558.5,-205.99 2562,-215.99 2565.5,-205.99 2558.5,-205.99"/>
</g>
<!-- AppRoutingModule -->
<g id="node22" class="node">
<title>AppRoutingModule</title>
<polygon fill="#8dd3c7" stroke="black" points="4843.27,-122 4840.27,-126 4819.27,-126 4816.27,-122 4714.73,-122 4714.73,-86 4843.27,-86 4843.27,-122"/>
<text text-anchor="middle" x="4779" y="-99.8" font-family="Times,serif" font-size="14.00">AppRoutingModule</text>
</g>
<!-- AppRoutingModule&#45;&gt;AppModule -->
<g id="edge21" class="edge">
<title>AppRoutingModule&#45;&gt;AppModule</title>
<path fill="none" stroke="black" d="M4779,-122.38C4779,-146.28 4779,-185 4779,-185 4779,-185 2613.82,-185 2613.82,-185"/>
<polygon fill="black" stroke="black" points="2613.82,-181.5 2603.82,-185 2613.82,-188.5 2613.82,-181.5"/>
</g>
<!-- AuthService -->
<g id="node24" class="node">
<title>AuthService</title>
<ellipse fill="#fdb462" stroke="black" cx="4632" cy="-104" rx="59.11" ry="18"/>
<text text-anchor="middle" x="4632" y="-99.8" font-family="Times,serif" font-size="14.00">AuthService</text>
</g>
<!-- AuthService&#45;&gt;AppModule -->
<g id="edge23" class="edge">
<title>AuthService&#45;&gt;AppModule</title>
<path fill="none" stroke="black" d="M4632,-122.09C4632,-145.13 4632,-182 4632,-182 4632,-182 2613.82,-182 2613.82,-182"/>
<polygon fill="black" stroke="black" points="2613.82,-178.5 2603.82,-182 2613.82,-185.5 2613.82,-178.5"/>
</g>
<!-- CommitsService -->
<g id="node25" class="node">
<title>CommitsService</title>
<ellipse fill="#fdb462" stroke="black" cx="4479" cy="-104" rx="75.32" ry="18"/>
<text text-anchor="middle" x="4479" y="-99.8" font-family="Times,serif" font-size="14.00">CommitsService</text>
</g>
<!-- CommitsService&#45;&gt;AppModule -->
<g id="edge24" class="edge">
<title>CommitsService&#45;&gt;AppModule</title>
<path fill="none" stroke="black" d="M4479,-122.01C4479,-144.49 4479,-180 4479,-180 4479,-180 2613.82,-180 2613.82,-180"/>
<polygon fill="black" stroke="black" points="2613.82,-176.5 2603.82,-180 2613.82,-183.5 2613.82,-176.5"/>
</g>
<!-- DataService -->
<g id="node26" class="node">
<title>DataService</title>
<ellipse fill="#fdb462" stroke="black" cx="4327" cy="-104" rx="58.44" ry="18"/>
<text text-anchor="middle" x="4327" y="-99.8" font-family="Times,serif" font-size="14.00">DataService</text>
</g>
<!-- DataService&#45;&gt;AppModule -->
<g id="edge25" class="edge">
<title>DataService&#45;&gt;AppModule</title>
<path fill="none" stroke="black" d="M4327,-122.04C4327,-143.66 4327,-177 4327,-177 4327,-177 2613.89,-177 2613.89,-177"/>
<polygon fill="black" stroke="black" points="2613.89,-173.5 2603.89,-177 2613.89,-180.5 2613.89,-173.5"/>
</g>
<!-- DatabaseService -->
<g id="node27" class="node">
<title>DatabaseService</title>
<ellipse fill="#fdb462" stroke="black" cx="4175" cy="-104" rx="75.26" ry="18"/>
<text text-anchor="middle" x="4175" y="-99.8" font-family="Times,serif" font-size="14.00">DatabaseService</text>
</g>
<!-- DatabaseService&#45;&gt;AppModule -->
<g id="edge26" class="edge">
<title>DatabaseService&#45;&gt;AppModule</title>
<path fill="none" stroke="black" d="M4175,-122.28C4175,-143.32 4175,-175 4175,-175 4175,-175 2613.9,-175 2613.9,-175"/>
<polygon fill="black" stroke="black" points="2613.9,-171.5 2603.9,-175 2613.9,-178.5 2613.9,-171.5"/>
</g>
<!-- JsonManagerService -->
<g id="node28" class="node">
<title>JsonManagerService</title>
<ellipse fill="#fdb462" stroke="black" cx="3990" cy="-104" rx="91.45" ry="18"/>
<text text-anchor="middle" x="3990" y="-99.8" font-family="Times,serif" font-size="14.00">JsonManagerService</text>
</g>
<!-- JsonManagerService&#45;&gt;AppModule -->
<g id="edge27" class="edge">
<title>JsonManagerService&#45;&gt;AppModule</title>
<path fill="none" stroke="black" d="M3990,-122.22C3990,-142.37 3990,-172 3990,-172 3990,-172 2613.96,-172 2613.96,-172"/>
<polygon fill="black" stroke="black" points="2613.96,-168.5 2603.96,-172 2613.96,-175.5 2613.96,-168.5"/>
</g>
<!-- ToastService -->
<g id="node29" class="node">
<title>ToastService</title>
<ellipse fill="#fdb462" stroke="black" cx="3819" cy="-104" rx="61.39" ry="18"/>
<text text-anchor="middle" x="3819" y="-99.8" font-family="Times,serif" font-size="14.00">ToastService</text>
</g>
<!-- ToastService&#45;&gt;AppModule -->
<g id="edge28" class="edge">
<title>ToastService&#45;&gt;AppModule</title>
<path fill="none" stroke="black" d="M3819,-122.11C3819,-141.34 3819,-169 3819,-169 3819,-169 2613.82,-169 2613.82,-169"/>
<polygon fill="black" stroke="black" points="2613.82,-165.5 2603.82,-169 2613.82,-172.5 2613.82,-165.5"/>
</g>
</g>
</svg>
