<?xml version="1.0" encoding="UTF-8" standalone="no"?>
<!DOCTYPE svg PUBLIC "-//W3C//DTD SVG 1.1//EN"
 "http://www.w3.org/Graphics/SVG/1.1/DTD/svg11.dtd">
<!-- Generated by graphviz version 2.44.1 (20200629.0846)
 -->
<!-- Title: dependencies Pages: 1 -->
<svg width="4875pt" height="284pt"
 viewBox="0.00 0.00 4875.00 284.00" xmlns="http://www.w3.org/2000/svg" xmlns:xlink="http://www.w3.org/1999/xlink">
<g id="graph0" class="graph" transform="scale(1 1) rotate(0) translate(4 280)">
<title>dependencies</title>
<polygon fill="white" stroke="transparent" points="-4,4 -4,-280 4871,-280 4871,4 -4,4"/>
<text text-anchor="start" x="2412.51" y="-42.4" font-family="sans-serif" font-weight="bold" font-size="14.00">Legend</text>
<polygon fill="#ffffb3" stroke="transparent" points="2199.5,-10 2199.5,-30 2219.5,-30 2219.5,-10 2199.5,-10"/>
<text text-anchor="start" x="2223.13" y="-15.4" font-family="sans-serif" font-size="14.00"> &#160;Declarations</text>
<polygon fill="#8dd3c7" stroke="transparent" points="2312.5,-10 2312.5,-30 2332.5,-30 2332.5,-10 2312.5,-10"/>
<text text-anchor="start" x="2336.23" y="-15.4" font-family="sans-serif" font-size="14.00"> &#160;Module</text>
<polygon fill="#80b1d3" stroke="transparent" points="2398.5,-10 2398.5,-30 2418.5,-30 2418.5,-10 2398.5,-10"/>
<text text-anchor="start" x="2422.28" y="-15.4" font-family="sans-serif" font-size="14.00"> &#160;Bootstrap</text>
<polygon fill="#fdb462" stroke="transparent" points="2495.5,-10 2495.5,-30 2515.5,-30 2515.5,-10 2495.5,-10"/>
<text text-anchor="start" x="2519.17" y="-15.4" font-family="sans-serif" font-size="14.00"> &#160;Providers</text>
<polygon fill="#fb8072" stroke="transparent" points="2591.5,-10 2591.5,-30 2611.5,-30 2611.5,-10 2591.5,-10"/>
<text text-anchor="start" x="2615.23" y="-15.4" font-family="sans-serif" font-size="14.00"> &#160;Exports</text>
<g id="clust1" class="cluster">
<title>cluster_AppModule</title>
<polygon fill="none" stroke="black" stroke-dasharray="1,5" points="8,-70 8,-268 4859,-268 4859,-70 8,-70"/>
</g>
<g id="clust2" class="cluster">
<title>cluster_AppModule_declarations</title>
<polygon fill="none" stroke="black" points="1125,-78 1125,-130 4851,-130 4851,-78 1125,-78"/>
</g>
<g id="clust23" class="cluster">
<title>cluster_AppModule_imports</title>
<polygon fill="none" stroke="black" points="973,-78 973,-130 1117,-130 1117,-78 973,-78"/>
</g>
<g id="clust25" class="cluster">
<title>cluster_AppModule_bootstrap</title>
<polygon fill="none" stroke="black" points="2428,-208 2428,-260 2552,-260 2552,-208 2428,-208"/>
</g>
<g id="clust26" class="cluster">
<title>cluster_AppModule_providers</title>
<polygon fill="none" stroke="black" points="16,-78 16,-130 965,-130 965,-78 16,-78"/>
</g>
<!-- AppComponent -->
<g id="node1" class="node">
<title>AppComponent</title>
<polygon fill="#ffffb3" stroke="black" points="4842.94,-122 4737.06,-122 4737.06,-86 4842.94,-86 4842.94,-122"/>
<text text-anchor="middle" x="4790" y="-99.8" font-family="Times,serif" font-size="14.00">AppComponent</text>
</g>
<!-- AppModule -->
<g id="node21" class="node">
<title>AppModule</title>
<polygon fill="#8dd3c7" stroke="black" points="2531.66,-187 2528.66,-191 2507.66,-191 2504.66,-187 2448.34,-187 2448.34,-151 2531.66,-151 2531.66,-187"/>
<text text-anchor="middle" x="2490" y="-164.8" font-family="Times,serif" font-size="14.00">AppModule</text>
</g>
<!-- AppComponent&#45;&gt;AppModule -->
<g id="edge1" class="edge">
<title>AppComponent&#45;&gt;AppModule</title>
<path fill="none" stroke="black" d="M4790,-122.38C4790,-146.28 4790,-185 4790,-185 4790,-185 2541.88,-185 2541.88,-185"/>
<polygon fill="black" stroke="black" points="2541.88,-181.5 2531.88,-185 2541.88,-188.5 2541.88,-181.5"/>
</g>
<!-- AppNavLayoutComponent -->
<g id="node2" class="node">
<title>AppNavLayoutComponent</title>
<polygon fill="#ffffb3" stroke="black" points="4719.42,-122 4550.58,-122 4550.58,-86 4719.42,-86 4719.42,-122"/>
<text text-anchor="middle" x="4635" y="-99.8" font-family="Times,serif" font-size="14.00">AppNavLayoutComponent</text>
</g>
<!-- AppNavLayoutComponent&#45;&gt;AppModule -->
<g id="edge2" class="edge">
<title>AppNavLayoutComponent&#45;&gt;AppModule</title>
<path fill="none" stroke="black" d="M4635,-122.09C4635,-145.13 4635,-182 4635,-182 4635,-182 2541.89,-182 2541.89,-182"/>
<polygon fill="black" stroke="black" points="2541.89,-178.5 2531.89,-182 2541.89,-185.5 2541.89,-178.5"/>
</g>
<!-- AssignmentChooserComponent -->
<g id="node3" class="node">
<title>AssignmentChooserComponent</title>
<polygon fill="#ffffb3" stroke="black" points="4532.37,-122 4337.63,-122 4337.63,-86 4532.37,-86 4532.37,-122"/>
<text text-anchor="middle" x="4435" y="-99.8" font-family="Times,serif" font-size="14.00">AssignmentChooserComponent</text>
</g>
<!-- AssignmentChooserComponent&#45;&gt;AppModule -->
<g id="edge3" class="edge">
<title>AssignmentChooserComponent&#45;&gt;AppModule</title>
<path fill="none" stroke="black" d="M4435,-122.01C4435,-144.49 4435,-180 4435,-180 4435,-180 2541.98,-180 2541.98,-180"/>
<polygon fill="black" stroke="black" points="2541.98,-176.5 2531.98,-180 2541.98,-183.5 2541.98,-176.5"/>
</g>
<!-- AuthLangNavItemComponent -->
<g id="node4" class="node">
<title>AuthLangNavItemComponent</title>
<polygon fill="#ffffb3" stroke="black" points="4319.57,-122 4132.43,-122 4132.43,-86 4319.57,-86 4319.57,-122"/>
<text text-anchor="middle" x="4226" y="-99.8" font-family="Times,serif" font-size="14.00">AuthLangNavItemComponent</text>
</g>
<!-- AuthLangNavItemComponent&#45;&gt;AppModule -->
<g id="edge4" class="edge">
<title>AuthLangNavItemComponent&#45;&gt;AppModule</title>
<path fill="none" stroke="black" d="M4226,-122.04C4226,-143.66 4226,-177 4226,-177 4226,-177 2542.05,-177 2542.05,-177"/>
<polygon fill="black" stroke="black" points="2542.05,-173.5 2532.05,-177 2542.05,-180.5 2542.05,-173.5"/>
</g>
<!-- ConfigurationComponent -->
<g id="node5" class="node">
<title>ConfigurationComponent</title>
<polygon fill="#ffffb3" stroke="black" points="4114.88,-122 3955.12,-122 3955.12,-86 4114.88,-86 4114.88,-122"/>
<text text-anchor="middle" x="4035" y="-99.8" font-family="Times,serif" font-size="14.00">ConfigurationComponent</text>
</g>
<!-- ConfigurationComponent&#45;&gt;AppModule -->
<g id="edge5" class="edge">
<title>ConfigurationComponent&#45;&gt;AppModule</title>
<path fill="none" stroke="black" d="M4035,-122.28C4035,-143.32 4035,-175 4035,-175 4035,-175 2541.72,-175 2541.72,-175"/>
<polygon fill="black" stroke="black" points="2541.72,-171.5 2531.72,-175 2541.72,-178.5 2541.72,-171.5"/>
</g>
<!-- EditMilestoneComponent -->
<g id="node6" class="node">
<title>EditMilestoneComponent</title>
<polygon fill="#ffffb3" stroke="black" points="3937.16,-122 3776.84,-122 3776.84,-86 3937.16,-86 3937.16,-122"/>
<text text-anchor="middle" x="3857" y="-99.8" font-family="Times,serif" font-size="14.00">EditMilestoneComponent</text>
</g>
<!-- EditMilestoneComponent&#45;&gt;AppModule -->
<g id="edge6" class="edge">
<title>EditMilestoneComponent&#45;&gt;AppModule</title>
<path fill="none" stroke="black" d="M3857,-122.22C3857,-142.37 3857,-172 3857,-172 3857,-172 2541.66,-172 2541.66,-172"/>
<polygon fill="black" stroke="black" points="2541.66,-168.5 2531.66,-172 2541.66,-175.5 2541.66,-168.5"/>
</g>
<!-- EditRepositoriesComponent -->
<g id="node7" class="node">
<title>EditRepositoriesComponent</title>
<polygon fill="#ffffb3" stroke="black" points="3758.15,-122 3583.85,-122 3583.85,-86 3758.15,-86 3758.15,-122"/>
<text text-anchor="middle" x="3671" y="-99.8" font-family="Times,serif" font-size="14.00">EditRepositoriesComponent</text>
</g>
<!-- EditRepositoriesComponent&#45;&gt;AppModule -->
<g id="edge7" class="edge">
<title>EditRepositoriesComponent&#45;&gt;AppModule</title>
<path fill="none" stroke="black" d="M3671,-122.11C3671,-141.34 3671,-169 3671,-169 3671,-169 2541.69,-169 2541.69,-169"/>
<polygon fill="black" stroke="black" points="2541.69,-165.5 2531.69,-169 2541.69,-172.5 2541.69,-165.5"/>
</g>
<!-- EditSessionComponent -->
<g id="node8" class="node">
<title>EditSessionComponent</title>
<polygon fill="#ffffb3" stroke="black" points="3565.94,-122 3418.06,-122 3418.06,-86 3565.94,-86 3565.94,-122"/>
<text text-anchor="middle" x="3492" y="-99.8" font-family="Times,serif" font-size="14.00">EditSessionComponent</text>
</g>
<!-- EditSessionComponent&#45;&gt;AppModule -->
<g id="edge8" class="edge">
<title>EditSessionComponent&#45;&gt;AppModule</title>
<path fill="none" stroke="black" d="M3492,-122.22C3492,-140.83 3492,-167 3492,-167 3492,-167 2541.78,-167 2541.78,-167"/>
<polygon fill="black" stroke="black" points="2541.78,-163.5 2531.78,-167 2541.78,-170.5 2541.78,-163.5"/>
</g>
<!-- FileChooserComponent -->
<g id="node9" class="node">
<title>FileChooserComponent</title>
<polygon fill="#ffffb3" stroke="black" points="3399.77,-122 3250.23,-122 3250.23,-86 3399.77,-86 3399.77,-122"/>
<text text-anchor="middle" x="3325" y="-99.8" font-family="Times,serif" font-size="14.00">FileChooserComponent</text>
</g>
<!-- FileChooserComponent&#45;&gt;AppModule -->
<g id="edge9" class="edge">
<title>FileChooserComponent&#45;&gt;AppModule</title>
<path fill="none" stroke="black" d="M3325,-122C3325,-139.68 3325,-164 3325,-164 3325,-164 2541.69,-164 2541.69,-164"/>
<polygon fill="black" stroke="black" points="2541.69,-160.5 2531.69,-164 2541.69,-167.5 2541.69,-160.5"/>
</g>
<!-- FourOhFourComponent -->
<g id="node10" class="node">
<title>FourOhFourComponent</title>
<polygon fill="#ffffb3" stroke="black" points="3231.83,-122 3080.17,-122 3080.17,-86 3231.83,-86 3231.83,-122"/>
<text text-anchor="middle" x="3156" y="-99.8" font-family="Times,serif" font-size="14.00">FourOhFourComponent</text>
</g>
<!-- FourOhFourComponent&#45;&gt;AppModule -->
<g id="edge10" class="edge">
<title>FourOhFourComponent&#45;&gt;AppModule</title>
<path fill="none" stroke="black" d="M3156,-122.03C3156,-139.06 3156,-162 3156,-162 3156,-162 2541.66,-162 2541.66,-162"/>
<polygon fill="black" stroke="black" points="2541.66,-158.5 2531.66,-162 2541.66,-165.5 2541.66,-158.5"/>
</g>
<!-- HelpNavItemComponent -->
<g id="node11" class="node">
<title>HelpNavItemComponent</title>
<polygon fill="#ffffb3" stroke="black" points="3062.52,-122 2905.48,-122 2905.48,-86 3062.52,-86 3062.52,-122"/>
<text text-anchor="middle" x="2984" y="-99.8" font-family="Times,serif" font-size="14.00">HelpNavItemComponent</text>
</g>
<!-- HelpNavItemComponent&#45;&gt;AppModule -->
<g id="edge11" class="edge">
<title>HelpNavItemComponent&#45;&gt;AppModule</title>
<path fill="none" stroke="black" d="M2984,-122.01C2984,-138.05 2984,-159 2984,-159 2984,-159 2541.69,-159 2541.69,-159"/>
<polygon fill="black" stroke="black" points="2541.69,-155.5 2531.69,-159 2541.69,-162.5 2541.69,-155.5"/>
</g>
<!-- HomeComponent -->
<g id="node12" class="node">
<title>HomeComponent</title>
<polygon fill="#ffffb3" stroke="black" points="2886.55,-122 2771.45,-122 2771.45,-86 2886.55,-86 2886.55,-122"/>
<text text-anchor="middle" x="2829" y="-99.8" font-family="Times,serif" font-size="14.00">HomeComponent</text>
</g>
<!-- HomeComponent&#45;&gt;AppModule -->
<g id="edge12" class="edge">
<title>HomeComponent&#45;&gt;AppModule</title>
<path fill="none" stroke="black" d="M2829,-122.24C2829,-137.57 2829,-157 2829,-157 2829,-157 2541.91,-157 2541.91,-157"/>
<polygon fill="black" stroke="black" points="2541.91,-153.5 2531.91,-157 2541.91,-160.5 2541.91,-153.5"/>
</g>
<!-- HomeNavLayoutComponent -->
<g id="node13" class="node">
<title>HomeNavLayoutComponent</title>
<polygon fill="#ffffb3" stroke="black" points="2753.02,-122 2574.98,-122 2574.98,-86 2753.02,-86 2753.02,-122"/>
<text text-anchor="middle" x="2664" y="-99.8" font-family="Times,serif" font-size="14.00">HomeNavLayoutComponent</text>
</g>
<!-- HomeNavLayoutComponent&#45;&gt;AppModule -->
<g id="edge13" class="edge">
<title>HomeNavLayoutComponent&#45;&gt;AppModule</title>
<path fill="none" stroke="black" d="M2664,-122.05C2664,-136.37 2664,-154 2664,-154 2664,-154 2541.68,-154 2541.68,-154"/>
<polygon fill="black" stroke="black" points="2541.68,-150.5 2531.68,-154 2541.68,-157.5 2541.68,-150.5"/>
</g>
<!-- MetadataComponent -->
<g id="node14" class="node">
<title>MetadataComponent</title>
<polygon fill="#ffffb3" stroke="black" points="2556.92,-122 2423.08,-122 2423.08,-86 2556.92,-86 2556.92,-122"/>
<text text-anchor="middle" x="2490" y="-99.8" font-family="Times,serif" font-size="14.00">MetadataComponent</text>
</g>
<!-- MetadataComponent&#45;&gt;AppModule -->
<g id="edge14" class="edge">
<title>MetadataComponent&#45;&gt;AppModule</title>
<path fill="none" stroke="black" d="M2490,-122.11C2490,-122.11 2490,-140.99 2490,-140.99"/>
<polygon fill="black" stroke="black" points="2486.5,-140.99 2490,-150.99 2493.5,-140.99 2486.5,-140.99"/>
</g>
<!-- ModalAddRepositoriesComponent -->
<g id="node15" class="node">
<title>ModalAddRepositoriesComponent</title>
<polygon fill="#ffffb3" stroke="black" points="2404.98,-122 2193.02,-122 2193.02,-86 2404.98,-86 2404.98,-122"/>
<text text-anchor="middle" x="2299" y="-99.8" font-family="Times,serif" font-size="14.00">ModalAddRepositoriesComponent</text>
</g>
<!-- ModalAddRepositoriesComponent&#45;&gt;AppModule -->
<g id="edge15" class="edge">
<title>ModalAddRepositoriesComponent&#45;&gt;AppModule</title>
<path fill="none" stroke="black" d="M2299,-122.05C2299,-136.37 2299,-154 2299,-154 2299,-154 2438.08,-154 2438.08,-154"/>
<polygon fill="black" stroke="black" points="2438.08,-157.5 2448.08,-154 2438.08,-150.5 2438.08,-157.5"/>
</g>
<!-- OverviewComponent -->
<g id="node16" class="node">
<title>OverviewComponent</title>
<polygon fill="#ffffb3" stroke="black" points="2175.03,-122 2038.97,-122 2038.97,-86 2175.03,-86 2175.03,-122"/>
<text text-anchor="middle" x="2107" y="-99.8" font-family="Times,serif" font-size="14.00">OverviewComponent</text>
</g>
<!-- OverviewComponent&#45;&gt;AppModule -->
<g id="edge16" class="edge">
<title>OverviewComponent&#45;&gt;AppModule</title>
<path fill="none" stroke="black" d="M2107,-122.24C2107,-137.57 2107,-157 2107,-157 2107,-157 2438.28,-157 2438.28,-157"/>
<polygon fill="black" stroke="black" points="2438.28,-160.5 2448.28,-157 2438.28,-153.5 2438.28,-160.5"/>
</g>
<!-- OverviewGraphContextualMenuComponent -->
<g id="node17" class="node">
<title>OverviewGraphContextualMenuComponent</title>
<polygon fill="#ffffb3" stroke="black" points="2020.6,-122 1755.4,-122 1755.4,-86 2020.6,-86 2020.6,-122"/>
<text text-anchor="middle" x="1888" y="-99.8" font-family="Times,serif" font-size="14.00">OverviewGraphContextualMenuComponent</text>
</g>
<!-- OverviewGraphContextualMenuComponent&#45;&gt;AppModule -->
<g id="edge17" class="edge">
<title>OverviewGraphContextualMenuComponent&#45;&gt;AppModule</title>
<path fill="none" stroke="black" d="M1888,-122.01C1888,-138.05 1888,-159 1888,-159 1888,-159 2438.15,-159 2438.15,-159"/>
<polygon fill="black" stroke="black" points="2438.15,-162.5 2448.15,-159 2438.15,-155.5 2438.15,-162.5"/>
</g>
<!-- QuestionsChooserComponent -->
<g id="node18" class="node">
<title>QuestionsChooserComponent</title>
<polygon fill="#ffffb3" stroke="black" points="1736.98,-122 1553.02,-122 1553.02,-86 1736.98,-86 1736.98,-122"/>
<text text-anchor="middle" x="1645" y="-99.8" font-family="Times,serif" font-size="14.00">QuestionsChooserComponent</text>
</g>
<!-- QuestionsChooserComponent&#45;&gt;AppModule -->
<g id="edge18" class="edge">
<title>QuestionsChooserComponent&#45;&gt;AppModule</title>
<path fill="none" stroke="black" d="M1645,-122.03C1645,-139.06 1645,-162 1645,-162 1645,-162 2438.1,-162 2438.1,-162"/>
<polygon fill="black" stroke="black" points="2438.1,-165.5 2448.1,-162 2438.1,-158.5 2438.1,-165.5"/>
</g>
<!-- QuestionsCompletionComponent -->
<g id="node19" class="node">
<title>QuestionsCompletionComponent</title>
<polygon fill="#ffffb3" stroke="black" points="1534.94,-122 1331.06,-122 1331.06,-86 1534.94,-86 1534.94,-122"/>
<text text-anchor="middle" x="1433" y="-99.8" font-family="Times,serif" font-size="14.00">QuestionsCompletionComponent</text>
</g>
<!-- QuestionsCompletionComponent&#45;&gt;AppModule -->
<g id="edge19" class="edge">
<title>QuestionsCompletionComponent&#45;&gt;AppModule</title>
<path fill="none" stroke="black" d="M1433,-122C1433,-139.68 1433,-164 1433,-164 1433,-164 2438.24,-164 2438.24,-164"/>
<polygon fill="black" stroke="black" points="2438.24,-167.5 2448.24,-164 2438.24,-160.5 2438.24,-167.5"/>
</g>
<!-- StudentsCommitsComponent -->
<g id="node20" class="node">
<title>StudentsCommitsComponent</title>
<polygon fill="#ffffb3" stroke="black" points="1313.4,-122 1132.6,-122 1132.6,-86 1313.4,-86 1313.4,-122"/>
<text text-anchor="middle" x="1223" y="-99.8" font-family="Times,serif" font-size="14.00">StudentsCommitsComponent</text>
</g>
<!-- StudentsCommitsComponent&#45;&gt;AppModule -->
<g id="edge20" class="edge">
<title>StudentsCommitsComponent&#45;&gt;AppModule</title>
<path fill="none" stroke="black" d="M1223,-122.22C1223,-140.83 1223,-167 1223,-167 1223,-167 2438.21,-167 2438.21,-167"/>
<polygon fill="black" stroke="black" points="2438.21,-170.5 2448.21,-167 2438.21,-163.5 2438.21,-170.5"/>
</g>
<!-- AppComponent  -->
<g id="node23" class="node">
<title>AppComponent </title>
<polygon fill="#80b1d3" stroke="black" points="2544.44,-252 2435.56,-252 2435.56,-216 2544.44,-216 2544.44,-252"/>
<text text-anchor="middle" x="2490" y="-229.8" font-family="Times,serif" font-size="14.00">AppComponent </text>
</g>
<!-- AppModule&#45;&gt;AppComponent  -->
<g id="edge22" class="edge">
<title>AppModule&#45;&gt;AppComponent </title>
<path fill="none" stroke="black" stroke-dasharray="1,5" d="M2490,-187.11C2490,-187.11 2490,-205.99 2490,-205.99"/>
<polygon fill="black" stroke="black" points="2486.5,-205.99 2490,-215.99 2493.5,-205.99 2486.5,-205.99"/>
</g>
<!-- AppRoutingModule -->
<g id="node22" class="node">
<title>AppRoutingModule</title>
<polygon fill="#8dd3c7" stroke="black" points="1109.27,-122 1106.27,-126 1085.27,-126 1082.27,-122 980.73,-122 980.73,-86 1109.27,-86 1109.27,-122"/>
<text text-anchor="middle" x="1045" y="-99.8" font-family="Times,serif" font-size="14.00">AppRoutingModule</text>
</g>
<!-- AppRoutingModule&#45;&gt;AppModule -->
<g id="edge21" class="edge">
<title>AppRoutingModule&#45;&gt;AppModule</title>
<path fill="none" stroke="black" d="M1045,-122.11C1045,-141.34 1045,-169 1045,-169 1045,-169 2438.31,-169 2438.31,-169"/>
<polygon fill="black" stroke="black" points="2438.31,-172.5 2448.31,-169 2438.31,-165.5 2438.31,-172.5"/>
</g>
<!-- AuthService -->
<g id="node24" class="node">
<title>AuthService</title>
<ellipse fill="#fdb462" stroke="black" cx="898" cy="-104" rx="59.11" ry="18"/>
<text text-anchor="middle" x="898" y="-99.8" font-family="Times,serif" font-size="14.00">AuthService</text>
</g>
<!-- AuthService&#45;&gt;AppModule -->
<g id="edge23" class="edge">
<title>AuthService&#45;&gt;AppModule</title>
<path fill="none" stroke="black" d="M898,-122.22C898,-142.37 898,-172 898,-172 898,-172 2438.24,-172 2438.24,-172"/>
<polygon fill="black" stroke="black" points="2438.24,-175.5 2448.24,-172 2438.24,-168.5 2438.24,-175.5"/>
</g>
<!-- CommitsService -->
<g id="node25" class="node">
<title>CommitsService</title>
<ellipse fill="#fdb462" stroke="black" cx="745" cy="-104" rx="75.32" ry="18"/>
<text text-anchor="middle" x="745" y="-99.8" font-family="Times,serif" font-size="14.00">CommitsService</text>
</g>
<!-- CommitsService&#45;&gt;AppModule -->
<g id="edge24" class="edge">
<title>CommitsService&#45;&gt;AppModule</title>
<path fill="none" stroke="black" d="M745,-122.28C745,-143.32 745,-175 745,-175 745,-175 2438.16,-175 2438.16,-175"/>
<polygon fill="black" stroke="black" points="2438.16,-178.5 2448.16,-175 2438.16,-171.5 2438.16,-178.5"/>
</g>
<!-- DataService -->
<g id="node26" class="node">
<title>DataService</title>
<ellipse fill="#fdb462" stroke="black" cx="593" cy="-104" rx="58.44" ry="18"/>
<text text-anchor="middle" x="593" y="-99.8" font-family="Times,serif" font-size="14.00">DataService</text>
</g>
<!-- DataService&#45;&gt;AppModule -->
<g id="edge25" class="edge">
<title>DataService&#45;&gt;AppModule</title>
<path fill="none" stroke="black" d="M593,-122.04C593,-143.66 593,-177 593,-177 593,-177 2438.17,-177 2438.17,-177"/>
<polygon fill="black" stroke="black" points="2438.17,-180.5 2448.17,-177 2438.17,-173.5 2438.17,-180.5"/>
</g>
<!-- DatabaseService -->
<g id="node27" class="node">
<title>DatabaseService</title>
<ellipse fill="#fdb462" stroke="black" cx="441" cy="-104" rx="75.26" ry="18"/>
<text text-anchor="middle" x="441" y="-99.8" font-family="Times,serif" font-size="14.00">DatabaseService</text>
</g>
<!-- DatabaseService&#45;&gt;AppModule -->
<g id="edge26" class="edge">
<title>DatabaseService&#45;&gt;AppModule</title>
<path fill="none" stroke="black" d="M441,-122.01C441,-144.49 441,-180 441,-180 441,-180 2438.14,-180 2438.14,-180"/>
<polygon fill="black" stroke="black" points="2438.14,-183.5 2448.14,-180 2438.14,-176.5 2438.14,-183.5"/>
</g>
<!-- JsonManagerService -->
<g id="node28" class="node">
<title>JsonManagerService</title>
<ellipse fill="#fdb462" stroke="black" cx="256" cy="-104" rx="91.45" ry="18"/>
<text text-anchor="middle" x="256" y="-99.8" font-family="Times,serif" font-size="14.00">JsonManagerService</text>
</g>
<!-- JsonManagerService&#45;&gt;AppModule -->
<g id="edge27" class="edge">
<title>JsonManagerService&#45;&gt;AppModule</title>
<path fill="none" stroke="black" d="M256,-122.09C256,-145.13 256,-182 256,-182 256,-182 2437.86,-182 2437.86,-182"/>
<polygon fill="black" stroke="black" points="2437.86,-185.5 2447.86,-182 2437.86,-178.5 2437.86,-185.5"/>
</g>
<!-- ToastService -->
<g id="node29" class="node">
<title>ToastService</title>
<ellipse fill="#fdb462" stroke="black" cx="85" cy="-104" rx="61.39" ry="18"/>
<text text-anchor="middle" x="85" y="-99.8" font-family="Times,serif" font-size="14.00">ToastService</text>
</g>
<!-- ToastService&#45;&gt;AppModule -->
<g id="edge28" class="edge">
<title>ToastService&#45;&gt;AppModule</title>
<path fill="none" stroke="black" d="M85,-122.38C85,-146.28 85,-185 85,-185 85,-185 2438.26,-185 2438.26,-185"/>
<polygon fill="black" stroke="black" points="2438.26,-188.5 2448.26,-185 2438.26,-181.5 2438.26,-188.5"/>
</g>
</g>
</svg>
