<?xml version="1.0" encoding="UTF-8" standalone="no"?>
<!DOCTYPE svg PUBLIC "-//W3C//DTD SVG 1.1//EN"
 "http://www.w3.org/Graphics/SVG/1.1/DTD/svg11.dtd">
<!-- Generated by graphviz version 2.44.1 (20200629.0846)
 -->
<!-- Title: dependencies Pages: 1 -->
<svg width="3629pt" height="284pt"
 viewBox="0.00 0.00 3629.00 284.00" xmlns="http://www.w3.org/2000/svg" xmlns:xlink="http://www.w3.org/1999/xlink">
<g id="graph0" class="graph" transform="scale(1 1) rotate(0) translate(4 280)">
<title>dependencies</title>
<polygon fill="white" stroke="transparent" points="-4,4 -4,-280 3625,-280 3625,4 -4,4"/>
<text text-anchor="start" x="1789.51" y="-42.4" font-family="sans-serif" font-weight="bold" font-size="14.00">Legend</text>
<polygon fill="#ffffb3" stroke="transparent" points="1576.5,-10 1576.5,-30 1596.5,-30 1596.5,-10 1576.5,-10"/>
<text text-anchor="start" x="1600.13" y="-15.4" font-family="sans-serif" font-size="14.00"> &#160;Declarations</text>
<polygon fill="#8dd3c7" stroke="transparent" points="1689.5,-10 1689.5,-30 1709.5,-30 1709.5,-10 1689.5,-10"/>
<text text-anchor="start" x="1713.23" y="-15.4" font-family="sans-serif" font-size="14.00"> &#160;Module</text>
<polygon fill="#80b1d3" stroke="transparent" points="1775.5,-10 1775.5,-30 1795.5,-30 1795.5,-10 1775.5,-10"/>
<text text-anchor="start" x="1799.28" y="-15.4" font-family="sans-serif" font-size="14.00"> &#160;Bootstrap</text>
<polygon fill="#fdb462" stroke="transparent" points="1872.5,-10 1872.5,-30 1892.5,-30 1892.5,-10 1872.5,-10"/>
<text text-anchor="start" x="1896.17" y="-15.4" font-family="sans-serif" font-size="14.00"> &#160;Providers</text>
<polygon fill="#fb8072" stroke="transparent" points="1968.5,-10 1968.5,-30 1988.5,-30 1988.5,-10 1968.5,-10"/>
<text text-anchor="start" x="1992.23" y="-15.4" font-family="sans-serif" font-size="14.00"> &#160;Exports</text>
<g id="clust1" class="cluster">
<title>cluster_AppModule</title>
<polygon fill="none" stroke="black" stroke-dasharray="1,5" points="8,-70 8,-268 3613,-268 3613,-70 8,-70"/>
</g>
<g id="clust17" class="cluster">
<title>cluster_AppModule_imports</title>
<polygon fill="none" stroke="black" points="3461,-78 3461,-130 3605,-130 3605,-78 3461,-78"/>
</g>
<g id="clust19" class="cluster">
<title>cluster_AppModule_bootstrap</title>
<polygon fill="none" stroke="black" points="1790,-208 1790,-260 1914,-260 1914,-208 1790,-208"/>
</g>
<g id="clust2" class="cluster">
<title>cluster_AppModule_declarations</title>
<polygon fill="none" stroke="black" points="973,-78 973,-130 3453,-130 3453,-78 973,-78"/>
</g>
<g id="clust20" class="cluster">
<title>cluster_AppModule_providers</title>
<polygon fill="none" stroke="black" points="16,-78 16,-130 965,-130 965,-78 16,-78"/>
</g>
<!-- AppComponent -->
<g id="node1" class="node">
<title>AppComponent</title>
<polygon fill="#ffffb3" stroke="black" points="3444.94,-122 3339.06,-122 3339.06,-86 3444.94,-86 3444.94,-122"/>
<text text-anchor="middle" x="3392" y="-99.8" font-family="Times,serif" font-size="14.00">AppComponent</text>
</g>
<!-- AppModule -->
<g id="node15" class="node">
<title>AppModule</title>
<polygon fill="#8dd3c7" stroke="black" points="1893.66,-187 1890.66,-191 1869.66,-191 1866.66,-187 1810.34,-187 1810.34,-151 1893.66,-151 1893.66,-187"/>
<text text-anchor="middle" x="1852" y="-164.8" font-family="Times,serif" font-size="14.00">AppModule</text>
</g>
<!-- AppComponent&#45;&gt;AppModule -->
<g id="edge1" class="edge">
<title>AppComponent&#45;&gt;AppModule</title>
<path fill="none" stroke="black" d="M3392,-122.25C3392,-145.02 3392,-181 3392,-181 3392,-181 1903.99,-181 1903.99,-181"/>
<polygon fill="black" stroke="black" points="1903.99,-177.5 1893.99,-181 1903.99,-184.5 1903.99,-177.5"/>
</g>
<!-- AssignmentChooserComponent -->
<g id="node2" class="node">
<title>AssignmentChooserComponent</title>
<polygon fill="#ffffb3" stroke="black" points="3321.37,-122 3126.63,-122 3126.63,-86 3321.37,-86 3321.37,-122"/>
<text text-anchor="middle" x="3224" y="-99.8" font-family="Times,serif" font-size="14.00">AssignmentChooserComponent</text>
</g>
<!-- AssignmentChooserComponent&#45;&gt;AppModule -->
<g id="edge2" class="edge">
<title>AssignmentChooserComponent&#45;&gt;AppModule</title>
<path fill="none" stroke="black" d="M3224,-122.29C3224,-144.21 3224,-178 3224,-178 3224,-178 1903.81,-178 1903.81,-178"/>
<polygon fill="black" stroke="black" points="1903.81,-174.5 1893.81,-178 1903.81,-181.5 1903.81,-174.5"/>
</g>
<!-- ConfigurationComponent -->
<g id="node3" class="node">
<title>ConfigurationComponent</title>
<polygon fill="#ffffb3" stroke="black" points="3108.88,-122 2949.12,-122 2949.12,-86 3108.88,-86 3108.88,-122"/>
<text text-anchor="middle" x="3029" y="-99.8" font-family="Times,serif" font-size="14.00">ConfigurationComponent</text>
</g>
<!-- ConfigurationComponent&#45;&gt;AppModule -->
<g id="edge3" class="edge">
<title>ConfigurationComponent&#45;&gt;AppModule</title>
<path fill="none" stroke="black" d="M3029,-122.03C3029,-142.77 3029,-174 3029,-174 3029,-174 1903.89,-174 1903.89,-174"/>
<polygon fill="black" stroke="black" points="1903.89,-170.5 1893.89,-174 1903.89,-177.5 1903.89,-170.5"/>
</g>
<!-- EditMilestoneComponent -->
<g id="node4" class="node">
<title>EditMilestoneComponent</title>
<polygon fill="#ffffb3" stroke="black" points="2931.16,-122 2770.84,-122 2770.84,-86 2931.16,-86 2931.16,-122"/>
<text text-anchor="middle" x="2851" y="-99.8" font-family="Times,serif" font-size="14.00">EditMilestoneComponent</text>
</g>
<!-- EditMilestoneComponent&#45;&gt;AppModule -->
<g id="edge4" class="edge">
<title>EditMilestoneComponent&#45;&gt;AppModule</title>
<path fill="none" stroke="black" d="M2851,-122.31C2851,-142.15 2851,-171 2851,-171 2851,-171 1903.97,-171 1903.97,-171"/>
<polygon fill="black" stroke="black" points="1903.97,-167.5 1893.97,-171 1903.97,-174.5 1903.97,-167.5"/>
</g>
<!-- EditRepositoriesComponent -->
<g id="node5" class="node">
<title>EditRepositoriesComponent</title>
<polygon fill="#ffffb3" stroke="black" points="2752.15,-122 2577.85,-122 2577.85,-86 2752.15,-86 2752.15,-122"/>
<text text-anchor="middle" x="2665" y="-99.8" font-family="Times,serif" font-size="14.00">EditRepositoriesComponent</text>
</g>
<!-- EditRepositoriesComponent&#45;&gt;AppModule -->
<g id="edge5" class="edge">
<title>EditRepositoriesComponent&#45;&gt;AppModule</title>
<path fill="none" stroke="black" d="M2665,-122.17C2665,-141.09 2665,-168 2665,-168 2665,-168 1903.72,-168 1903.72,-168"/>
<polygon fill="black" stroke="black" points="1903.72,-164.5 1893.72,-168 1903.72,-171.5 1903.72,-164.5"/>
</g>
<!-- EditSessionsComponent -->
<g id="node6" class="node">
<title>EditSessionsComponent</title>
<polygon fill="#ffffb3" stroke="black" points="2559.39,-122 2406.61,-122 2406.61,-86 2559.39,-86 2559.39,-122"/>
<text text-anchor="middle" x="2483" y="-99.8" font-family="Times,serif" font-size="14.00">EditSessionsComponent</text>
</g>
<!-- EditSessionsComponent&#45;&gt;AppModule -->
<g id="edge6" class="edge">
<title>EditSessionsComponent&#45;&gt;AppModule</title>
<path fill="none" stroke="black" d="M2483,-122.3C2483,-140.27 2483,-165 2483,-165 2483,-165 1903.89,-165 1903.89,-165"/>
<polygon fill="black" stroke="black" points="1903.89,-161.5 1893.89,-165 1903.89,-168.5 1903.89,-161.5"/>
</g>
<!-- FileChooserComponent -->
<g id="node7" class="node">
<title>FileChooserComponent</title>
<polygon fill="#ffffb3" stroke="black" points="2388.77,-122 2239.23,-122 2239.23,-86 2388.77,-86 2388.77,-122"/>
<text text-anchor="middle" x="2314" y="-99.8" font-family="Times,serif" font-size="14.00">FileChooserComponent</text>
</g>
<!-- FileChooserComponent&#45;&gt;AppModule -->
<g id="edge7" class="edge">
<title>FileChooserComponent&#45;&gt;AppModule</title>
<path fill="none" stroke="black" d="M2314,-122.04C2314,-138.73 2314,-161 2314,-161 2314,-161 1903.81,-161 1903.81,-161"/>
<polygon fill="black" stroke="black" points="1903.81,-157.5 1893.81,-161 1903.81,-164.5 1903.81,-157.5"/>
</g>
<!-- FourOhFourComponent -->
<g id="node8" class="node">
<title>FourOhFourComponent</title>
<polygon fill="#ffffb3" stroke="black" points="2220.83,-122 2069.17,-122 2069.17,-86 2220.83,-86 2220.83,-122"/>
<text text-anchor="middle" x="2145" y="-99.8" font-family="Times,serif" font-size="14.00">FourOhFourComponent</text>
</g>
<!-- FourOhFourComponent&#45;&gt;AppModule -->
<g id="edge8" class="edge">
<title>FourOhFourComponent&#45;&gt;AppModule</title>
<path fill="none" stroke="black" d="M2145,-122.28C2145,-137.95 2145,-158 2145,-158 2145,-158 1903.67,-158 1903.67,-158"/>
<polygon fill="black" stroke="black" points="1903.67,-154.5 1893.67,-158 1903.67,-161.5 1903.67,-154.5"/>
</g>
<!-- HomeComponent -->
<g id="node9" class="node">
<title>HomeComponent</title>
<polygon fill="#ffffb3" stroke="black" points="2051.55,-122 1936.45,-122 1936.45,-86 2051.55,-86 2051.55,-122"/>
<text text-anchor="middle" x="1994" y="-99.8" font-family="Times,serif" font-size="14.00">HomeComponent</text>
</g>
<!-- HomeComponent&#45;&gt;AppModule -->
<g id="edge9" class="edge">
<title>HomeComponent&#45;&gt;AppModule</title>
<path fill="none" stroke="black" d="M1994,-122.12C1994,-136.78 1994,-155 1994,-155 1994,-155 1903.84,-155 1903.84,-155"/>
<polygon fill="black" stroke="black" points="1903.84,-151.5 1893.84,-155 1903.84,-158.5 1903.84,-151.5"/>
</g>
<!-- MetadataComponent -->
<g id="node10" class="node">
<title>MetadataComponent</title>
<polygon fill="#ffffb3" stroke="black" points="1918.92,-122 1785.08,-122 1785.08,-86 1918.92,-86 1918.92,-122"/>
<text text-anchor="middle" x="1852" y="-99.8" font-family="Times,serif" font-size="14.00">MetadataComponent</text>
</g>
<!-- MetadataComponent&#45;&gt;AppModule -->
<g id="edge10" class="edge">
<title>MetadataComponent&#45;&gt;AppModule</title>
<path fill="none" stroke="black" d="M1852,-122.11C1852,-122.11 1852,-140.99 1852,-140.99"/>
<polygon fill="black" stroke="black" points="1848.5,-140.99 1852,-150.99 1855.5,-140.99 1848.5,-140.99"/>
</g>
<!-- ModalAddRepositoriesComponent -->
<g id="node11" class="node">
<title>ModalAddRepositoriesComponent</title>
<polygon fill="#ffffb3" stroke="black" points="1766.98,-122 1555.02,-122 1555.02,-86 1766.98,-86 1766.98,-122"/>
<text text-anchor="middle" x="1661" y="-99.8" font-family="Times,serif" font-size="14.00">ModalAddRepositoriesComponent</text>
</g>
<!-- ModalAddRepositoriesComponent&#45;&gt;AppModule -->
<g id="edge11" class="edge">
<title>ModalAddRepositoriesComponent&#45;&gt;AppModule</title>
<path fill="none" stroke="black" d="M1661,-122.12C1661,-136.78 1661,-155 1661,-155 1661,-155 1800.08,-155 1800.08,-155"/>
<polygon fill="black" stroke="black" points="1800.08,-158.5 1810.08,-155 1800.08,-151.5 1800.08,-158.5"/>
</g>
<!-- OverviewComponent -->
<g id="node12" class="node">
<title>OverviewComponent</title>
<polygon fill="#ffffb3" stroke="black" points="1537.03,-122 1400.97,-122 1400.97,-86 1537.03,-86 1537.03,-122"/>
<text text-anchor="middle" x="1469" y="-99.8" font-family="Times,serif" font-size="14.00">OverviewComponent</text>
</g>
<!-- OverviewComponent&#45;&gt;AppModule -->
<g id="edge12" class="edge">
<title>OverviewComponent&#45;&gt;AppModule</title>
<path fill="none" stroke="black" d="M1469,-122.28C1469,-137.95 1469,-158 1469,-158 1469,-158 1800.28,-158 1800.28,-158"/>
<polygon fill="black" stroke="black" points="1800.28,-161.5 1810.28,-158 1800.28,-154.5 1800.28,-161.5"/>
</g>
<!-- QuestionsCompletionComponent -->
<g id="node13" class="node">
<title>QuestionsCompletionComponent</title>
<polygon fill="#ffffb3" stroke="black" points="1382.94,-122 1179.06,-122 1179.06,-86 1382.94,-86 1382.94,-122"/>
<text text-anchor="middle" x="1281" y="-99.8" font-family="Times,serif" font-size="14.00">QuestionsCompletionComponent</text>
</g>
<!-- QuestionsCompletionComponent&#45;&gt;AppModule -->
<g id="edge13" class="edge">
<title>QuestionsCompletionComponent&#45;&gt;AppModule</title>
<path fill="none" stroke="black" d="M1281,-122.04C1281,-138.73 1281,-161 1281,-161 1281,-161 1800.01,-161 1800.01,-161"/>
<polygon fill="black" stroke="black" points="1800.01,-164.5 1810.01,-161 1800.01,-157.5 1800.01,-164.5"/>
</g>
<!-- StudentsCommitsComponent -->
<g id="node14" class="node">
<title>StudentsCommitsComponent</title>
<polygon fill="#ffffb3" stroke="black" points="1161.4,-122 980.6,-122 980.6,-86 1161.4,-86 1161.4,-122"/>
<text text-anchor="middle" x="1071" y="-99.8" font-family="Times,serif" font-size="14.00">StudentsCommitsComponent</text>
</g>
<!-- StudentsCommitsComponent&#45;&gt;AppModule -->
<g id="edge14" class="edge">
<title>StudentsCommitsComponent&#45;&gt;AppModule</title>
<path fill="none" stroke="black" d="M1071,-122.3C1071,-140.27 1071,-165 1071,-165 1071,-165 1800.29,-165 1800.29,-165"/>
<polygon fill="black" stroke="black" points="1800.29,-168.5 1810.29,-165 1800.29,-161.5 1800.29,-168.5"/>
</g>
<!-- AppComponent  -->
<g id="node17" class="node">
<title>AppComponent </title>
<polygon fill="#80b1d3" stroke="black" points="1906.44,-252 1797.56,-252 1797.56,-216 1906.44,-216 1906.44,-252"/>
<text text-anchor="middle" x="1852" y="-229.8" font-family="Times,serif" font-size="14.00">AppComponent </text>
</g>
<!-- AppModule&#45;&gt;AppComponent  -->
<g id="edge16" class="edge">
<title>AppModule&#45;&gt;AppComponent </title>
<path fill="none" stroke="black" stroke-dasharray="1,5" d="M1852,-187.11C1852,-187.11 1852,-205.99 1852,-205.99"/>
<polygon fill="black" stroke="black" points="1848.5,-205.99 1852,-215.99 1855.5,-205.99 1848.5,-205.99"/>
</g>
<!-- AppRoutingModule -->
<g id="node16" class="node">
<title>AppRoutingModule</title>
<polygon fill="#8dd3c7" stroke="black" points="3597.27,-122 3594.27,-126 3573.27,-126 3570.27,-122 3468.73,-122 3468.73,-86 3597.27,-86 3597.27,-122"/>
<text text-anchor="middle" x="3533" y="-99.8" font-family="Times,serif" font-size="14.00">AppRoutingModule</text>
</g>
<!-- AppRoutingModule&#45;&gt;AppModule -->
<g id="edge15" class="edge">
<title>AppRoutingModule&#45;&gt;AppModule</title>
<path fill="none" stroke="black" d="M3533,-122.15C3533,-145.76 3533,-184 3533,-184 3533,-184 1903.97,-184 1903.97,-184"/>
<polygon fill="black" stroke="black" points="1903.97,-180.5 1893.97,-184 1903.97,-187.5 1903.97,-180.5"/>
</g>
<!-- AuthService -->
<g id="node18" class="node">
<title>AuthService</title>
<ellipse fill="#fdb462" stroke="black" cx="898" cy="-104" rx="59.11" ry="18"/>
<text text-anchor="middle" x="898" y="-99.8" font-family="Times,serif" font-size="14.00">AuthService</text>
</g>
<!-- AuthService&#45;&gt;AppModule -->
<g id="edge17" class="edge">
<title>AuthService&#45;&gt;AppModule</title>
<path fill="none" stroke="black" d="M898,-122.17C898,-141.09 898,-168 898,-168 898,-168 1800.09,-168 1800.09,-168"/>
<polygon fill="black" stroke="black" points="1800.09,-171.5 1810.09,-168 1800.09,-164.5 1800.09,-171.5"/>
</g>
<!-- CommitsService -->
<g id="node19" class="node">
<title>CommitsService</title>
<ellipse fill="#fdb462" stroke="black" cx="745" cy="-104" rx="75.32" ry="18"/>
<text text-anchor="middle" x="745" y="-99.8" font-family="Times,serif" font-size="14.00">CommitsService</text>
</g>
<!-- CommitsService&#45;&gt;AppModule -->
<g id="edge18" class="edge">
<title>CommitsService&#45;&gt;AppModule</title>
<path fill="none" stroke="black" d="M745,-122.31C745,-142.15 745,-171 745,-171 745,-171 1800.29,-171 1800.29,-171"/>
<polygon fill="black" stroke="black" points="1800.29,-174.5 1810.29,-171 1800.29,-167.5 1800.29,-174.5"/>
</g>
<!-- DataService -->
<g id="node20" class="node">
<title>DataService</title>
<ellipse fill="#fdb462" stroke="black" cx="593" cy="-104" rx="58.44" ry="18"/>
<text text-anchor="middle" x="593" y="-99.8" font-family="Times,serif" font-size="14.00">DataService</text>
</g>
<!-- DataService&#45;&gt;AppModule -->
<g id="edge19" class="edge">
<title>DataService&#45;&gt;AppModule</title>
<path fill="none" stroke="black" d="M593,-122.03C593,-142.77 593,-174 593,-174 593,-174 1800.11,-174 1800.11,-174"/>
<polygon fill="black" stroke="black" points="1800.11,-177.5 1810.11,-174 1800.11,-170.5 1800.11,-177.5"/>
</g>
<!-- DatabaseService -->
<g id="node21" class="node">
<title>DatabaseService</title>
<ellipse fill="#fdb462" stroke="black" cx="441" cy="-104" rx="75.26" ry="18"/>
<text text-anchor="middle" x="441" y="-99.8" font-family="Times,serif" font-size="14.00">DatabaseService</text>
</g>
<!-- DatabaseService&#45;&gt;AppModule -->
<g id="edge20" class="edge">
<title>DatabaseService&#45;&gt;AppModule</title>
<path fill="none" stroke="black" d="M441,-122.29C441,-144.21 441,-178 441,-178 441,-178 1800.15,-178 1800.15,-178"/>
<polygon fill="black" stroke="black" points="1800.15,-181.5 1810.15,-178 1800.15,-174.5 1800.15,-181.5"/>
</g>
<!-- JsonManagerService -->
<g id="node22" class="node">
<title>JsonManagerService</title>
<ellipse fill="#fdb462" stroke="black" cx="256" cy="-104" rx="91.45" ry="18"/>
<text text-anchor="middle" x="256" y="-99.8" font-family="Times,serif" font-size="14.00">JsonManagerService</text>
</g>
<!-- JsonManagerService&#45;&gt;AppModule -->
<g id="edge21" class="edge">
<title>JsonManagerService&#45;&gt;AppModule</title>
<path fill="none" stroke="black" d="M256,-122.25C256,-145.02 256,-181 256,-181 256,-181 1800.13,-181 1800.13,-181"/>
<polygon fill="black" stroke="black" points="1800.13,-184.5 1810.13,-181 1800.13,-177.5 1800.13,-184.5"/>
</g>
<!-- ToastService -->
<g id="node23" class="node">
<title>ToastService</title>
<ellipse fill="#fdb462" stroke="black" cx="85" cy="-104" rx="61.39" ry="18"/>
<text text-anchor="middle" x="85" y="-99.8" font-family="Times,serif" font-size="14.00">ToastService</text>
</g>
<!-- ToastService&#45;&gt;AppModule -->
<g id="edge22" class="edge">
<title>ToastService&#45;&gt;AppModule</title>
<path fill="none" stroke="black" d="M85,-122.15C85,-145.76 85,-184 85,-184 85,-184 1800.06,-184 1800.06,-184"/>
<polygon fill="black" stroke="black" points="1800.06,-187.5 1810.06,-184 1800.06,-180.5 1800.06,-187.5"/>
</g>
</g>
</svg>
