<?xml version="1.0" encoding="UTF-8" standalone="no"?>
<!DOCTYPE svg PUBLIC "-//W3C//DTD SVG 1.1//EN"
 "http://www.w3.org/Graphics/SVG/1.1/DTD/svg11.dtd">
<!-- Generated by graphviz version 2.44.1 (20200629.0846)
 -->
<!-- Title: dependencies Pages: 1 -->
<svg width="3629pt" height="284pt"
 viewBox="0.00 0.00 3629.00 284.00" xmlns="http://www.w3.org/2000/svg" xmlns:xlink="http://www.w3.org/1999/xlink">
<g id="graph0" class="graph" transform="scale(1 1) rotate(0) translate(4 280)">
<title>dependencies</title>
<polygon fill="white" stroke="transparent" points="-4,4 -4,-280 3625,-280 3625,4 -4,4"/>
<text text-anchor="start" x="1789.51" y="-42.4" font-family="sans-serif" font-weight="bold" font-size="14.00">Legend</text>
<polygon fill="#ffffb3" stroke="transparent" points="1576.5,-10 1576.5,-30 1596.5,-30 1596.5,-10 1576.5,-10"/>
<text text-anchor="start" x="1600.13" y="-15.4" font-family="sans-serif" font-size="14.00"> &#160;Declarations</text>
<polygon fill="#8dd3c7" stroke="transparent" points="1689.5,-10 1689.5,-30 1709.5,-30 1709.5,-10 1689.5,-10"/>
<text text-anchor="start" x="1713.23" y="-15.4" font-family="sans-serif" font-size="14.00"> &#160;Module</text>
<polygon fill="#80b1d3" stroke="transparent" points="1775.5,-10 1775.5,-30 1795.5,-30 1795.5,-10 1775.5,-10"/>
<text text-anchor="start" x="1799.28" y="-15.4" font-family="sans-serif" font-size="14.00"> &#160;Bootstrap</text>
<polygon fill="#fdb462" stroke="transparent" points="1872.5,-10 1872.5,-30 1892.5,-30 1892.5,-10 1872.5,-10"/>
<text text-anchor="start" x="1896.17" y="-15.4" font-family="sans-serif" font-size="14.00"> &#160;Providers</text>
<polygon fill="#fb8072" stroke="transparent" points="1968.5,-10 1968.5,-30 1988.5,-30 1988.5,-10 1968.5,-10"/>
<text text-anchor="start" x="1992.23" y="-15.4" font-family="sans-serif" font-size="14.00"> &#160;Exports</text>
<g id="clust1" class="cluster">
<title>cluster_AppModule</title>
<polygon fill="none" stroke="black" stroke-dasharray="1,5" points="8,-70 8,-268 3613,-268 3613,-70 8,-70"/>
</g>
<g id="clust17" class="cluster">
<title>cluster_AppModule_imports</title>
<polygon fill="none" stroke="black" points="3461,-78 3461,-130 3605,-130 3605,-78 3461,-78"/>
</g>
<g id="clust19" class="cluster">
<title>cluster_AppModule_bootstrap</title>
<polygon fill="none" stroke="black" points="1832,-208 1832,-260 1956,-260 1956,-208 1832,-208"/>
</g>
<g id="clust20" class="cluster">
<title>cluster_AppModule_providers</title>
<polygon fill="none" stroke="black" points="2504,-78 2504,-130 3453,-130 3453,-78 2504,-78"/>
</g>
<g id="clust2" class="cluster">
<title>cluster_AppModule_declarations</title>
<polygon fill="none" stroke="black" points="16,-78 16,-130 2496,-130 2496,-78 16,-78"/>
</g>
<!-- AppComponent -->
<g id="node1" class="node">
<title>AppComponent</title>
<polygon fill="#ffffb3" stroke="black" points="2487.94,-122 2382.06,-122 2382.06,-86 2487.94,-86 2487.94,-122"/>
<text text-anchor="middle" x="2435" y="-99.8" font-family="Times,serif" font-size="14.00">AppComponent</text>
</g>
<!-- AppModule -->
<g id="node15" class="node">
<title>AppModule</title>
<polygon fill="#8dd3c7" stroke="black" points="1935.66,-187 1932.66,-191 1911.66,-191 1908.66,-187 1852.34,-187 1852.34,-151 1935.66,-151 1935.66,-187"/>
<text text-anchor="middle" x="1894" y="-164.8" font-family="Times,serif" font-size="14.00">AppModule</text>
</g>
<!-- AppComponent&#45;&gt;AppModule -->
<g id="edge1" class="edge">
<title>AppComponent&#45;&gt;AppModule</title>
<path fill="none" stroke="black" d="M2435,-122.04C2435,-138.73 2435,-161 2435,-161 2435,-161 1946,-161 1946,-161"/>
<polygon fill="black" stroke="black" points="1946,-157.5 1936,-161 1946,-164.5 1946,-157.5"/>
</g>
<!-- AssignmentChooserComponent -->
<g id="node2" class="node">
<title>AssignmentChooserComponent</title>
<polygon fill="#ffffb3" stroke="black" points="2364.37,-122 2169.63,-122 2169.63,-86 2364.37,-86 2364.37,-122"/>
<text text-anchor="middle" x="2267" y="-99.8" font-family="Times,serif" font-size="14.00">AssignmentChooserComponent</text>
</g>
<!-- AssignmentChooserComponent&#45;&gt;AppModule -->
<g id="edge2" class="edge">
<title>AssignmentChooserComponent&#45;&gt;AppModule</title>
<path fill="none" stroke="black" d="M2267,-122.28C2267,-137.95 2267,-158 2267,-158 2267,-158 1945.7,-158 1945.7,-158"/>
<polygon fill="black" stroke="black" points="1945.7,-154.5 1935.7,-158 1945.7,-161.5 1945.7,-154.5"/>
</g>
<!-- ConfigurationComponent -->
<g id="node3" class="node">
<title>ConfigurationComponent</title>
<polygon fill="#ffffb3" stroke="black" points="2151.88,-122 1992.12,-122 1992.12,-86 2151.88,-86 2151.88,-122"/>
<text text-anchor="middle" x="2072" y="-99.8" font-family="Times,serif" font-size="14.00">ConfigurationComponent</text>
</g>
<!-- ConfigurationComponent&#45;&gt;AppModule -->
<g id="edge3" class="edge">
<title>ConfigurationComponent&#45;&gt;AppModule</title>
<path fill="none" stroke="black" d="M2072,-122.12C2072,-136.78 2072,-155 2072,-155 2072,-155 1945.73,-155 1945.73,-155"/>
<polygon fill="black" stroke="black" points="1945.73,-151.5 1935.73,-155 1945.73,-158.5 1945.73,-151.5"/>
</g>
<!-- EditMilestoneComponent -->
<g id="node4" class="node">
<title>EditMilestoneComponent</title>
<polygon fill="#ffffb3" stroke="black" points="1974.16,-122 1813.84,-122 1813.84,-86 1974.16,-86 1974.16,-122"/>
<text text-anchor="middle" x="1894" y="-99.8" font-family="Times,serif" font-size="14.00">EditMilestoneComponent</text>
</g>
<!-- EditMilestoneComponent&#45;&gt;AppModule -->
<g id="edge4" class="edge">
<title>EditMilestoneComponent&#45;&gt;AppModule</title>
<path fill="none" stroke="black" d="M1894,-122.11C1894,-122.11 1894,-140.99 1894,-140.99"/>
<polygon fill="black" stroke="black" points="1890.5,-140.99 1894,-150.99 1897.5,-140.99 1890.5,-140.99"/>
</g>
<!-- EditRepositoriesComponent -->
<g id="node5" class="node">
<title>EditRepositoriesComponent</title>
<polygon fill="#ffffb3" stroke="black" points="1795.15,-122 1620.85,-122 1620.85,-86 1795.15,-86 1795.15,-122"/>
<text text-anchor="middle" x="1708" y="-99.8" font-family="Times,serif" font-size="14.00">EditRepositoriesComponent</text>
</g>
<!-- EditRepositoriesComponent&#45;&gt;AppModule -->
<g id="edge5" class="edge">
<title>EditRepositoriesComponent&#45;&gt;AppModule</title>
<path fill="none" stroke="black" d="M1708,-122.12C1708,-136.78 1708,-155 1708,-155 1708,-155 1842.26,-155 1842.26,-155"/>
<polygon fill="black" stroke="black" points="1842.26,-158.5 1852.26,-155 1842.26,-151.5 1842.26,-158.5"/>
</g>
<!-- EditSessionsComponent -->
<g id="node6" class="node">
<title>EditSessionsComponent</title>
<polygon fill="#ffffb3" stroke="black" points="1602.39,-122 1449.61,-122 1449.61,-86 1602.39,-86 1602.39,-122"/>
<text text-anchor="middle" x="1526" y="-99.8" font-family="Times,serif" font-size="14.00">EditSessionsComponent</text>
</g>
<!-- EditSessionsComponent&#45;&gt;AppModule -->
<g id="edge6" class="edge">
<title>EditSessionsComponent&#45;&gt;AppModule</title>
<path fill="none" stroke="black" d="M1526,-122.28C1526,-137.95 1526,-158 1526,-158 1526,-158 1842.14,-158 1842.14,-158"/>
<polygon fill="black" stroke="black" points="1842.14,-161.5 1852.14,-158 1842.14,-154.5 1842.14,-161.5"/>
</g>
<!-- FileChooserComponent -->
<g id="node7" class="node">
<title>FileChooserComponent</title>
<polygon fill="#ffffb3" stroke="black" points="1431.77,-122 1282.23,-122 1282.23,-86 1431.77,-86 1431.77,-122"/>
<text text-anchor="middle" x="1357" y="-99.8" font-family="Times,serif" font-size="14.00">FileChooserComponent</text>
</g>
<!-- FileChooserComponent&#45;&gt;AppModule -->
<g id="edge7" class="edge">
<title>FileChooserComponent&#45;&gt;AppModule</title>
<path fill="none" stroke="black" d="M1357,-122.04C1357,-138.73 1357,-161 1357,-161 1357,-161 1842.31,-161 1842.31,-161"/>
<polygon fill="black" stroke="black" points="1842.31,-164.5 1852.31,-161 1842.31,-157.5 1842.31,-164.5"/>
</g>
<!-- FourOhFourComponent -->
<g id="node8" class="node">
<title>FourOhFourComponent</title>
<polygon fill="#ffffb3" stroke="black" points="1263.83,-122 1112.17,-122 1112.17,-86 1263.83,-86 1263.83,-122"/>
<text text-anchor="middle" x="1188" y="-99.8" font-family="Times,serif" font-size="14.00">FourOhFourComponent</text>
</g>
<!-- FourOhFourComponent&#45;&gt;AppModule -->
<g id="edge8" class="edge">
<title>FourOhFourComponent&#45;&gt;AppModule</title>
<path fill="none" stroke="black" d="M1188,-122.3C1188,-140.27 1188,-165 1188,-165 1188,-165 1842.21,-165 1842.21,-165"/>
<polygon fill="black" stroke="black" points="1842.21,-168.5 1852.21,-165 1842.21,-161.5 1842.21,-168.5"/>
</g>
<!-- HomeComponent -->
<g id="node9" class="node">
<title>HomeComponent</title>
<polygon fill="#ffffb3" stroke="black" points="1094.55,-122 979.45,-122 979.45,-86 1094.55,-86 1094.55,-122"/>
<text text-anchor="middle" x="1037" y="-99.8" font-family="Times,serif" font-size="14.00">HomeComponent</text>
</g>
<!-- HomeComponent&#45;&gt;AppModule -->
<g id="edge9" class="edge">
<title>HomeComponent&#45;&gt;AppModule</title>
<path fill="none" stroke="black" d="M1037,-122.17C1037,-141.09 1037,-168 1037,-168 1037,-168 1842.08,-168 1842.08,-168"/>
<polygon fill="black" stroke="black" points="1842.09,-171.5 1852.08,-168 1842.08,-164.5 1842.09,-171.5"/>
</g>
<!-- MetadataComponent -->
<g id="node10" class="node">
<title>MetadataComponent</title>
<polygon fill="#ffffb3" stroke="black" points="961.92,-122 828.08,-122 828.08,-86 961.92,-86 961.92,-122"/>
<text text-anchor="middle" x="895" y="-99.8" font-family="Times,serif" font-size="14.00">MetadataComponent</text>
</g>
<!-- MetadataComponent&#45;&gt;AppModule -->
<g id="edge10" class="edge">
<title>MetadataComponent&#45;&gt;AppModule</title>
<path fill="none" stroke="black" d="M895,-122.31C895,-142.15 895,-171 895,-171 895,-171 1842.03,-171 1842.03,-171"/>
<polygon fill="black" stroke="black" points="1842.03,-174.5 1852.03,-171 1842.03,-167.5 1842.03,-174.5"/>
</g>
<!-- ModalAddRepositoriesComponent -->
<g id="node11" class="node">
<title>ModalAddRepositoriesComponent</title>
<polygon fill="#ffffb3" stroke="black" points="809.98,-122 598.02,-122 598.02,-86 809.98,-86 809.98,-122"/>
<text text-anchor="middle" x="704" y="-99.8" font-family="Times,serif" font-size="14.00">ModalAddRepositoriesComponent</text>
</g>
<!-- ModalAddRepositoriesComponent&#45;&gt;AppModule -->
<g id="edge11" class="edge">
<title>ModalAddRepositoriesComponent&#45;&gt;AppModule</title>
<path fill="none" stroke="black" d="M704,-122.03C704,-142.77 704,-174 704,-174 704,-174 1842,-174 1842,-174"/>
<polygon fill="black" stroke="black" points="1842,-177.5 1852,-174 1842,-170.5 1842,-177.5"/>
</g>
<!-- OverviewComponent -->
<g id="node12" class="node">
<title>OverviewComponent</title>
<polygon fill="#ffffb3" stroke="black" points="580.03,-122 443.97,-122 443.97,-86 580.03,-86 580.03,-122"/>
<text text-anchor="middle" x="512" y="-99.8" font-family="Times,serif" font-size="14.00">OverviewComponent</text>
</g>
<!-- OverviewComponent&#45;&gt;AppModule -->
<g id="edge12" class="edge">
<title>OverviewComponent&#45;&gt;AppModule</title>
<path fill="none" stroke="black" d="M512,-122.29C512,-144.21 512,-178 512,-178 512,-178 1842.26,-178 1842.26,-178"/>
<polygon fill="black" stroke="black" points="1842.26,-181.5 1852.26,-178 1842.26,-174.5 1842.26,-181.5"/>
</g>
<!-- QuestionsCompletionComponent -->
<g id="node13" class="node">
<title>QuestionsCompletionComponent</title>
<polygon fill="#ffffb3" stroke="black" points="425.94,-122 222.06,-122 222.06,-86 425.94,-86 425.94,-122"/>
<text text-anchor="middle" x="324" y="-99.8" font-family="Times,serif" font-size="14.00">QuestionsCompletionComponent</text>
</g>
<!-- QuestionsCompletionComponent&#45;&gt;AppModule -->
<g id="edge13" class="edge">
<title>QuestionsCompletionComponent&#45;&gt;AppModule</title>
<path fill="none" stroke="black" d="M324,-122.25C324,-145.02 324,-181 324,-181 324,-181 1842.01,-181 1842.01,-181"/>
<polygon fill="black" stroke="black" points="1842.01,-184.5 1852.01,-181 1842.01,-177.5 1842.01,-184.5"/>
</g>
<!-- StudentsCommitsComponent -->
<g id="node14" class="node">
<title>StudentsCommitsComponent</title>
<polygon fill="#ffffb3" stroke="black" points="204.4,-122 23.6,-122 23.6,-86 204.4,-86 204.4,-122"/>
<text text-anchor="middle" x="114" y="-99.8" font-family="Times,serif" font-size="14.00">StudentsCommitsComponent</text>
</g>
<!-- StudentsCommitsComponent&#45;&gt;AppModule -->
<g id="edge14" class="edge">
<title>StudentsCommitsComponent&#45;&gt;AppModule</title>
<path fill="none" stroke="black" d="M114,-122.15C114,-145.76 114,-184 114,-184 114,-184 1842.19,-184 1842.19,-184"/>
<polygon fill="black" stroke="black" points="1842.19,-187.5 1852.19,-184 1842.19,-180.5 1842.19,-187.5"/>
</g>
<!-- AppComponent  -->
<g id="node17" class="node">
<title>AppComponent </title>
<polygon fill="#80b1d3" stroke="black" points="1948.44,-252 1839.56,-252 1839.56,-216 1948.44,-216 1948.44,-252"/>
<text text-anchor="middle" x="1894" y="-229.8" font-family="Times,serif" font-size="14.00">AppComponent </text>
</g>
<!-- AppModule&#45;&gt;AppComponent  -->
<g id="edge16" class="edge">
<title>AppModule&#45;&gt;AppComponent </title>
<path fill="none" stroke="black" stroke-dasharray="1,5" d="M1894,-187.11C1894,-187.11 1894,-205.99 1894,-205.99"/>
<polygon fill="black" stroke="black" points="1890.5,-205.99 1894,-215.99 1897.5,-205.99 1890.5,-205.99"/>
</g>
<!-- AppRoutingModule -->
<g id="node16" class="node">
<title>AppRoutingModule</title>
<polygon fill="#8dd3c7" stroke="black" points="3597.27,-122 3594.27,-126 3573.27,-126 3570.27,-122 3468.73,-122 3468.73,-86 3597.27,-86 3597.27,-122"/>
<text text-anchor="middle" x="3533" y="-99.8" font-family="Times,serif" font-size="14.00">AppRoutingModule</text>
</g>
<!-- AppRoutingModule&#45;&gt;AppModule -->
<g id="edge15" class="edge">
<title>AppRoutingModule&#45;&gt;AppModule</title>
<path fill="none" stroke="black" d="M3533,-122.15C3533,-145.76 3533,-184 3533,-184 3533,-184 1945.75,-184 1945.75,-184"/>
<polygon fill="black" stroke="black" points="1945.75,-180.5 1935.75,-184 1945.75,-187.5 1945.75,-180.5"/>
</g>
<!-- AuthService -->
<g id="node18" class="node">
<title>AuthService</title>
<ellipse fill="#fdb462" stroke="black" cx="3386" cy="-104" rx="59.11" ry="18"/>
<text text-anchor="middle" x="3386" y="-99.8" font-family="Times,serif" font-size="14.00">AuthService</text>
</g>
<!-- AuthService&#45;&gt;AppModule -->
<g id="edge17" class="edge">
<title>AuthService&#45;&gt;AppModule</title>
<path fill="none" stroke="black" d="M3386,-122.25C3386,-145.02 3386,-181 3386,-181 3386,-181 1945.85,-181 1945.85,-181"/>
<polygon fill="black" stroke="black" points="1945.85,-177.5 1935.85,-181 1945.85,-184.5 1945.85,-177.5"/>
</g>
<!-- CommitsService -->
<g id="node19" class="node">
<title>CommitsService</title>
<ellipse fill="#fdb462" stroke="black" cx="3233" cy="-104" rx="75.32" ry="18"/>
<text text-anchor="middle" x="3233" y="-99.8" font-family="Times,serif" font-size="14.00">CommitsService</text>
</g>
<!-- CommitsService&#45;&gt;AppModule -->
<g id="edge18" class="edge">
<title>CommitsService&#45;&gt;AppModule</title>
<path fill="none" stroke="black" d="M3233,-122.29C3233,-144.21 3233,-178 3233,-178 3233,-178 1945.91,-178 1945.91,-178"/>
<polygon fill="black" stroke="black" points="1945.91,-174.5 1935.91,-178 1945.91,-181.5 1945.91,-174.5"/>
</g>
<!-- DataService -->
<g id="node20" class="node">
<title>DataService</title>
<ellipse fill="#fdb462" stroke="black" cx="3081" cy="-104" rx="58.44" ry="18"/>
<text text-anchor="middle" x="3081" y="-99.8" font-family="Times,serif" font-size="14.00">DataService</text>
</g>
<!-- DataService&#45;&gt;AppModule -->
<g id="edge19" class="edge">
<title>DataService&#45;&gt;AppModule</title>
<path fill="none" stroke="black" d="M3081,-122.03C3081,-142.77 3081,-174 3081,-174 3081,-174 1945.9,-174 1945.9,-174"/>
<polygon fill="black" stroke="black" points="1945.9,-170.5 1935.9,-174 1945.9,-177.5 1945.9,-170.5"/>
</g>
<!-- DatabaseService -->
<g id="node21" class="node">
<title>DatabaseService</title>
<ellipse fill="#fdb462" stroke="black" cx="2929" cy="-104" rx="75.26" ry="18"/>
<text text-anchor="middle" x="2929" y="-99.8" font-family="Times,serif" font-size="14.00">DatabaseService</text>
</g>
<!-- DatabaseService&#45;&gt;AppModule -->
<g id="edge20" class="edge">
<title>DatabaseService&#45;&gt;AppModule</title>
<path fill="none" stroke="black" d="M2929,-122.31C2929,-142.15 2929,-171 2929,-171 2929,-171 1945.86,-171 1945.86,-171"/>
<polygon fill="black" stroke="black" points="1945.86,-167.5 1935.86,-171 1945.86,-174.5 1945.86,-167.5"/>
</g>
<!-- JsonManagerService -->
<g id="node22" class="node">
<title>JsonManagerService</title>
<ellipse fill="#fdb462" stroke="black" cx="2744" cy="-104" rx="91.45" ry="18"/>
<text text-anchor="middle" x="2744" y="-99.8" font-family="Times,serif" font-size="14.00">JsonManagerService</text>
</g>
<!-- JsonManagerService&#45;&gt;AppModule -->
<g id="edge21" class="edge">
<title>JsonManagerService&#45;&gt;AppModule</title>
<path fill="none" stroke="black" d="M2744,-122.17C2744,-141.09 2744,-168 2744,-168 2744,-168 1945.86,-168 1945.86,-168"/>
<polygon fill="black" stroke="black" points="1945.86,-164.5 1935.86,-168 1945.86,-171.5 1945.86,-164.5"/>
</g>
<!-- ToastService -->
<g id="node23" class="node">
<title>ToastService</title>
<ellipse fill="#fdb462" stroke="black" cx="2573" cy="-104" rx="61.39" ry="18"/>
<text text-anchor="middle" x="2573" y="-99.8" font-family="Times,serif" font-size="14.00">ToastService</text>
</g>
<!-- ToastService&#45;&gt;AppModule -->
<g id="edge22" class="edge">
<title>ToastService&#45;&gt;AppModule</title>
<path fill="none" stroke="black" d="M2573,-122.3C2573,-140.27 2573,-165 2573,-165 2573,-165 1945.71,-165 1945.71,-165"/>
<polygon fill="black" stroke="black" points="1945.71,-161.5 1935.71,-165 1945.71,-168.5 1945.71,-161.5"/>
</g>
</g>
</svg>
