<?xml version="1.0" encoding="UTF-8" standalone="no"?>
<!DOCTYPE svg PUBLIC "-//W3C//DTD SVG 1.1//EN"
 "http://www.w3.org/Graphics/SVG/1.1/DTD/svg11.dtd">
<!-- Generated by graphviz version 2.44.1 (20200629.0846)
 -->
<!-- Title: dependencies Pages: 1 -->
<svg width="4596pt" height="284pt"
 viewBox="0.00 0.00 4596.00 284.00" xmlns="http://www.w3.org/2000/svg" xmlns:xlink="http://www.w3.org/1999/xlink">
<g id="graph0" class="graph" transform="scale(1 1) rotate(0) translate(4 280)">
<title>dependencies</title>
<polygon fill="white" stroke="transparent" points="-4,4 -4,-280 4592,-280 4592,4 -4,4"/>
<text text-anchor="start" x="2273.01" y="-42.4" font-family="sans-serif" font-weight="bold" font-size="14.00">Legend</text>
<polygon fill="#ffffb3" stroke="transparent" points="2060,-10 2060,-30 2080,-30 2080,-10 2060,-10"/>
<text text-anchor="start" x="2083.63" y="-15.4" font-family="sans-serif" font-size="14.00"> &#160;Declarations</text>
<polygon fill="#8dd3c7" stroke="transparent" points="2173,-10 2173,-30 2193,-30 2193,-10 2173,-10"/>
<text text-anchor="start" x="2196.73" y="-15.4" font-family="sans-serif" font-size="14.00"> &#160;Module</text>
<polygon fill="#80b1d3" stroke="transparent" points="2259,-10 2259,-30 2279,-30 2279,-10 2259,-10"/>
<text text-anchor="start" x="2282.78" y="-15.4" font-family="sans-serif" font-size="14.00"> &#160;Bootstrap</text>
<polygon fill="#fdb462" stroke="transparent" points="2356,-10 2356,-30 2376,-30 2376,-10 2356,-10"/>
<text text-anchor="start" x="2379.67" y="-15.4" font-family="sans-serif" font-size="14.00"> &#160;Providers</text>
<polygon fill="#fb8072" stroke="transparent" points="2452,-10 2452,-30 2472,-30 2472,-10 2452,-10"/>
<text text-anchor="start" x="2475.73" y="-15.4" font-family="sans-serif" font-size="14.00"> &#160;Exports</text>
<g id="clust1" class="cluster">
<title>cluster_AppModule</title>
<polygon fill="none" stroke="black" stroke-dasharray="1,5" points="8,-70 8,-268 4580,-268 4580,-70 8,-70"/>
</g>
<g id="clust22" class="cluster">
<title>cluster_AppModule_imports</title>
<polygon fill="none" stroke="black" points="4428,-78 4428,-130 4572,-130 4572,-78 4428,-78"/>
</g>
<g id="clust24" class="cluster">
<title>cluster_AppModule_bootstrap</title>
<polygon fill="none" stroke="black" points="2314,-208 2314,-260 2438,-260 2438,-208 2314,-208"/>
</g>
<g id="clust25" class="cluster">
<title>cluster_AppModule_providers</title>
<polygon fill="none" stroke="black" points="3471,-78 3471,-130 4420,-130 4420,-78 3471,-78"/>
</g>
<g id="clust2" class="cluster">
<title>cluster_AppModule_declarations</title>
<polygon fill="none" stroke="black" points="16,-78 16,-130 3463,-130 3463,-78 16,-78"/>
</g>
<!-- AppComponent -->
<g id="node1" class="node">
<title>AppComponent</title>
<polygon fill="#ffffb3" stroke="black" points="3454.94,-122 3349.06,-122 3349.06,-86 3454.94,-86 3454.94,-122"/>
<text text-anchor="middle" x="3402" y="-99.8" font-family="Times,serif" font-size="14.00">AppComponent</text>
</g>
<!-- AppModule -->
<g id="node20" class="node">
<title>AppModule</title>
<polygon fill="#8dd3c7" stroke="black" points="2417.66,-187 2414.66,-191 2393.66,-191 2390.66,-187 2334.34,-187 2334.34,-151 2417.66,-151 2417.66,-187"/>
<text text-anchor="middle" x="2376" y="-164.8" font-family="Times,serif" font-size="14.00">AppModule</text>
</g>
<!-- AppComponent&#45;&gt;AppModule -->
<g id="edge1" class="edge">
<title>AppComponent&#45;&gt;AppModule</title>
<path fill="none" stroke="black" d="M3402,-122.3C3402,-140.27 3402,-165 3402,-165 3402,-165 2427.81,-165 2427.81,-165"/>
<polygon fill="black" stroke="black" points="2427.81,-161.5 2417.81,-165 2427.81,-168.5 2427.81,-161.5"/>
</g>
<!-- AppNavLayoutComponent -->
<g id="node2" class="node">
<title>AppNavLayoutComponent</title>
<polygon fill="#ffffb3" stroke="black" points="3331.42,-122 3162.58,-122 3162.58,-86 3331.42,-86 3331.42,-122"/>
<text text-anchor="middle" x="3247" y="-99.8" font-family="Times,serif" font-size="14.00">AppNavLayoutComponent</text>
</g>
<!-- AppNavLayoutComponent&#45;&gt;AppModule -->
<g id="edge2" class="edge">
<title>AppNavLayoutComponent&#45;&gt;AppModule</title>
<path fill="none" stroke="black" d="M3247,-122.02C3247,-139.37 3247,-163 3247,-163 3247,-163 2427.72,-163 2427.72,-163"/>
<polygon fill="black" stroke="black" points="2427.72,-159.5 2417.72,-163 2427.72,-166.5 2427.72,-159.5"/>
</g>
<!-- AssignmentChooserComponent -->
<g id="node3" class="node">
<title>AssignmentChooserComponent</title>
<polygon fill="#ffffb3" stroke="black" points="3144.37,-122 2949.63,-122 2949.63,-86 3144.37,-86 3144.37,-122"/>
<text text-anchor="middle" x="3047" y="-99.8" font-family="Times,serif" font-size="14.00">AssignmentChooserComponent</text>
</g>
<!-- AssignmentChooserComponent&#45;&gt;AppModule -->
<g id="edge3" class="edge">
<title>AssignmentChooserComponent&#45;&gt;AppModule</title>
<path fill="none" stroke="black" d="M3047,-122.03C3047,-138.4 3047,-160 3047,-160 3047,-160 2427.72,-160 2427.72,-160"/>
<polygon fill="black" stroke="black" points="2427.72,-156.5 2417.72,-160 2427.72,-163.5 2427.72,-156.5"/>
</g>
<!-- AuthLangNavItemComponent -->
<g id="node4" class="node">
<title>AuthLangNavItemComponent</title>
<polygon fill="#ffffb3" stroke="black" points="2931.57,-122 2744.43,-122 2744.43,-86 2931.57,-86 2931.57,-122"/>
<text text-anchor="middle" x="2838" y="-99.8" font-family="Times,serif" font-size="14.00">AuthLangNavItemComponent</text>
</g>
<!-- AuthLangNavItemComponent&#45;&gt;AppModule -->
<g id="edge4" class="edge">
<title>AuthLangNavItemComponent&#45;&gt;AppModule</title>
<path fill="none" stroke="black" d="M2838,-122.24C2838,-137.57 2838,-157 2838,-157 2838,-157 2427.81,-157 2427.81,-157"/>
<polygon fill="black" stroke="black" points="2427.81,-153.5 2417.81,-157 2427.81,-160.5 2427.81,-153.5"/>
</g>
<!-- ConfigurationComponent -->
<g id="node5" class="node">
<title>ConfigurationComponent</title>
<polygon fill="#ffffb3" stroke="black" points="2726.88,-122 2567.12,-122 2567.12,-86 2726.88,-86 2726.88,-122"/>
<text text-anchor="middle" x="2647" y="-99.8" font-family="Times,serif" font-size="14.00">ConfigurationComponent</text>
</g>
<!-- ConfigurationComponent&#45;&gt;AppModule -->
<g id="edge5" class="edge">
<title>ConfigurationComponent&#45;&gt;AppModule</title>
<path fill="none" stroke="black" d="M2647,-122.05C2647,-136.37 2647,-154 2647,-154 2647,-154 2427.75,-154 2427.75,-154"/>
<polygon fill="black" stroke="black" points="2427.75,-150.5 2417.75,-154 2427.75,-157.5 2427.75,-150.5"/>
</g>
<!-- EditMilestoneComponent -->
<g id="node6" class="node">
<title>EditMilestoneComponent</title>
<polygon fill="#ffffb3" stroke="black" points="2549.16,-122 2388.84,-122 2388.84,-86 2549.16,-86 2549.16,-122"/>
<text text-anchor="middle" x="2469" y="-99.8" font-family="Times,serif" font-size="14.00">EditMilestoneComponent</text>
</g>
<!-- EditMilestoneComponent&#45;&gt;AppModule -->
<g id="edge6" class="edge">
<title>EditMilestoneComponent&#45;&gt;AppModule</title>
<path fill="none" stroke="black" d="M2403.25,-122.11C2403.25,-122.11 2403.25,-140.99 2403.25,-140.99"/>
<polygon fill="black" stroke="black" points="2399.75,-140.99 2403.25,-150.99 2406.75,-140.99 2399.75,-140.99"/>
</g>
<!-- EditRepositoriesComponent -->
<g id="node7" class="node">
<title>EditRepositoriesComponent</title>
<polygon fill="#ffffb3" stroke="black" points="2370.15,-122 2195.85,-122 2195.85,-86 2370.15,-86 2370.15,-122"/>
<text text-anchor="middle" x="2283" y="-99.8" font-family="Times,serif" font-size="14.00">EditRepositoriesComponent</text>
</g>
<!-- EditRepositoriesComponent&#45;&gt;AppModule -->
<g id="edge7" class="edge">
<title>EditRepositoriesComponent&#45;&gt;AppModule</title>
<path fill="none" stroke="black" d="M2352.25,-122.11C2352.25,-122.11 2352.25,-140.99 2352.25,-140.99"/>
<polygon fill="black" stroke="black" points="2348.75,-140.99 2352.25,-150.99 2355.75,-140.99 2348.75,-140.99"/>
</g>
<!-- EditSessionsComponent -->
<g id="node8" class="node">
<title>EditSessionsComponent</title>
<polygon fill="#ffffb3" stroke="black" points="2177.39,-122 2024.61,-122 2024.61,-86 2177.39,-86 2177.39,-122"/>
<text text-anchor="middle" x="2101" y="-99.8" font-family="Times,serif" font-size="14.00">EditSessionsComponent</text>
</g>
<!-- EditSessionsComponent&#45;&gt;AppModule -->
<g id="edge8" class="edge">
<title>EditSessionsComponent&#45;&gt;AppModule</title>
<path fill="none" stroke="black" d="M2101,-122.05C2101,-136.37 2101,-154 2101,-154 2101,-154 2324.23,-154 2324.23,-154"/>
<polygon fill="black" stroke="black" points="2324.23,-157.5 2334.23,-154 2324.23,-150.5 2324.23,-157.5"/>
</g>
<!-- FileChooserComponent -->
<g id="node9" class="node">
<title>FileChooserComponent</title>
<polygon fill="#ffffb3" stroke="black" points="2006.77,-122 1857.23,-122 1857.23,-86 2006.77,-86 2006.77,-122"/>
<text text-anchor="middle" x="1932" y="-99.8" font-family="Times,serif" font-size="14.00">FileChooserComponent</text>
</g>
<!-- FileChooserComponent&#45;&gt;AppModule -->
<g id="edge9" class="edge">
<title>FileChooserComponent&#45;&gt;AppModule</title>
<path fill="none" stroke="black" d="M1932,-122.24C1932,-137.57 1932,-157 1932,-157 1932,-157 2324.23,-157 2324.23,-157"/>
<polygon fill="black" stroke="black" points="2324.23,-160.5 2334.23,-157 2324.23,-153.5 2324.23,-160.5"/>
</g>
<!-- FourOhFourComponent -->
<g id="node10" class="node">
<title>FourOhFourComponent</title>
<polygon fill="#ffffb3" stroke="black" points="1838.83,-122 1687.17,-122 1687.17,-86 1838.83,-86 1838.83,-122"/>
<text text-anchor="middle" x="1763" y="-99.8" font-family="Times,serif" font-size="14.00">FourOhFourComponent</text>
</g>
<!-- FourOhFourComponent&#45;&gt;AppModule -->
<g id="edge10" class="edge">
<title>FourOhFourComponent&#45;&gt;AppModule</title>
<path fill="none" stroke="black" d="M1763,-122.03C1763,-138.4 1763,-160 1763,-160 1763,-160 2323.87,-160 2323.87,-160"/>
<polygon fill="black" stroke="black" points="2323.87,-163.5 2333.87,-160 2323.87,-156.5 2323.87,-163.5"/>
</g>
<!-- HelpNavItemComponent -->
<g id="node11" class="node">
<title>HelpNavItemComponent</title>
<polygon fill="#ffffb3" stroke="black" points="1669.52,-122 1512.48,-122 1512.48,-86 1669.52,-86 1669.52,-122"/>
<text text-anchor="middle" x="1591" y="-99.8" font-family="Times,serif" font-size="14.00">HelpNavItemComponent</text>
</g>
<!-- HelpNavItemComponent&#45;&gt;AppModule -->
<g id="edge11" class="edge">
<title>HelpNavItemComponent&#45;&gt;AppModule</title>
<path fill="none" stroke="black" d="M1591,-122.02C1591,-139.37 1591,-163 1591,-163 1591,-163 2324.07,-163 2324.07,-163"/>
<polygon fill="black" stroke="black" points="2324.07,-166.5 2334.07,-163 2324.07,-159.5 2324.07,-166.5"/>
</g>
<!-- HomeComponent -->
<g id="node12" class="node">
<title>HomeComponent</title>
<polygon fill="#ffffb3" stroke="black" points="1493.55,-122 1378.45,-122 1378.45,-86 1493.55,-86 1493.55,-122"/>
<text text-anchor="middle" x="1436" y="-99.8" font-family="Times,serif" font-size="14.00">HomeComponent</text>
</g>
<!-- HomeComponent&#45;&gt;AppModule -->
<g id="edge12" class="edge">
<title>HomeComponent&#45;&gt;AppModule</title>
<path fill="none" stroke="black" d="M1436,-122.3C1436,-140.27 1436,-165 1436,-165 1436,-165 2324.09,-165 2324.09,-165"/>
<polygon fill="black" stroke="black" points="2324.09,-168.5 2334.09,-165 2324.09,-161.5 2324.09,-168.5"/>
</g>
<!-- HomeNavLayoutComponent -->
<g id="node13" class="node">
<title>HomeNavLayoutComponent</title>
<polygon fill="#ffffb3" stroke="black" points="1360.02,-122 1181.98,-122 1181.98,-86 1360.02,-86 1360.02,-122"/>
<text text-anchor="middle" x="1271" y="-99.8" font-family="Times,serif" font-size="14.00">HomeNavLayoutComponent</text>
</g>
<!-- HomeNavLayoutComponent&#45;&gt;AppModule -->
<g id="edge13" class="edge">
<title>HomeNavLayoutComponent&#45;&gt;AppModule</title>
<path fill="none" stroke="black" d="M1271,-122.17C1271,-141.09 1271,-168 1271,-168 1271,-168 2324.03,-168 2324.03,-168"/>
<polygon fill="black" stroke="black" points="2324.03,-171.5 2334.03,-168 2324.03,-164.5 2324.03,-171.5"/>
</g>
<!-- MetadataComponent -->
<g id="node14" class="node">
<title>MetadataComponent</title>
<polygon fill="#ffffb3" stroke="black" points="1163.92,-122 1030.08,-122 1030.08,-86 1163.92,-86 1163.92,-122"/>
<text text-anchor="middle" x="1097" y="-99.8" font-family="Times,serif" font-size="14.00">MetadataComponent</text>
</g>
<!-- MetadataComponent&#45;&gt;AppModule -->
<g id="edge14" class="edge">
<title>MetadataComponent&#45;&gt;AppModule</title>
<path fill="none" stroke="black" d="M1097,-122.31C1097,-142.15 1097,-171 1097,-171 1097,-171 2324.17,-171 2324.17,-171"/>
<polygon fill="black" stroke="black" points="2324.17,-174.5 2334.17,-171 2324.17,-167.5 2324.17,-174.5"/>
</g>
<!-- ModalAddRepositoriesComponent -->
<g id="node15" class="node">
<title>ModalAddRepositoriesComponent</title>
<polygon fill="#ffffb3" stroke="black" points="1011.98,-122 800.02,-122 800.02,-86 1011.98,-86 1011.98,-122"/>
<text text-anchor="middle" x="906" y="-99.8" font-family="Times,serif" font-size="14.00">ModalAddRepositoriesComponent</text>
</g>
<!-- ModalAddRepositoriesComponent&#45;&gt;AppModule -->
<g id="edge15" class="edge">
<title>ModalAddRepositoriesComponent&#45;&gt;AppModule</title>
<path fill="none" stroke="black" d="M906,-122.03C906,-142.77 906,-174 906,-174 906,-174 2323.98,-174 2323.98,-174"/>
<polygon fill="black" stroke="black" points="2323.98,-177.5 2333.98,-174 2323.98,-170.5 2323.98,-177.5"/>
</g>
<!-- OverviewComponent -->
<g id="node16" class="node">
<title>OverviewComponent</title>
<polygon fill="#ffffb3" stroke="black" points="782.03,-122 645.97,-122 645.97,-86 782.03,-86 782.03,-122"/>
<text text-anchor="middle" x="714" y="-99.8" font-family="Times,serif" font-size="14.00">OverviewComponent</text>
</g>
<!-- OverviewComponent&#45;&gt;AppModule -->
<g id="edge16" class="edge">
<title>OverviewComponent&#45;&gt;AppModule</title>
<path fill="none" stroke="black" d="M714,-122.17C714,-143.5 714,-176 714,-176 714,-176 2324.09,-176 2324.09,-176"/>
<polygon fill="black" stroke="black" points="2324.09,-179.5 2334.09,-176 2324.09,-172.5 2324.09,-179.5"/>
</g>
<!-- QuestionsChooserComponent -->
<g id="node17" class="node">
<title>QuestionsChooserComponent</title>
<polygon fill="#ffffb3" stroke="black" points="627.98,-122 444.02,-122 444.02,-86 627.98,-86 627.98,-122"/>
<text text-anchor="middle" x="536" y="-99.8" font-family="Times,serif" font-size="14.00">QuestionsChooserComponent</text>
</g>
<!-- QuestionsChooserComponent&#45;&gt;AppModule -->
<g id="edge17" class="edge">
<title>QuestionsChooserComponent&#45;&gt;AppModule</title>
<path fill="none" stroke="black" d="M536,-122.16C536,-144.35 536,-179 536,-179 536,-179 2324.11,-179 2324.11,-179"/>
<polygon fill="black" stroke="black" points="2324.11,-182.5 2334.11,-179 2324.11,-175.5 2324.11,-182.5"/>
</g>
<!-- QuestionsCompletionComponent -->
<g id="node18" class="node">
<title>QuestionsCompletionComponent</title>
<polygon fill="#ffffb3" stroke="black" points="425.94,-122 222.06,-122 222.06,-86 425.94,-86 425.94,-122"/>
<text text-anchor="middle" x="324" y="-99.8" font-family="Times,serif" font-size="14.00">QuestionsCompletionComponent</text>
</g>
<!-- QuestionsCompletionComponent&#45;&gt;AppModule -->
<g id="edge18" class="edge">
<title>QuestionsCompletionComponent&#45;&gt;AppModule</title>
<path fill="none" stroke="black" d="M324,-122.09C324,-145.13 324,-182 324,-182 324,-182 2324.08,-182 2324.08,-182"/>
<polygon fill="black" stroke="black" points="2324.08,-185.5 2334.08,-182 2324.08,-178.5 2324.08,-185.5"/>
</g>
<!-- StudentsCommitsComponent -->
<g id="node19" class="node">
<title>StudentsCommitsComponent</title>
<polygon fill="#ffffb3" stroke="black" points="204.4,-122 23.6,-122 23.6,-86 204.4,-86 204.4,-122"/>
<text text-anchor="middle" x="114" y="-99.8" font-family="Times,serif" font-size="14.00">StudentsCommitsComponent</text>
</g>
<!-- StudentsCommitsComponent&#45;&gt;AppModule -->
<g id="edge19" class="edge">
<title>StudentsCommitsComponent&#45;&gt;AppModule</title>
<path fill="none" stroke="black" d="M114,-122.38C114,-146.28 114,-185 114,-185 114,-185 2324.32,-185 2324.32,-185"/>
<polygon fill="black" stroke="black" points="2324.32,-188.5 2334.32,-185 2324.32,-181.5 2324.32,-188.5"/>
</g>
<!-- AppComponent  -->
<g id="node22" class="node">
<title>AppComponent </title>
<polygon fill="#80b1d3" stroke="black" points="2430.44,-252 2321.56,-252 2321.56,-216 2430.44,-216 2430.44,-252"/>
<text text-anchor="middle" x="2376" y="-229.8" font-family="Times,serif" font-size="14.00">AppComponent </text>
</g>
<!-- AppModule&#45;&gt;AppComponent  -->
<g id="edge21" class="edge">
<title>AppModule&#45;&gt;AppComponent </title>
<path fill="none" stroke="black" stroke-dasharray="1,5" d="M2376,-187.11C2376,-187.11 2376,-205.99 2376,-205.99"/>
<polygon fill="black" stroke="black" points="2372.5,-205.99 2376,-215.99 2379.5,-205.99 2372.5,-205.99"/>
</g>
<!-- AppRoutingModule -->
<g id="node21" class="node">
<title>AppRoutingModule</title>
<polygon fill="#8dd3c7" stroke="black" points="4564.27,-122 4561.27,-126 4540.27,-126 4537.27,-122 4435.73,-122 4435.73,-86 4564.27,-86 4564.27,-122"/>
<text text-anchor="middle" x="4500" y="-99.8" font-family="Times,serif" font-size="14.00">AppRoutingModule</text>
</g>
<!-- AppRoutingModule&#45;&gt;AppModule -->
<g id="edge20" class="edge">
<title>AppRoutingModule&#45;&gt;AppModule</title>
<path fill="none" stroke="black" d="M4500,-122.38C4500,-146.28 4500,-185 4500,-185 4500,-185 2427.95,-185 2427.95,-185"/>
<polygon fill="black" stroke="black" points="2427.95,-181.5 2417.95,-185 2427.95,-188.5 2427.95,-181.5"/>
</g>
<!-- AuthService -->
<g id="node23" class="node">
<title>AuthService</title>
<ellipse fill="#fdb462" stroke="black" cx="4353" cy="-104" rx="59.11" ry="18"/>
<text text-anchor="middle" x="4353" y="-99.8" font-family="Times,serif" font-size="14.00">AuthService</text>
</g>
<!-- AuthService&#45;&gt;AppModule -->
<g id="edge22" class="edge">
<title>AuthService&#45;&gt;AppModule</title>
<path fill="none" stroke="black" d="M4353,-122.09C4353,-145.13 4353,-182 4353,-182 4353,-182 2427.75,-182 2427.75,-182"/>
<polygon fill="black" stroke="black" points="2427.75,-178.5 2417.75,-182 2427.75,-185.5 2427.75,-178.5"/>
</g>
<!-- CommitsService -->
<g id="node24" class="node">
<title>CommitsService</title>
<ellipse fill="#fdb462" stroke="black" cx="4200" cy="-104" rx="75.32" ry="18"/>
<text text-anchor="middle" x="4200" y="-99.8" font-family="Times,serif" font-size="14.00">CommitsService</text>
</g>
<!-- CommitsService&#45;&gt;AppModule -->
<g id="edge23" class="edge">
<title>CommitsService&#45;&gt;AppModule</title>
<path fill="none" stroke="black" d="M4200,-122.16C4200,-144.35 4200,-179 4200,-179 4200,-179 2427.96,-179 2427.96,-179"/>
<polygon fill="black" stroke="black" points="2427.96,-175.5 2417.96,-179 2427.96,-182.5 2427.96,-175.5"/>
</g>
<!-- DataService -->
<g id="node25" class="node">
<title>DataService</title>
<ellipse fill="#fdb462" stroke="black" cx="4048" cy="-104" rx="58.44" ry="18"/>
<text text-anchor="middle" x="4048" y="-99.8" font-family="Times,serif" font-size="14.00">DataService</text>
</g>
<!-- DataService&#45;&gt;AppModule -->
<g id="edge24" class="edge">
<title>DataService&#45;&gt;AppModule</title>
<path fill="none" stroke="black" d="M4048,-122.17C4048,-143.5 4048,-176 4048,-176 4048,-176 2427.75,-176 2427.75,-176"/>
<polygon fill="black" stroke="black" points="2427.75,-172.5 2417.75,-176 2427.75,-179.5 2427.75,-172.5"/>
</g>
<!-- DatabaseService -->
<g id="node26" class="node">
<title>DatabaseService</title>
<ellipse fill="#fdb462" stroke="black" cx="3896" cy="-104" rx="75.26" ry="18"/>
<text text-anchor="middle" x="3896" y="-99.8" font-family="Times,serif" font-size="14.00">DatabaseService</text>
</g>
<!-- DatabaseService&#45;&gt;AppModule -->
<g id="edge25" class="edge">
<title>DatabaseService&#45;&gt;AppModule</title>
<path fill="none" stroke="black" d="M3896,-122.03C3896,-142.77 3896,-174 3896,-174 3896,-174 2427.84,-174 2427.84,-174"/>
<polygon fill="black" stroke="black" points="2427.84,-170.5 2417.84,-174 2427.84,-177.5 2427.84,-170.5"/>
</g>
<!-- JsonManagerService -->
<g id="node27" class="node">
<title>JsonManagerService</title>
<ellipse fill="#fdb462" stroke="black" cx="3711" cy="-104" rx="91.45" ry="18"/>
<text text-anchor="middle" x="3711" y="-99.8" font-family="Times,serif" font-size="14.00">JsonManagerService</text>
</g>
<!-- JsonManagerService&#45;&gt;AppModule -->
<g id="edge26" class="edge">
<title>JsonManagerService&#45;&gt;AppModule</title>
<path fill="none" stroke="black" d="M3711,-122.31C3711,-142.15 3711,-171 3711,-171 3711,-171 2427.79,-171 2427.79,-171"/>
<polygon fill="black" stroke="black" points="2427.79,-167.5 2417.79,-171 2427.79,-174.5 2427.79,-167.5"/>
</g>
<!-- ToastService -->
<g id="node28" class="node">
<title>ToastService</title>
<ellipse fill="#fdb462" stroke="black" cx="3540" cy="-104" rx="61.39" ry="18"/>
<text text-anchor="middle" x="3540" y="-99.8" font-family="Times,serif" font-size="14.00">ToastService</text>
</g>
<!-- ToastService&#45;&gt;AppModule -->
<g id="edge27" class="edge">
<title>ToastService&#45;&gt;AppModule</title>
<path fill="none" stroke="black" d="M3540,-122.17C3540,-141.09 3540,-168 3540,-168 3540,-168 2427.77,-168 2427.77,-168"/>
<polygon fill="black" stroke="black" points="2427.77,-164.5 2417.77,-168 2427.77,-171.5 2427.77,-164.5"/>
</g>
</g>
</svg>
