<?xml version="1.0" encoding="UTF-8" standalone="no"?>
<!DOCTYPE svg PUBLIC "-//W3C//DTD SVG 1.1//EN"
 "http://www.w3.org/Graphics/SVG/1.1/DTD/svg11.dtd">
<!-- Generated by graphviz version 5.0.0 (20220707.1540)
 -->
<!-- Title: dependencies Pages: 1 -->
<svg width="4875pt" height="247pt"
 viewBox="0.00 0.00 4875.00 246.80" xmlns="http://www.w3.org/2000/svg" xmlns:xlink="http://www.w3.org/1999/xlink">
<g id="graph0" class="graph" transform="scale(1 1) rotate(0) translate(4 242.8)">
<title>dependencies</title>
<polygon fill="white" stroke="transparent" points="-4,4 -4,-242.8 4871,-242.8 4871,4 -4,4"/>
<text text-anchor="middle" x="2433.5" y="-8.2" font-family="sans-serif" font-size="14.00">dependencies</text>
<g id="clust1" class="cluster">
<title>cluster_AppModule</title>
<polygon fill="none" stroke="black" stroke-dasharray="1,5" points="8,-32.8 8,-230.8 4859,-230.8 4859,-32.8 8,-32.8"/>
</g>
<g id="clust26" class="cluster">
<title>cluster_AppModule_providers</title>
<polygon fill="none" stroke="black" points="3902,-40.8 3902,-92.8 4851,-92.8 4851,-40.8 3902,-40.8"/>
</g>
<g id="clust23" class="cluster">
<title>cluster_AppModule_imports</title>
<polygon fill="none" stroke="black" points="3750,-40.8 3750,-92.8 3894,-92.8 3894,-40.8 3750,-40.8"/>
</g>
<g id="clust25" class="cluster">
<title>cluster_AppModule_bootstrap</title>
<polygon fill="none" stroke="black" points="2500,-170.8 2500,-222.8 2624,-222.8 2624,-170.8 2500,-170.8"/>
</g>
<g id="clust2" class="cluster">
<title>cluster_AppModule_declarations</title>
<polygon fill="none" stroke="black" points="16,-40.8 16,-92.8 3742,-92.8 3742,-40.8 16,-40.8"/>
</g>
<!-- AppComponent -->
<g id="node1" class="node">
<title>AppComponent</title>
<polygon fill="#ffffb3" stroke="black" points="3733.94,-84.8 3628.06,-84.8 3628.06,-48.8 3733.94,-48.8 3733.94,-84.8"/>
<text text-anchor="middle" x="3681" y="-62.6" font-family="Times,serif" font-size="14.00">AppComponent</text>
</g>
<!-- AppModule -->
<g id="node21" class="node">
<title>AppModule</title>
<polygon fill="#8dd3c7" stroke="black" points="2603.66,-149.8 2600.66,-153.8 2579.66,-153.8 2576.66,-149.8 2520.34,-149.8 2520.34,-113.8 2603.66,-113.8 2603.66,-149.8"/>
<text text-anchor="middle" x="2562" y="-127.6" font-family="Times,serif" font-size="14.00">AppModule</text>
</g>
<!-- AppComponent&#45;&gt;AppModule -->
<g id="edge1" class="edge">
<title>AppComponent&#45;&gt;AppModule</title>
<path fill="none" stroke="black" d="M3681,-85.02C3681,-103.63 3681,-129.8 3681,-129.8 3681,-129.8 2613.82,-129.8 2613.82,-129.8"/>
<polygon fill="black" stroke="black" points="2613.82,-126.3 2603.82,-129.8 2613.82,-133.3 2613.82,-126.3"/>
</g>
<!-- AppNavLayoutComponent -->
<g id="node2" class="node">
<title>AppNavLayoutComponent</title>
<polygon fill="#ffffb3" stroke="black" points="3610.42,-84.8 3441.58,-84.8 3441.58,-48.8 3610.42,-48.8 3610.42,-84.8"/>
<text text-anchor="middle" x="3526" y="-62.6" font-family="Times,serif" font-size="14.00">AppNavLayoutComponent</text>
</g>
<!-- AppNavLayoutComponent&#45;&gt;AppModule -->
<g id="edge2" class="edge">
<title>AppNavLayoutComponent&#45;&gt;AppModule</title>
<path fill="none" stroke="black" d="M3526,-84.8C3526,-102.48 3526,-126.8 3526,-126.8 3526,-126.8 2613.73,-126.8 2613.73,-126.8"/>
<polygon fill="black" stroke="black" points="2613.73,-123.3 2603.73,-126.8 2613.73,-130.3 2613.73,-123.3"/>
</g>
<!-- AssignmentChooserComponent -->
<g id="node3" class="node">
<title>AssignmentChooserComponent</title>
<polygon fill="#ffffb3" stroke="black" points="3423.38,-84.8 3228.62,-84.8 3228.62,-48.8 3423.38,-48.8 3423.38,-84.8"/>
<text text-anchor="middle" x="3326" y="-62.6" font-family="Times,serif" font-size="14.00">AssignmentChooserComponent</text>
</g>
<!-- AssignmentChooserComponent&#45;&gt;AppModule -->
<g id="edge3" class="edge">
<title>AssignmentChooserComponent&#45;&gt;AppModule</title>
<path fill="none" stroke="black" d="M3326,-84.83C3326,-101.86 3326,-124.8 3326,-124.8 3326,-124.8 2613.89,-124.8 2613.89,-124.8"/>
<polygon fill="black" stroke="black" points="2613.89,-121.3 2603.89,-124.8 2613.89,-128.3 2613.89,-121.3"/>
</g>
<!-- AuthLangNavItemComponent -->
<g id="node4" class="node">
<title>AuthLangNavItemComponent</title>
<polygon fill="#ffffb3" stroke="black" points="3210.58,-84.8 3023.42,-84.8 3023.42,-48.8 3210.58,-48.8 3210.58,-84.8"/>
<text text-anchor="middle" x="3117" y="-62.6" font-family="Times,serif" font-size="14.00">AuthLangNavItemComponent</text>
</g>
<!-- AuthLangNavItemComponent&#45;&gt;AppModule -->
<g id="edge4" class="edge">
<title>AuthLangNavItemComponent&#45;&gt;AppModule</title>
<path fill="none" stroke="black" d="M3117,-84.81C3117,-100.85 3117,-121.8 3117,-121.8 3117,-121.8 2613.72,-121.8 2613.72,-121.8"/>
<polygon fill="black" stroke="black" points="2613.72,-118.3 2603.72,-121.8 2613.72,-125.3 2613.72,-118.3"/>
</g>
<!-- ConfigurationComponent -->
<g id="node5" class="node">
<title>ConfigurationComponent</title>
<polygon fill="#ffffb3" stroke="black" points="3005.88,-84.8 2846.12,-84.8 2846.12,-48.8 3005.88,-48.8 3005.88,-84.8"/>
<text text-anchor="middle" x="2926" y="-62.6" font-family="Times,serif" font-size="14.00">ConfigurationComponent</text>
</g>
<!-- ConfigurationComponent&#45;&gt;AppModule -->
<g id="edge5" class="edge">
<title>ConfigurationComponent&#45;&gt;AppModule</title>
<path fill="none" stroke="black" d="M2926,-85.04C2926,-100.37 2926,-119.8 2926,-119.8 2926,-119.8 2613.76,-119.8 2613.76,-119.8"/>
<polygon fill="black" stroke="black" points="2613.76,-116.3 2603.76,-119.8 2613.76,-123.3 2613.76,-116.3"/>
</g>
<!-- EditMilestoneComponent -->
<g id="node6" class="node">
<title>EditMilestoneComponent</title>
<polygon fill="#ffffb3" stroke="black" points="2828.16,-84.8 2667.84,-84.8 2667.84,-48.8 2828.16,-48.8 2828.16,-84.8"/>
<text text-anchor="middle" x="2748" y="-62.6" font-family="Times,serif" font-size="14.00">EditMilestoneComponent</text>
</g>
<!-- EditMilestoneComponent&#45;&gt;AppModule -->
<g id="edge6" class="edge">
<title>EditMilestoneComponent&#45;&gt;AppModule</title>
<path fill="none" stroke="black" d="M2748,-84.85C2748,-99.17 2748,-116.8 2748,-116.8 2748,-116.8 2613.74,-116.8 2613.74,-116.8"/>
<polygon fill="black" stroke="black" points="2613.74,-113.3 2603.74,-116.8 2613.74,-120.3 2613.74,-113.3"/>
</g>
<!-- EditRepositoriesComponent -->
<g id="node7" class="node">
<title>EditRepositoriesComponent</title>
<polygon fill="#ffffb3" stroke="black" points="2649.16,-84.8 2474.84,-84.8 2474.84,-48.8 2649.16,-48.8 2649.16,-84.8"/>
<text text-anchor="middle" x="2562" y="-62.6" font-family="Times,serif" font-size="14.00">EditRepositoriesComponent</text>
</g>
<!-- EditRepositoriesComponent&#45;&gt;AppModule -->
<g id="edge7" class="edge">
<title>EditRepositoriesComponent&#45;&gt;AppModule</title>
<path fill="none" stroke="black" d="M2562,-84.91C2562,-84.91 2562,-103.79 2562,-103.79"/>
<polygon fill="black" stroke="black" points="2558.5,-103.79 2562,-113.79 2565.5,-103.79 2558.5,-103.79"/>
</g>
<!-- EditSessionComponent -->
<g id="node8" class="node">
<title>EditSessionComponent</title>
<polygon fill="#ffffb3" stroke="black" points="2456.95,-84.8 2309.05,-84.8 2309.05,-48.8 2456.95,-48.8 2456.95,-84.8"/>
<text text-anchor="middle" x="2383" y="-62.6" font-family="Times,serif" font-size="14.00">EditSessionComponent</text>
</g>
<!-- EditSessionComponent&#45;&gt;AppModule -->
<g id="edge8" class="edge">
<title>EditSessionComponent&#45;&gt;AppModule</title>
<path fill="none" stroke="black" d="M2383,-84.85C2383,-99.17 2383,-116.8 2383,-116.8 2383,-116.8 2510.03,-116.8 2510.03,-116.8"/>
<polygon fill="black" stroke="black" points="2510.03,-120.3 2520.03,-116.8 2510.03,-113.3 2510.03,-120.3"/>
</g>
<!-- FileChooserComponent -->
<g id="node9" class="node">
<title>FileChooserComponent</title>
<polygon fill="#ffffb3" stroke="black" points="2290.77,-84.8 2141.23,-84.8 2141.23,-48.8 2290.77,-48.8 2290.77,-84.8"/>
<text text-anchor="middle" x="2216" y="-62.6" font-family="Times,serif" font-size="14.00">FileChooserComponent</text>
</g>
<!-- FileChooserComponent&#45;&gt;AppModule -->
<g id="edge9" class="edge">
<title>FileChooserComponent&#45;&gt;AppModule</title>
<path fill="none" stroke="black" d="M2216,-85.04C2216,-100.37 2216,-119.8 2216,-119.8 2216,-119.8 2510.26,-119.8 2510.26,-119.8"/>
<polygon fill="black" stroke="black" points="2510.26,-123.3 2520.26,-119.8 2510.26,-116.3 2510.26,-123.3"/>
</g>
<!-- FourOhFourComponent -->
<g id="node10" class="node">
<title>FourOhFourComponent</title>
<polygon fill="#ffffb3" stroke="black" points="2122.84,-84.8 1971.16,-84.8 1971.16,-48.8 2122.84,-48.8 2122.84,-84.8"/>
<text text-anchor="middle" x="2047" y="-62.6" font-family="Times,serif" font-size="14.00">FourOhFourComponent</text>
</g>
<!-- FourOhFourComponent&#45;&gt;AppModule -->
<g id="edge10" class="edge">
<title>FourOhFourComponent&#45;&gt;AppModule</title>
<path fill="none" stroke="black" d="M2047,-84.81C2047,-100.85 2047,-121.8 2047,-121.8 2047,-121.8 2510.29,-121.8 2510.29,-121.8"/>
<polygon fill="black" stroke="black" points="2510.29,-125.3 2520.29,-121.8 2510.29,-118.3 2510.29,-125.3"/>
</g>
<!-- HelpNavItemComponent -->
<g id="node11" class="node">
<title>HelpNavItemComponent</title>
<polygon fill="#ffffb3" stroke="black" points="1953.53,-84.8 1796.47,-84.8 1796.47,-48.8 1953.53,-48.8 1953.53,-84.8"/>
<text text-anchor="middle" x="1875" y="-62.6" font-family="Times,serif" font-size="14.00">HelpNavItemComponent</text>
</g>
<!-- HelpNavItemComponent&#45;&gt;AppModule -->
<g id="edge11" class="edge">
<title>HelpNavItemComponent&#45;&gt;AppModule</title>
<path fill="none" stroke="black" d="M1875,-84.83C1875,-101.86 1875,-124.8 1875,-124.8 1875,-124.8 2510.32,-124.8 2510.32,-124.8"/>
<polygon fill="black" stroke="black" points="2510.32,-128.3 2520.32,-124.8 2510.32,-121.3 2510.32,-128.3"/>
</g>
<!-- HomeComponent -->
<g id="node12" class="node">
<title>HomeComponent</title>
<polygon fill="#ffffb3" stroke="black" points="1777.55,-84.8 1662.45,-84.8 1662.45,-48.8 1777.55,-48.8 1777.55,-84.8"/>
<text text-anchor="middle" x="1720" y="-62.6" font-family="Times,serif" font-size="14.00">HomeComponent</text>
</g>
<!-- HomeComponent&#45;&gt;AppModule -->
<g id="edge12" class="edge">
<title>HomeComponent&#45;&gt;AppModule</title>
<path fill="none" stroke="black" d="M1720,-84.8C1720,-102.48 1720,-126.8 1720,-126.8 1720,-126.8 2510.25,-126.8 2510.25,-126.8"/>
<polygon fill="black" stroke="black" points="2510.25,-130.3 2520.25,-126.8 2510.25,-123.3 2510.25,-130.3"/>
</g>
<!-- HomeNavLayoutComponent -->
<g id="node13" class="node">
<title>HomeNavLayoutComponent</title>
<polygon fill="#ffffb3" stroke="black" points="1644.03,-84.8 1465.97,-84.8 1465.97,-48.8 1644.03,-48.8 1644.03,-84.8"/>
<text text-anchor="middle" x="1555" y="-62.6" font-family="Times,serif" font-size="14.00">HomeNavLayoutComponent</text>
</g>
<!-- HomeNavLayoutComponent&#45;&gt;AppModule -->
<g id="edge13" class="edge">
<title>HomeNavLayoutComponent&#45;&gt;AppModule</title>
<path fill="none" stroke="black" d="M1555,-85.02C1555,-103.63 1555,-129.8 1555,-129.8 1555,-129.8 2510.33,-129.8 2510.33,-129.8"/>
<polygon fill="black" stroke="black" points="2510.33,-133.3 2520.33,-129.8 2510.33,-126.3 2510.33,-133.3"/>
</g>
<!-- MetadataComponent -->
<g id="node14" class="node">
<title>MetadataComponent</title>
<polygon fill="#ffffb3" stroke="black" points="1447.91,-84.8 1314.09,-84.8 1314.09,-48.8 1447.91,-48.8 1447.91,-84.8"/>
<text text-anchor="middle" x="1381" y="-62.6" font-family="Times,serif" font-size="14.00">MetadataComponent</text>
</g>
<!-- MetadataComponent&#45;&gt;AppModule -->
<g id="edge14" class="edge">
<title>MetadataComponent&#45;&gt;AppModule</title>
<path fill="none" stroke="black" d="M1381,-84.91C1381,-104.14 1381,-131.8 1381,-131.8 1381,-131.8 2510.31,-131.8 2510.31,-131.8"/>
<polygon fill="black" stroke="black" points="2510.31,-135.3 2520.31,-131.8 2510.31,-128.3 2510.31,-135.3"/>
</g>
<!-- ModalAddRepositoriesComponent -->
<g id="node15" class="node">
<title>ModalAddRepositoriesComponent</title>
<polygon fill="#ffffb3" stroke="black" points="1295.99,-84.8 1084.01,-84.8 1084.01,-48.8 1295.99,-48.8 1295.99,-84.8"/>
<text text-anchor="middle" x="1190" y="-62.6" font-family="Times,serif" font-size="14.00">ModalAddRepositoriesComponent</text>
</g>
<!-- ModalAddRepositoriesComponent&#45;&gt;AppModule -->
<g id="edge15" class="edge">
<title>ModalAddRepositoriesComponent&#45;&gt;AppModule</title>
<path fill="none" stroke="black" d="M1190,-85.02C1190,-105.17 1190,-134.8 1190,-134.8 1190,-134.8 2510.19,-134.8 2510.19,-134.8"/>
<polygon fill="black" stroke="black" points="2510.19,-138.3 2520.19,-134.8 2510.19,-131.3 2510.19,-138.3"/>
</g>
<!-- OverviewComponent -->
<g id="node16" class="node">
<title>OverviewComponent</title>
<polygon fill="#ffffb3" stroke="black" points="1066.03,-84.8 929.97,-84.8 929.97,-48.8 1066.03,-48.8 1066.03,-84.8"/>
<text text-anchor="middle" x="998" y="-62.6" font-family="Times,serif" font-size="14.00">OverviewComponent</text>
</g>
<!-- OverviewComponent&#45;&gt;AppModule -->
<g id="edge16" class="edge">
<title>OverviewComponent&#45;&gt;AppModule</title>
<path fill="none" stroke="black" d="M998,-85.08C998,-106.12 998,-137.8 998,-137.8 998,-137.8 2510.17,-137.8 2510.17,-137.8"/>
<polygon fill="black" stroke="black" points="2510.17,-141.3 2520.17,-137.8 2510.17,-134.3 2510.17,-141.3"/>
</g>
<!-- OverviewGraphContextualMenuComponent -->
<g id="node17" class="node">
<title>OverviewGraphContextualMenuComponent</title>
<polygon fill="#ffffb3" stroke="black" points="911.61,-84.8 646.39,-84.8 646.39,-48.8 911.61,-48.8 911.61,-84.8"/>
<text text-anchor="middle" x="779" y="-62.6" font-family="Times,serif" font-size="14.00">OverviewGraphContextualMenuComponent</text>
</g>
<!-- OverviewGraphContextualMenuComponent&#45;&gt;AppModule -->
<g id="edge17" class="edge">
<title>OverviewGraphContextualMenuComponent&#45;&gt;AppModule</title>
<path fill="none" stroke="black" d="M779,-84.84C779,-106.46 779,-139.8 779,-139.8 779,-139.8 2510.12,-139.8 2510.12,-139.8"/>
<polygon fill="black" stroke="black" points="2510.12,-143.3 2520.12,-139.8 2510.12,-136.3 2510.12,-143.3"/>
</g>
<!-- QuestionsChooserComponent -->
<g id="node18" class="node">
<title>QuestionsChooserComponent</title>
<polygon fill="#ffffb3" stroke="black" points="627.99,-84.8 444.01,-84.8 444.01,-48.8 627.99,-48.8 627.99,-84.8"/>
<text text-anchor="middle" x="536" y="-62.6" font-family="Times,serif" font-size="14.00">QuestionsChooserComponent</text>
</g>
<!-- QuestionsChooserComponent&#45;&gt;AppModule -->
<g id="edge18" class="edge">
<title>QuestionsChooserComponent&#45;&gt;AppModule</title>
<path fill="none" stroke="black" d="M536,-84.81C536,-107.29 536,-142.8 536,-142.8 536,-142.8 2510.15,-142.8 2510.15,-142.8"/>
<polygon fill="black" stroke="black" points="2510.15,-146.3 2520.15,-142.8 2510.15,-139.3 2510.15,-146.3"/>
</g>
<!-- QuestionsCompletionComponent -->
<g id="node19" class="node">
<title>QuestionsCompletionComponent</title>
<polygon fill="#ffffb3" stroke="black" points="425.94,-84.8 222.06,-84.8 222.06,-48.8 425.94,-48.8 425.94,-84.8"/>
<text text-anchor="middle" x="324" y="-62.6" font-family="Times,serif" font-size="14.00">QuestionsCompletionComponent</text>
</g>
<!-- QuestionsCompletionComponent&#45;&gt;AppModule -->
<g id="edge19" class="edge">
<title>QuestionsCompletionComponent&#45;&gt;AppModule</title>
<path fill="none" stroke="black" d="M324,-84.89C324,-107.93 324,-144.8 324,-144.8 324,-144.8 2510.27,-144.8 2510.27,-144.8"/>
<polygon fill="black" stroke="black" points="2510.27,-148.3 2520.27,-144.8 2510.27,-141.3 2510.27,-148.3"/>
</g>
<!-- StudentsCommitsComponent -->
<g id="node20" class="node">
<title>StudentsCommitsComponent</title>
<polygon fill="#ffffb3" stroke="black" points="204.4,-84.8 23.6,-84.8 23.6,-48.8 204.4,-48.8 204.4,-84.8"/>
<text text-anchor="middle" x="114" y="-62.6" font-family="Times,serif" font-size="14.00">StudentsCommitsComponent</text>
</g>
<!-- StudentsCommitsComponent&#45;&gt;AppModule -->
<g id="edge20" class="edge">
<title>StudentsCommitsComponent&#45;&gt;AppModule</title>
<path fill="none" stroke="black" d="M114,-85.18C114,-109.08 114,-147.8 114,-147.8 114,-147.8 2510.28,-147.8 2510.28,-147.8"/>
<polygon fill="black" stroke="black" points="2510.28,-151.3 2520.28,-147.8 2510.28,-144.3 2510.28,-151.3"/>
</g>
<!-- AppComponent  -->
<g id="node23" class="node">
<title>AppComponent </title>
<polygon fill="#80b1d3" stroke="black" points="2616.44,-214.8 2507.56,-214.8 2507.56,-178.8 2616.44,-178.8 2616.44,-214.8"/>
<text text-anchor="middle" x="2562" y="-192.6" font-family="Times,serif" font-size="14.00">AppComponent </text>
</g>
<!-- AppModule&#45;&gt;AppComponent  -->
<g id="edge22" class="edge">
<title>AppModule&#45;&gt;AppComponent </title>
<path fill="none" stroke="black" stroke-dasharray="1,5" d="M2562,-149.91C2562,-149.91 2562,-168.79 2562,-168.79"/>
<polygon fill="black" stroke="black" points="2558.5,-168.79 2562,-178.79 2565.5,-168.79 2558.5,-168.79"/>
</g>
<!-- AppRoutingModule -->
<g id="node22" class="node">
<title>AppRoutingModule</title>
<polygon fill="#8dd3c7" stroke="black" points="3886.28,-84.8 3883.28,-88.8 3862.28,-88.8 3859.28,-84.8 3757.72,-84.8 3757.72,-48.8 3886.28,-48.8 3886.28,-84.8"/>
<text text-anchor="middle" x="3822" y="-62.6" font-family="Times,serif" font-size="14.00">AppRoutingModule</text>
</g>
<!-- AppRoutingModule&#45;&gt;AppModule -->
<g id="edge21" class="edge">
<title>AppRoutingModule&#45;&gt;AppModule</title>
<path fill="none" stroke="black" d="M3822,-84.91C3822,-104.14 3822,-131.8 3822,-131.8 3822,-131.8 2613.92,-131.8 2613.92,-131.8"/>
<polygon fill="black" stroke="black" points="2613.92,-128.3 2603.92,-131.8 2613.92,-135.3 2613.92,-128.3"/>
</g>
<!-- AuthService -->
<g id="node24" class="node">
<title>AuthService</title>
<ellipse fill="#fdb462" stroke="black" cx="4784" cy="-66.8" rx="59.11" ry="18"/>
<text text-anchor="middle" x="4784" y="-62.6" font-family="Times,serif" font-size="14.00">AuthService</text>
</g>
<!-- AuthService&#45;&gt;AppModule -->
<g id="edge23" class="edge">
<title>AuthService&#45;&gt;AppModule</title>
<path fill="none" stroke="black" d="M4784,-85.18C4784,-109.08 4784,-147.8 4784,-147.8 4784,-147.8 2613.91,-147.8 2613.91,-147.8"/>
<polygon fill="black" stroke="black" points="2613.91,-144.3 2603.91,-147.8 2613.91,-151.3 2613.91,-144.3"/>
</g>
<!-- CommitsService -->
<g id="node25" class="node">
<title>CommitsService</title>
<ellipse fill="#fdb462" stroke="black" cx="4631" cy="-66.8" rx="75.32" ry="18"/>
<text text-anchor="middle" x="4631" y="-62.6" font-family="Times,serif" font-size="14.00">CommitsService</text>
</g>
<!-- CommitsService&#45;&gt;AppModule -->
<g id="edge24" class="edge">
<title>CommitsService&#45;&gt;AppModule</title>
<path fill="none" stroke="black" d="M4631,-84.89C4631,-107.93 4631,-144.8 4631,-144.8 4631,-144.8 2613.8,-144.8 2613.8,-144.8"/>
<polygon fill="black" stroke="black" points="2613.8,-141.3 2603.8,-144.8 2613.8,-148.3 2613.8,-141.3"/>
</g>
<!-- DataService -->
<g id="node26" class="node">
<title>DataService</title>
<ellipse fill="#fdb462" stroke="black" cx="4479" cy="-66.8" rx="58.45" ry="18"/>
<text text-anchor="middle" x="4479" y="-62.6" font-family="Times,serif" font-size="14.00">DataService</text>
</g>
<!-- DataService&#45;&gt;AppModule -->
<g id="edge25" class="edge">
<title>DataService&#45;&gt;AppModule</title>
<path fill="none" stroke="black" d="M4479,-84.81C4479,-107.29 4479,-142.8 4479,-142.8 4479,-142.8 2613.82,-142.8 2613.82,-142.8"/>
<polygon fill="black" stroke="black" points="2613.82,-139.3 2603.82,-142.8 2613.82,-146.3 2613.82,-139.3"/>
</g>
<!-- DatabaseService -->
<g id="node27" class="node">
<title>DatabaseService</title>
<ellipse fill="#fdb462" stroke="black" cx="4327" cy="-66.8" rx="75.26" ry="18"/>
<text text-anchor="middle" x="4327" y="-62.6" font-family="Times,serif" font-size="14.00">DatabaseService</text>
</g>
<!-- DatabaseService&#45;&gt;AppModule -->
<g id="edge26" class="edge">
<title>DatabaseService&#45;&gt;AppModule</title>
<path fill="none" stroke="black" d="M4327,-84.84C4327,-106.46 4327,-139.8 4327,-139.8 4327,-139.8 2613.89,-139.8 2613.89,-139.8"/>
<polygon fill="black" stroke="black" points="2613.89,-136.3 2603.89,-139.8 2613.89,-143.3 2613.89,-136.3"/>
</g>
<!-- JsonManagerService -->
<g id="node28" class="node">
<title>JsonManagerService</title>
<ellipse fill="#fdb462" stroke="black" cx="4142" cy="-66.8" rx="91.47" ry="18"/>
<text text-anchor="middle" x="4142" y="-62.6" font-family="Times,serif" font-size="14.00">JsonManagerService</text>
</g>
<!-- JsonManagerService&#45;&gt;AppModule -->
<g id="edge27" class="edge">
<title>JsonManagerService&#45;&gt;AppModule</title>
<path fill="none" stroke="black" d="M4142,-85.08C4142,-106.12 4142,-137.8 4142,-137.8 4142,-137.8 2613.85,-137.8 2613.85,-137.8"/>
<polygon fill="black" stroke="black" points="2613.85,-134.3 2603.85,-137.8 2613.85,-141.3 2613.85,-134.3"/>
</g>
<!-- ToastService -->
<g id="node29" class="node">
<title>ToastService</title>
<ellipse fill="#fdb462" stroke="black" cx="3971" cy="-66.8" rx="61.4" ry="18"/>
<text text-anchor="middle" x="3971" y="-62.6" font-family="Times,serif" font-size="14.00">ToastService</text>
</g>
<!-- ToastService&#45;&gt;AppModule -->
<g id="edge28" class="edge">
<title>ToastService&#45;&gt;AppModule</title>
<path fill="none" stroke="black" d="M3971,-85.02C3971,-105.17 3971,-134.8 3971,-134.8 3971,-134.8 2613.79,-134.8 2613.79,-134.8"/>
<polygon fill="black" stroke="black" points="2613.79,-131.3 2603.79,-134.8 2613.79,-138.3 2613.79,-131.3"/>
</g>
</g>
</svg>
