<?xml version="1.0" encoding="UTF-8" standalone="no"?>
<!DOCTYPE svg PUBLIC "-//W3C//DTD SVG 1.1//EN"
 "http://www.w3.org/Graphics/SVG/1.1/DTD/svg11.dtd">
<!-- Generated by graphviz version 2.44.1 (20200629.0846)
 -->
<!-- Title: dependencies Pages: 1 -->
<svg width="4596pt" height="284pt"
 viewBox="0.00 0.00 4596.00 284.00" xmlns="http://www.w3.org/2000/svg" xmlns:xlink="http://www.w3.org/1999/xlink">
<g id="graph0" class="graph" transform="scale(1 1) rotate(0) translate(4 280)">
<title>dependencies</title>
<polygon fill="white" stroke="transparent" points="-4,4 -4,-280 4592,-280 4592,4 -4,4"/>
<text text-anchor="start" x="2273.01" y="-42.4" font-family="sans-serif" font-weight="bold" font-size="14.00">Legend</text>
<polygon fill="#ffffb3" stroke="transparent" points="2060,-10 2060,-30 2080,-30 2080,-10 2060,-10"/>
<text text-anchor="start" x="2083.63" y="-15.4" font-family="sans-serif" font-size="14.00"> &#160;Declarations</text>
<polygon fill="#8dd3c7" stroke="transparent" points="2173,-10 2173,-30 2193,-30 2193,-10 2173,-10"/>
<text text-anchor="start" x="2196.73" y="-15.4" font-family="sans-serif" font-size="14.00"> &#160;Module</text>
<polygon fill="#80b1d3" stroke="transparent" points="2259,-10 2259,-30 2279,-30 2279,-10 2259,-10"/>
<text text-anchor="start" x="2282.78" y="-15.4" font-family="sans-serif" font-size="14.00"> &#160;Bootstrap</text>
<polygon fill="#fdb462" stroke="transparent" points="2356,-10 2356,-30 2376,-30 2376,-10 2356,-10"/>
<text text-anchor="start" x="2379.67" y="-15.4" font-family="sans-serif" font-size="14.00"> &#160;Providers</text>
<polygon fill="#fb8072" stroke="transparent" points="2452,-10 2452,-30 2472,-30 2472,-10 2452,-10"/>
<text text-anchor="start" x="2475.73" y="-15.4" font-family="sans-serif" font-size="14.00"> &#160;Exports</text>
<g id="clust1" class="cluster">
<title>cluster_AppModule</title>
<polygon fill="none" stroke="black" stroke-dasharray="1,5" points="8,-70 8,-268 4580,-268 4580,-70 8,-70"/>
</g>
<g id="clust22" class="cluster">
<title>cluster_AppModule_imports</title>
<polygon fill="none" stroke="black" points="4428,-78 4428,-130 4572,-130 4572,-78 4428,-78"/>
</g>
<g id="clust2" class="cluster">
<title>cluster_AppModule_declarations</title>
<polygon fill="none" stroke="black" points="973,-78 973,-130 4420,-130 4420,-78 973,-78"/>
</g>
<g id="clust24" class="cluster">
<title>cluster_AppModule_bootstrap</title>
<polygon fill="none" stroke="black" points="2248,-208 2248,-260 2372,-260 2372,-208 2248,-208"/>
</g>
<g id="clust25" class="cluster">
<title>cluster_AppModule_providers</title>
<polygon fill="none" stroke="black" points="16,-78 16,-130 965,-130 965,-78 16,-78"/>
</g>
<!-- AppComponent -->
<g id="node1" class="node">
<title>AppComponent</title>
<polygon fill="#ffffb3" stroke="black" points="4411.94,-122 4306.06,-122 4306.06,-86 4411.94,-86 4411.94,-122"/>
<text text-anchor="middle" x="4359" y="-99.8" font-family="Times,serif" font-size="14.00">AppComponent</text>
</g>
<!-- AppModule -->
<g id="node20" class="node">
<title>AppModule</title>
<polygon fill="#8dd3c7" stroke="black" points="2351.66,-187 2348.66,-191 2327.66,-191 2324.66,-187 2268.34,-187 2268.34,-151 2351.66,-151 2351.66,-187"/>
<text text-anchor="middle" x="2310" y="-164.8" font-family="Times,serif" font-size="14.00">AppModule</text>
</g>
<!-- AppComponent&#45;&gt;AppModule -->
<g id="edge1" class="edge">
<title>AppComponent&#45;&gt;AppModule</title>
<path fill="none" stroke="black" d="M4359,-122.09C4359,-145.13 4359,-182 4359,-182 4359,-182 2361.86,-182 2361.86,-182"/>
<polygon fill="black" stroke="black" points="2361.86,-178.5 2351.86,-182 2361.86,-185.5 2361.86,-178.5"/>
</g>
<!-- AppNavLayoutComponent -->
<g id="node2" class="node">
<title>AppNavLayoutComponent</title>
<polygon fill="#ffffb3" stroke="black" points="4288.42,-122 4119.58,-122 4119.58,-86 4288.42,-86 4288.42,-122"/>
<text text-anchor="middle" x="4204" y="-99.8" font-family="Times,serif" font-size="14.00">AppNavLayoutComponent</text>
</g>
<!-- AppNavLayoutComponent&#45;&gt;AppModule -->
<g id="edge2" class="edge">
<title>AppNavLayoutComponent&#45;&gt;AppModule</title>
<path fill="none" stroke="black" d="M4204,-122.16C4204,-144.35 4204,-179 4204,-179 4204,-179 2361.77,-179 2361.77,-179"/>
<polygon fill="black" stroke="black" points="2361.77,-175.5 2351.77,-179 2361.77,-182.5 2361.77,-175.5"/>
</g>
<!-- AssignmentChooserComponent -->
<g id="node3" class="node">
<title>AssignmentChooserComponent</title>
<polygon fill="#ffffb3" stroke="black" points="4101.37,-122 3906.63,-122 3906.63,-86 4101.37,-86 4101.37,-122"/>
<text text-anchor="middle" x="4004" y="-99.8" font-family="Times,serif" font-size="14.00">AssignmentChooserComponent</text>
</g>
<!-- AssignmentChooserComponent&#45;&gt;AppModule -->
<g id="edge3" class="edge">
<title>AssignmentChooserComponent&#45;&gt;AppModule</title>
<path fill="none" stroke="black" d="M4004,-122.17C4004,-143.5 4004,-176 4004,-176 4004,-176 2361.87,-176 2361.87,-176"/>
<polygon fill="black" stroke="black" points="2361.87,-172.5 2351.87,-176 2361.87,-179.5 2361.87,-172.5"/>
</g>
<!-- AuthLangNavItemComponent -->
<g id="node4" class="node">
<title>AuthLangNavItemComponent</title>
<polygon fill="#ffffb3" stroke="black" points="3888.57,-122 3701.43,-122 3701.43,-86 3888.57,-86 3888.57,-122"/>
<text text-anchor="middle" x="3795" y="-99.8" font-family="Times,serif" font-size="14.00">AuthLangNavItemComponent</text>
</g>
<!-- AuthLangNavItemComponent&#45;&gt;AppModule -->
<g id="edge4" class="edge">
<title>AuthLangNavItemComponent&#45;&gt;AppModule</title>
<path fill="none" stroke="black" d="M3795,-122.03C3795,-142.77 3795,-174 3795,-174 3795,-174 2361.66,-174 2361.66,-174"/>
<polygon fill="black" stroke="black" points="2361.66,-170.5 2351.66,-174 2361.66,-177.5 2361.66,-170.5"/>
</g>
<!-- ConfigurationComponent -->
<g id="node5" class="node">
<title>ConfigurationComponent</title>
<polygon fill="#ffffb3" stroke="black" points="3683.88,-122 3524.12,-122 3524.12,-86 3683.88,-86 3683.88,-122"/>
<text text-anchor="middle" x="3604" y="-99.8" font-family="Times,serif" font-size="14.00">ConfigurationComponent</text>
</g>
<!-- ConfigurationComponent&#45;&gt;AppModule -->
<g id="edge5" class="edge">
<title>ConfigurationComponent&#45;&gt;AppModule</title>
<path fill="none" stroke="black" d="M3604,-122.31C3604,-142.15 3604,-171 3604,-171 3604,-171 2361.95,-171 2361.95,-171"/>
<polygon fill="black" stroke="black" points="2361.95,-167.5 2351.95,-171 2361.95,-174.5 2361.95,-167.5"/>
</g>
<!-- EditMilestoneComponent -->
<g id="node6" class="node">
<title>EditMilestoneComponent</title>
<polygon fill="#ffffb3" stroke="black" points="3506.16,-122 3345.84,-122 3345.84,-86 3506.16,-86 3506.16,-122"/>
<text text-anchor="middle" x="3426" y="-99.8" font-family="Times,serif" font-size="14.00">EditMilestoneComponent</text>
</g>
<!-- EditMilestoneComponent&#45;&gt;AppModule -->
<g id="edge6" class="edge">
<title>EditMilestoneComponent&#45;&gt;AppModule</title>
<path fill="none" stroke="black" d="M3426,-122.17C3426,-141.09 3426,-168 3426,-168 3426,-168 2361.71,-168 2361.71,-168"/>
<polygon fill="black" stroke="black" points="2361.71,-164.5 2351.71,-168 2361.71,-171.5 2361.71,-164.5"/>
</g>
<!-- EditRepositoriesComponent -->
<g id="node7" class="node">
<title>EditRepositoriesComponent</title>
<polygon fill="#ffffb3" stroke="black" points="3327.15,-122 3152.85,-122 3152.85,-86 3327.15,-86 3327.15,-122"/>
<text text-anchor="middle" x="3240" y="-99.8" font-family="Times,serif" font-size="14.00">EditRepositoriesComponent</text>
</g>
<!-- EditRepositoriesComponent&#45;&gt;AppModule -->
<g id="edge7" class="edge">
<title>EditRepositoriesComponent&#45;&gt;AppModule</title>
<path fill="none" stroke="black" d="M3240,-122.3C3240,-140.27 3240,-165 3240,-165 3240,-165 2361.77,-165 2361.77,-165"/>
<polygon fill="black" stroke="black" points="2361.77,-161.5 2351.77,-165 2361.77,-168.5 2361.77,-161.5"/>
</g>
<!-- EditSessionsComponent -->
<g id="node8" class="node">
<title>EditSessionsComponent</title>
<polygon fill="#ffffb3" stroke="black" points="3134.39,-122 2981.61,-122 2981.61,-86 3134.39,-86 3134.39,-122"/>
<text text-anchor="middle" x="3058" y="-99.8" font-family="Times,serif" font-size="14.00">EditSessionsComponent</text>
</g>
<!-- EditSessionsComponent&#45;&gt;AppModule -->
<g id="edge8" class="edge">
<title>EditSessionsComponent&#45;&gt;AppModule</title>
<path fill="none" stroke="black" d="M3058,-122.02C3058,-139.37 3058,-163 3058,-163 3058,-163 2361.82,-163 2361.82,-163"/>
<polygon fill="black" stroke="black" points="2361.82,-159.5 2351.82,-163 2361.82,-166.5 2361.82,-159.5"/>
</g>
<!-- FileChooserComponent -->
<g id="node9" class="node">
<title>FileChooserComponent</title>
<polygon fill="#ffffb3" stroke="black" points="2963.77,-122 2814.23,-122 2814.23,-86 2963.77,-86 2963.77,-122"/>
<text text-anchor="middle" x="2889" y="-99.8" font-family="Times,serif" font-size="14.00">FileChooserComponent</text>
</g>
<!-- FileChooserComponent&#45;&gt;AppModule -->
<g id="edge9" class="edge">
<title>FileChooserComponent&#45;&gt;AppModule</title>
<path fill="none" stroke="black" d="M2889,-122.03C2889,-138.4 2889,-160 2889,-160 2889,-160 2362.11,-160 2362.11,-160"/>
<polygon fill="black" stroke="black" points="2362.11,-156.5 2352.11,-160 2362.11,-163.5 2362.11,-156.5"/>
</g>
<!-- FourOhFourComponent -->
<g id="node10" class="node">
<title>FourOhFourComponent</title>
<polygon fill="#ffffb3" stroke="black" points="2795.83,-122 2644.17,-122 2644.17,-86 2795.83,-86 2795.83,-122"/>
<text text-anchor="middle" x="2720" y="-99.8" font-family="Times,serif" font-size="14.00">FourOhFourComponent</text>
</g>
<!-- FourOhFourComponent&#45;&gt;AppModule -->
<g id="edge10" class="edge">
<title>FourOhFourComponent&#45;&gt;AppModule</title>
<path fill="none" stroke="black" d="M2720,-122.24C2720,-137.57 2720,-157 2720,-157 2720,-157 2361.95,-157 2361.95,-157"/>
<polygon fill="black" stroke="black" points="2361.95,-153.5 2351.95,-157 2361.95,-160.5 2361.95,-153.5"/>
</g>
<!-- HelpNavItemComponent -->
<g id="node11" class="node">
<title>HelpNavItemComponent</title>
<polygon fill="#ffffb3" stroke="black" points="2626.52,-122 2469.48,-122 2469.48,-86 2626.52,-86 2626.52,-122"/>
<text text-anchor="middle" x="2548" y="-99.8" font-family="Times,serif" font-size="14.00">HelpNavItemComponent</text>
</g>
<!-- HelpNavItemComponent&#45;&gt;AppModule -->
<g id="edge11" class="edge">
<title>HelpNavItemComponent&#45;&gt;AppModule</title>
<path fill="none" stroke="black" d="M2548,-122.05C2548,-136.37 2548,-154 2548,-154 2548,-154 2361.73,-154 2361.73,-154"/>
<polygon fill="black" stroke="black" points="2361.73,-150.5 2351.73,-154 2361.73,-157.5 2361.73,-150.5"/>
</g>
<!-- HomeComponent -->
<g id="node12" class="node">
<title>HomeComponent</title>
<polygon fill="#ffffb3" stroke="black" points="2450.55,-122 2335.45,-122 2335.45,-86 2450.55,-86 2450.55,-122"/>
<text text-anchor="middle" x="2393" y="-99.8" font-family="Times,serif" font-size="14.00">HomeComponent</text>
</g>
<!-- HomeComponent&#45;&gt;AppModule -->
<g id="edge12" class="edge">
<title>HomeComponent&#45;&gt;AppModule</title>
<path fill="none" stroke="black" d="M2343.53,-122.11C2343.53,-122.11 2343.53,-140.99 2343.53,-140.99"/>
<polygon fill="black" stroke="black" points="2340.03,-140.99 2343.53,-150.99 2347.03,-140.99 2340.03,-140.99"/>
</g>
<!-- HomeNavLayoutComponent -->
<g id="node13" class="node">
<title>HomeNavLayoutComponent</title>
<polygon fill="#ffffb3" stroke="black" points="2317.02,-122 2138.98,-122 2138.98,-86 2317.02,-86 2317.02,-122"/>
<text text-anchor="middle" x="2228" y="-99.8" font-family="Times,serif" font-size="14.00">HomeNavLayoutComponent</text>
</g>
<!-- HomeNavLayoutComponent&#45;&gt;AppModule -->
<g id="edge13" class="edge">
<title>HomeNavLayoutComponent&#45;&gt;AppModule</title>
<path fill="none" stroke="black" d="M2292.72,-122.11C2292.72,-122.11 2292.72,-140.99 2292.72,-140.99"/>
<polygon fill="black" stroke="black" points="2289.22,-140.99 2292.72,-150.99 2296.22,-140.99 2289.22,-140.99"/>
</g>
<!-- MetadataComponent -->
<g id="node14" class="node">
<title>MetadataComponent</title>
<polygon fill="#ffffb3" stroke="black" points="2120.92,-122 1987.08,-122 1987.08,-86 2120.92,-86 2120.92,-122"/>
<text text-anchor="middle" x="2054" y="-99.8" font-family="Times,serif" font-size="14.00">MetadataComponent</text>
</g>
<!-- MetadataComponent&#45;&gt;AppModule -->
<g id="edge14" class="edge">
<title>MetadataComponent&#45;&gt;AppModule</title>
<path fill="none" stroke="black" d="M2054,-122.05C2054,-136.37 2054,-154 2054,-154 2054,-154 2258.3,-154 2258.3,-154"/>
<polygon fill="black" stroke="black" points="2258.3,-157.5 2268.3,-154 2258.3,-150.5 2258.3,-157.5"/>
</g>
<!-- ModalAddRepositoriesComponent -->
<g id="node15" class="node">
<title>ModalAddRepositoriesComponent</title>
<polygon fill="#ffffb3" stroke="black" points="1968.98,-122 1757.02,-122 1757.02,-86 1968.98,-86 1968.98,-122"/>
<text text-anchor="middle" x="1863" y="-99.8" font-family="Times,serif" font-size="14.00">ModalAddRepositoriesComponent</text>
</g>
<!-- ModalAddRepositoriesComponent&#45;&gt;AppModule -->
<g id="edge15" class="edge">
<title>ModalAddRepositoriesComponent&#45;&gt;AppModule</title>
<path fill="none" stroke="black" d="M1863,-122.24C1863,-137.57 1863,-157 1863,-157 1863,-157 2257.95,-157 2257.95,-157"/>
<polygon fill="black" stroke="black" points="2257.95,-160.5 2267.95,-157 2257.95,-153.5 2257.95,-160.5"/>
</g>
<!-- OverviewComponent -->
<g id="node16" class="node">
<title>OverviewComponent</title>
<polygon fill="#ffffb3" stroke="black" points="1739.03,-122 1602.97,-122 1602.97,-86 1739.03,-86 1739.03,-122"/>
<text text-anchor="middle" x="1671" y="-99.8" font-family="Times,serif" font-size="14.00">OverviewComponent</text>
</g>
<!-- OverviewComponent&#45;&gt;AppModule -->
<g id="edge16" class="edge">
<title>OverviewComponent&#45;&gt;AppModule</title>
<path fill="none" stroke="black" d="M1671,-122.03C1671,-138.4 1671,-160 1671,-160 1671,-160 2258.07,-160 2258.07,-160"/>
<polygon fill="black" stroke="black" points="2258.07,-163.5 2268.07,-160 2258.07,-156.5 2258.07,-163.5"/>
</g>
<!-- QuestionsChooserComponent -->
<g id="node17" class="node">
<title>QuestionsChooserComponent</title>
<polygon fill="#ffffb3" stroke="black" points="1584.98,-122 1401.02,-122 1401.02,-86 1584.98,-86 1584.98,-122"/>
<text text-anchor="middle" x="1493" y="-99.8" font-family="Times,serif" font-size="14.00">QuestionsChooserComponent</text>
</g>
<!-- QuestionsChooserComponent&#45;&gt;AppModule -->
<g id="edge17" class="edge">
<title>QuestionsChooserComponent&#45;&gt;AppModule</title>
<path fill="none" stroke="black" d="M1493,-122.02C1493,-139.37 1493,-163 1493,-163 1493,-163 2258.08,-163 2258.08,-163"/>
<polygon fill="black" stroke="black" points="2258.08,-166.5 2268.08,-163 2258.08,-159.5 2258.08,-166.5"/>
</g>
<!-- QuestionsCompletionComponent -->
<g id="node18" class="node">
<title>QuestionsCompletionComponent</title>
<polygon fill="#ffffb3" stroke="black" points="1382.94,-122 1179.06,-122 1179.06,-86 1382.94,-86 1382.94,-122"/>
<text text-anchor="middle" x="1281" y="-99.8" font-family="Times,serif" font-size="14.00">QuestionsCompletionComponent</text>
</g>
<!-- QuestionsCompletionComponent&#45;&gt;AppModule -->
<g id="edge18" class="edge">
<title>QuestionsCompletionComponent&#45;&gt;AppModule</title>
<path fill="none" stroke="black" d="M1281,-122.3C1281,-140.27 1281,-165 1281,-165 1281,-165 2258.07,-165 2258.07,-165"/>
<polygon fill="black" stroke="black" points="2258.07,-168.5 2268.07,-165 2258.07,-161.5 2258.07,-168.5"/>
</g>
<!-- StudentsCommitsComponent -->
<g id="node19" class="node">
<title>StudentsCommitsComponent</title>
<polygon fill="#ffffb3" stroke="black" points="1161.4,-122 980.6,-122 980.6,-86 1161.4,-86 1161.4,-122"/>
<text text-anchor="middle" x="1071" y="-99.8" font-family="Times,serif" font-size="14.00">StudentsCommitsComponent</text>
</g>
<!-- StudentsCommitsComponent&#45;&gt;AppModule -->
<g id="edge19" class="edge">
<title>StudentsCommitsComponent&#45;&gt;AppModule</title>
<path fill="none" stroke="black" d="M1071,-122.17C1071,-141.09 1071,-168 1071,-168 1071,-168 2258.07,-168 2258.07,-168"/>
<polygon fill="black" stroke="black" points="2258.07,-171.5 2268.07,-168 2258.07,-164.5 2258.07,-171.5"/>
</g>
<!-- AppComponent  -->
<g id="node22" class="node">
<title>AppComponent </title>
<polygon fill="#80b1d3" stroke="black" points="2364.44,-252 2255.56,-252 2255.56,-216 2364.44,-216 2364.44,-252"/>
<text text-anchor="middle" x="2310" y="-229.8" font-family="Times,serif" font-size="14.00">AppComponent </text>
</g>
<!-- AppModule&#45;&gt;AppComponent  -->
<g id="edge21" class="edge">
<title>AppModule&#45;&gt;AppComponent </title>
<path fill="none" stroke="black" stroke-dasharray="1,5" d="M2310,-187.11C2310,-187.11 2310,-205.99 2310,-205.99"/>
<polygon fill="black" stroke="black" points="2306.5,-205.99 2310,-215.99 2313.5,-205.99 2306.5,-205.99"/>
</g>
<!-- AppRoutingModule -->
<g id="node21" class="node">
<title>AppRoutingModule</title>
<polygon fill="#8dd3c7" stroke="black" points="4564.27,-122 4561.27,-126 4540.27,-126 4537.27,-122 4435.73,-122 4435.73,-86 4564.27,-86 4564.27,-122"/>
<text text-anchor="middle" x="4500" y="-99.8" font-family="Times,serif" font-size="14.00">AppRoutingModule</text>
</g>
<!-- AppRoutingModule&#45;&gt;AppModule -->
<g id="edge20" class="edge">
<title>AppRoutingModule&#45;&gt;AppModule</title>
<path fill="none" stroke="black" d="M4500,-122.38C4500,-146.28 4500,-185 4500,-185 4500,-185 2361.79,-185 2361.79,-185"/>
<polygon fill="black" stroke="black" points="2361.79,-181.5 2351.79,-185 2361.79,-188.5 2361.79,-181.5"/>
</g>
<!-- AuthService -->
<g id="node23" class="node">
<title>AuthService</title>
<ellipse fill="#fdb462" stroke="black" cx="898" cy="-104" rx="59.11" ry="18"/>
<text text-anchor="middle" x="898" y="-99.8" font-family="Times,serif" font-size="14.00">AuthService</text>
</g>
<!-- AuthService&#45;&gt;AppModule -->
<g id="edge22" class="edge">
<title>AuthService&#45;&gt;AppModule</title>
<path fill="none" stroke="black" d="M898,-122.31C898,-142.15 898,-171 898,-171 898,-171 2258.12,-171 2258.12,-171"/>
<polygon fill="black" stroke="black" points="2258.12,-174.5 2268.12,-171 2258.12,-167.5 2258.12,-174.5"/>
</g>
<!-- CommitsService -->
<g id="node24" class="node">
<title>CommitsService</title>
<ellipse fill="#fdb462" stroke="black" cx="745" cy="-104" rx="75.32" ry="18"/>
<text text-anchor="middle" x="745" y="-99.8" font-family="Times,serif" font-size="14.00">CommitsService</text>
</g>
<!-- CommitsService&#45;&gt;AppModule -->
<g id="edge23" class="edge">
<title>CommitsService&#45;&gt;AppModule</title>
<path fill="none" stroke="black" d="M745,-122.03C745,-142.77 745,-174 745,-174 745,-174 2258.14,-174 2258.14,-174"/>
<polygon fill="black" stroke="black" points="2258.14,-177.5 2268.14,-174 2258.14,-170.5 2258.14,-177.5"/>
</g>
<!-- DataService -->
<g id="node25" class="node">
<title>DataService</title>
<ellipse fill="#fdb462" stroke="black" cx="593" cy="-104" rx="58.44" ry="18"/>
<text text-anchor="middle" x="593" y="-99.8" font-family="Times,serif" font-size="14.00">DataService</text>
</g>
<!-- DataService&#45;&gt;AppModule -->
<g id="edge24" class="edge">
<title>DataService&#45;&gt;AppModule</title>
<path fill="none" stroke="black" d="M593,-122.17C593,-143.5 593,-176 593,-176 593,-176 2257.98,-176 2257.98,-176"/>
<polygon fill="black" stroke="black" points="2257.98,-179.5 2267.98,-176 2257.98,-172.5 2257.98,-179.5"/>
</g>
<!-- DatabaseService -->
<g id="node26" class="node">
<title>DatabaseService</title>
<ellipse fill="#fdb462" stroke="black" cx="441" cy="-104" rx="75.26" ry="18"/>
<text text-anchor="middle" x="441" y="-99.8" font-family="Times,serif" font-size="14.00">DatabaseService</text>
</g>
<!-- DatabaseService&#45;&gt;AppModule -->
<g id="edge25" class="edge">
<title>DatabaseService&#45;&gt;AppModule</title>
<path fill="none" stroke="black" d="M441,-122.16C441,-144.35 441,-179 441,-179 441,-179 2258.34,-179 2258.34,-179"/>
<polygon fill="black" stroke="black" points="2258.34,-182.5 2268.34,-179 2258.34,-175.5 2258.34,-182.5"/>
</g>
<!-- JsonManagerService -->
<g id="node27" class="node">
<title>JsonManagerService</title>
<ellipse fill="#fdb462" stroke="black" cx="256" cy="-104" rx="91.45" ry="18"/>
<text text-anchor="middle" x="256" y="-99.8" font-family="Times,serif" font-size="14.00">JsonManagerService</text>
</g>
<!-- JsonManagerService&#45;&gt;AppModule -->
<g id="edge26" class="edge">
<title>JsonManagerService&#45;&gt;AppModule</title>
<path fill="none" stroke="black" d="M256,-122.09C256,-145.13 256,-182 256,-182 256,-182 2258.04,-182 2258.04,-182"/>
<polygon fill="black" stroke="black" points="2258.04,-185.5 2268.04,-182 2258.04,-178.5 2258.04,-185.5"/>
</g>
<!-- ToastService -->
<g id="node28" class="node">
<title>ToastService</title>
<ellipse fill="#fdb462" stroke="black" cx="85" cy="-104" rx="61.39" ry="18"/>
<text text-anchor="middle" x="85" y="-99.8" font-family="Times,serif" font-size="14.00">ToastService</text>
</g>
<!-- ToastService&#45;&gt;AppModule -->
<g id="edge27" class="edge">
<title>ToastService&#45;&gt;AppModule</title>
<path fill="none" stroke="black" d="M85,-122.38C85,-146.28 85,-185 85,-185 85,-185 2258.03,-185 2258.03,-185"/>
<polygon fill="black" stroke="black" points="2258.03,-188.5 2268.03,-185 2258.03,-181.5 2258.03,-188.5"/>
</g>
</g>
</svg>
