<?xml version="1.0" encoding="UTF-8" standalone="no"?>
<!DOCTYPE svg PUBLIC "-//W3C//DTD SVG 1.1//EN"
 "http://www.w3.org/Graphics/SVG/1.1/DTD/svg11.dtd">
<!-- Generated by graphviz version 2.44.1 (20200629.0846)
 -->
<!-- Title: dependencies Pages: 1 -->
<svg width="4420pt" height="284pt"
 viewBox="0.00 0.00 4420.00 284.00" xmlns="http://www.w3.org/2000/svg" xmlns:xlink="http://www.w3.org/1999/xlink">
<g id="graph0" class="graph" transform="scale(1 1) rotate(0) translate(4 280)">
<title>dependencies</title>
<polygon fill="white" stroke="transparent" points="-4,4 -4,-280 4416,-280 4416,4 -4,4"/>
<text text-anchor="start" x="2185.01" y="-42.4" font-family="sans-serif" font-weight="bold" font-size="14.00">Legend</text>
<polygon fill="#ffffb3" stroke="transparent" points="1972,-10 1972,-30 1992,-30 1992,-10 1972,-10"/>
<text text-anchor="start" x="1995.63" y="-15.4" font-family="sans-serif" font-size="14.00"> &#160;Declarations</text>
<polygon fill="#8dd3c7" stroke="transparent" points="2085,-10 2085,-30 2105,-30 2105,-10 2085,-10"/>
<text text-anchor="start" x="2108.73" y="-15.4" font-family="sans-serif" font-size="14.00"> &#160;Module</text>
<polygon fill="#80b1d3" stroke="transparent" points="2171,-10 2171,-30 2191,-30 2191,-10 2171,-10"/>
<text text-anchor="start" x="2194.78" y="-15.4" font-family="sans-serif" font-size="14.00"> &#160;Bootstrap</text>
<polygon fill="#fdb462" stroke="transparent" points="2268,-10 2268,-30 2288,-30 2288,-10 2268,-10"/>
<text text-anchor="start" x="2291.67" y="-15.4" font-family="sans-serif" font-size="14.00"> &#160;Providers</text>
<polygon fill="#fb8072" stroke="transparent" points="2364,-10 2364,-30 2384,-30 2384,-10 2364,-10"/>
<text text-anchor="start" x="2387.73" y="-15.4" font-family="sans-serif" font-size="14.00"> &#160;Exports</text>
<g id="clust1" class="cluster">
<title>cluster_AppModule</title>
<polygon fill="none" stroke="black" stroke-dasharray="1,5" points="8,-70 8,-268 4404,-268 4404,-70 8,-70"/>
</g>
<g id="clust21" class="cluster">
<title>cluster_AppModule_imports</title>
<polygon fill="none" stroke="black" points="4252,-78 4252,-130 4396,-130 4396,-78 4252,-78"/>
</g>
<g id="clust2" class="cluster">
<title>cluster_AppModule_declarations</title>
<polygon fill="none" stroke="black" points="973,-78 973,-130 4244,-130 4244,-78 973,-78"/>
</g>
<g id="clust23" class="cluster">
<title>cluster_AppModule_bootstrap</title>
<polygon fill="none" stroke="black" points="2166,-208 2166,-260 2290,-260 2290,-208 2166,-208"/>
</g>
<g id="clust24" class="cluster">
<title>cluster_AppModule_providers</title>
<polygon fill="none" stroke="black" points="16,-78 16,-130 965,-130 965,-78 16,-78"/>
</g>
<!-- AppComponent -->
<g id="node1" class="node">
<title>AppComponent</title>
<polygon fill="#ffffb3" stroke="black" points="4235.94,-122 4130.06,-122 4130.06,-86 4235.94,-86 4235.94,-122"/>
<text text-anchor="middle" x="4183" y="-99.8" font-family="Times,serif" font-size="14.00">AppComponent</text>
</g>
<!-- AppModule -->
<g id="node19" class="node">
<title>AppModule</title>
<polygon fill="#8dd3c7" stroke="black" points="2269.66,-187 2266.66,-191 2245.66,-191 2242.66,-187 2186.34,-187 2186.34,-151 2269.66,-151 2269.66,-187"/>
<text text-anchor="middle" x="2228" y="-164.8" font-family="Times,serif" font-size="14.00">AppModule</text>
</g>
<!-- AppComponent&#45;&gt;AppModule -->
<g id="edge1" class="edge">
<title>AppComponent&#45;&gt;AppModule</title>
<path fill="none" stroke="black" d="M4183,-122.09C4183,-145.13 4183,-182 4183,-182 4183,-182 2279.74,-182 2279.74,-182"/>
<polygon fill="black" stroke="black" points="2279.74,-178.5 2269.74,-182 2279.74,-185.5 2279.74,-178.5"/>
</g>
<!-- AppNavLayoutComponent -->
<g id="node2" class="node">
<title>AppNavLayoutComponent</title>
<polygon fill="#ffffb3" stroke="black" points="4112.42,-122 3943.58,-122 3943.58,-86 4112.42,-86 4112.42,-122"/>
<text text-anchor="middle" x="4028" y="-99.8" font-family="Times,serif" font-size="14.00">AppNavLayoutComponent</text>
</g>
<!-- AppNavLayoutComponent&#45;&gt;AppModule -->
<g id="edge2" class="edge">
<title>AppNavLayoutComponent&#45;&gt;AppModule</title>
<path fill="none" stroke="black" d="M4028,-122.16C4028,-144.35 4028,-179 4028,-179 4028,-179 2279.84,-179 2279.84,-179"/>
<polygon fill="black" stroke="black" points="2279.84,-175.5 2269.84,-179 2279.84,-182.5 2279.84,-175.5"/>
</g>
<!-- AssignmentChooserComponent -->
<g id="node3" class="node">
<title>AssignmentChooserComponent</title>
<polygon fill="#ffffb3" stroke="black" points="3925.37,-122 3730.63,-122 3730.63,-86 3925.37,-86 3925.37,-122"/>
<text text-anchor="middle" x="3828" y="-99.8" font-family="Times,serif" font-size="14.00">AssignmentChooserComponent</text>
</g>
<!-- AssignmentChooserComponent&#45;&gt;AppModule -->
<g id="edge3" class="edge">
<title>AssignmentChooserComponent&#45;&gt;AppModule</title>
<path fill="none" stroke="black" d="M3828,-122.17C3828,-143.5 3828,-176 3828,-176 3828,-176 2279.97,-176 2279.97,-176"/>
<polygon fill="black" stroke="black" points="2279.97,-172.5 2269.97,-176 2279.97,-179.5 2279.97,-172.5"/>
</g>
<!-- AuthLangNavItemComponent -->
<g id="node4" class="node">
<title>AuthLangNavItemComponent</title>
<polygon fill="#ffffb3" stroke="black" points="3712.57,-122 3525.43,-122 3525.43,-86 3712.57,-86 3712.57,-122"/>
<text text-anchor="middle" x="3619" y="-99.8" font-family="Times,serif" font-size="14.00">AuthLangNavItemComponent</text>
</g>
<!-- AuthLangNavItemComponent&#45;&gt;AppModule -->
<g id="edge4" class="edge">
<title>AuthLangNavItemComponent&#45;&gt;AppModule</title>
<path fill="none" stroke="black" d="M3619,-122.03C3619,-142.77 3619,-174 3619,-174 3619,-174 2280.01,-174 2280.01,-174"/>
<polygon fill="black" stroke="black" points="2280.01,-170.5 2270.01,-174 2280.01,-177.5 2280.01,-170.5"/>
</g>
<!-- ConfigurationComponent -->
<g id="node5" class="node">
<title>ConfigurationComponent</title>
<polygon fill="#ffffb3" stroke="black" points="3507.88,-122 3348.12,-122 3348.12,-86 3507.88,-86 3507.88,-122"/>
<text text-anchor="middle" x="3428" y="-99.8" font-family="Times,serif" font-size="14.00">ConfigurationComponent</text>
</g>
<!-- ConfigurationComponent&#45;&gt;AppModule -->
<g id="edge5" class="edge">
<title>ConfigurationComponent&#45;&gt;AppModule</title>
<path fill="none" stroke="black" d="M3428,-122.31C3428,-142.15 3428,-171 3428,-171 3428,-171 2280.01,-171 2280.01,-171"/>
<polygon fill="black" stroke="black" points="2280.01,-167.5 2270.01,-171 2280,-174.5 2280.01,-167.5"/>
</g>
<!-- EditMilestoneComponent -->
<g id="node6" class="node">
<title>EditMilestoneComponent</title>
<polygon fill="#ffffb3" stroke="black" points="3330.16,-122 3169.84,-122 3169.84,-86 3330.16,-86 3330.16,-122"/>
<text text-anchor="middle" x="3250" y="-99.8" font-family="Times,serif" font-size="14.00">EditMilestoneComponent</text>
</g>
<!-- EditMilestoneComponent&#45;&gt;AppModule -->
<g id="edge6" class="edge">
<title>EditMilestoneComponent&#45;&gt;AppModule</title>
<path fill="none" stroke="black" d="M3250,-122.17C3250,-141.09 3250,-168 3250,-168 3250,-168 2279.97,-168 2279.97,-168"/>
<polygon fill="black" stroke="black" points="2279.97,-164.5 2269.97,-168 2279.97,-171.5 2279.97,-164.5"/>
</g>
<!-- EditRepositoriesComponent -->
<g id="node7" class="node">
<title>EditRepositoriesComponent</title>
<polygon fill="#ffffb3" stroke="black" points="3151.15,-122 2976.85,-122 2976.85,-86 3151.15,-86 3151.15,-122"/>
<text text-anchor="middle" x="3064" y="-99.8" font-family="Times,serif" font-size="14.00">EditRepositoriesComponent</text>
</g>
<!-- EditRepositoriesComponent&#45;&gt;AppModule -->
<g id="edge7" class="edge">
<title>EditRepositoriesComponent&#45;&gt;AppModule</title>
<path fill="none" stroke="black" d="M3064,-122.3C3064,-140.27 3064,-165 3064,-165 3064,-165 2279.74,-165 2279.74,-165"/>
<polygon fill="black" stroke="black" points="2279.74,-161.5 2269.74,-165 2279.74,-168.5 2279.74,-161.5"/>
</g>
<!-- EditSessionsComponent -->
<g id="node8" class="node">
<title>EditSessionsComponent</title>
<polygon fill="#ffffb3" stroke="black" points="2958.39,-122 2805.61,-122 2805.61,-86 2958.39,-86 2958.39,-122"/>
<text text-anchor="middle" x="2882" y="-99.8" font-family="Times,serif" font-size="14.00">EditSessionsComponent</text>
</g>
<!-- EditSessionsComponent&#45;&gt;AppModule -->
<g id="edge8" class="edge">
<title>EditSessionsComponent&#45;&gt;AppModule</title>
<path fill="none" stroke="black" d="M2882,-122.02C2882,-139.37 2882,-163 2882,-163 2882,-163 2279.91,-163 2279.91,-163"/>
<polygon fill="black" stroke="black" points="2279.91,-159.5 2269.91,-163 2279.91,-166.5 2279.91,-159.5"/>
</g>
<!-- FileChooserComponent -->
<g id="node9" class="node">
<title>FileChooserComponent</title>
<polygon fill="#ffffb3" stroke="black" points="2787.77,-122 2638.23,-122 2638.23,-86 2787.77,-86 2787.77,-122"/>
<text text-anchor="middle" x="2713" y="-99.8" font-family="Times,serif" font-size="14.00">FileChooserComponent</text>
</g>
<!-- FileChooserComponent&#45;&gt;AppModule -->
<g id="edge9" class="edge">
<title>FileChooserComponent&#45;&gt;AppModule</title>
<path fill="none" stroke="black" d="M2713,-122.03C2713,-138.4 2713,-160 2713,-160 2713,-160 2279.77,-160 2279.77,-160"/>
<polygon fill="black" stroke="black" points="2279.77,-156.5 2269.77,-160 2279.77,-163.5 2279.77,-156.5"/>
</g>
<!-- FourOhFourComponent -->
<g id="node10" class="node">
<title>FourOhFourComponent</title>
<polygon fill="#ffffb3" stroke="black" points="2619.83,-122 2468.17,-122 2468.17,-86 2619.83,-86 2619.83,-122"/>
<text text-anchor="middle" x="2544" y="-99.8" font-family="Times,serif" font-size="14.00">FourOhFourComponent</text>
</g>
<!-- FourOhFourComponent&#45;&gt;AppModule -->
<g id="edge10" class="edge">
<title>FourOhFourComponent&#45;&gt;AppModule</title>
<path fill="none" stroke="black" d="M2544,-122.24C2544,-137.57 2544,-157 2544,-157 2544,-157 2279.96,-157 2279.96,-157"/>
<polygon fill="black" stroke="black" points="2279.96,-153.5 2269.96,-157 2279.96,-160.5 2279.96,-153.5"/>
</g>
<!-- HomeComponent -->
<g id="node11" class="node">
<title>HomeComponent</title>
<polygon fill="#ffffb3" stroke="black" points="2450.55,-122 2335.45,-122 2335.45,-86 2450.55,-86 2450.55,-122"/>
<text text-anchor="middle" x="2393" y="-99.8" font-family="Times,serif" font-size="14.00">HomeComponent</text>
</g>
<!-- HomeComponent&#45;&gt;AppModule -->
<g id="edge11" class="edge">
<title>HomeComponent&#45;&gt;AppModule</title>
<path fill="none" stroke="black" d="M2393,-122.05C2393,-136.37 2393,-154 2393,-154 2393,-154 2280.06,-154 2280.06,-154"/>
<polygon fill="black" stroke="black" points="2280.06,-150.5 2270.06,-154 2280.06,-157.5 2280.06,-150.5"/>
</g>
<!-- HomeNavLayoutComponent -->
<g id="node12" class="node">
<title>HomeNavLayoutComponent</title>
<polygon fill="#ffffb3" stroke="black" points="2317.02,-122 2138.98,-122 2138.98,-86 2317.02,-86 2317.02,-122"/>
<text text-anchor="middle" x="2228" y="-99.8" font-family="Times,serif" font-size="14.00">HomeNavLayoutComponent</text>
</g>
<!-- HomeNavLayoutComponent&#45;&gt;AppModule -->
<g id="edge12" class="edge">
<title>HomeNavLayoutComponent&#45;&gt;AppModule</title>
<path fill="none" stroke="black" d="M2228,-122.11C2228,-122.11 2228,-140.99 2228,-140.99"/>
<polygon fill="black" stroke="black" points="2224.5,-140.99 2228,-150.99 2231.5,-140.99 2224.5,-140.99"/>
</g>
<!-- MetadataComponent -->
<g id="node13" class="node">
<title>MetadataComponent</title>
<polygon fill="#ffffb3" stroke="black" points="2120.92,-122 1987.08,-122 1987.08,-86 2120.92,-86 2120.92,-122"/>
<text text-anchor="middle" x="2054" y="-99.8" font-family="Times,serif" font-size="14.00">MetadataComponent</text>
</g>
<!-- MetadataComponent&#45;&gt;AppModule -->
<g id="edge13" class="edge">
<title>MetadataComponent&#45;&gt;AppModule</title>
<path fill="none" stroke="black" d="M2054,-122.05C2054,-136.37 2054,-154 2054,-154 2054,-154 2176.32,-154 2176.32,-154"/>
<polygon fill="black" stroke="black" points="2176.32,-157.5 2186.32,-154 2176.32,-150.5 2176.32,-157.5"/>
</g>
<!-- ModalAddRepositoriesComponent -->
<g id="node14" class="node">
<title>ModalAddRepositoriesComponent</title>
<polygon fill="#ffffb3" stroke="black" points="1968.98,-122 1757.02,-122 1757.02,-86 1968.98,-86 1968.98,-122"/>
<text text-anchor="middle" x="1863" y="-99.8" font-family="Times,serif" font-size="14.00">ModalAddRepositoriesComponent</text>
</g>
<!-- ModalAddRepositoriesComponent&#45;&gt;AppModule -->
<g id="edge14" class="edge">
<title>ModalAddRepositoriesComponent&#45;&gt;AppModule</title>
<path fill="none" stroke="black" d="M1863,-122.24C1863,-137.57 1863,-157 1863,-157 1863,-157 2176.13,-157 2176.13,-157"/>
<polygon fill="black" stroke="black" points="2176.13,-160.5 2186.13,-157 2176.13,-153.5 2176.13,-160.5"/>
</g>
<!-- OverviewComponent -->
<g id="node15" class="node">
<title>OverviewComponent</title>
<polygon fill="#ffffb3" stroke="black" points="1739.03,-122 1602.97,-122 1602.97,-86 1739.03,-86 1739.03,-122"/>
<text text-anchor="middle" x="1671" y="-99.8" font-family="Times,serif" font-size="14.00">OverviewComponent</text>
</g>
<!-- OverviewComponent&#45;&gt;AppModule -->
<g id="edge15" class="edge">
<title>OverviewComponent&#45;&gt;AppModule</title>
<path fill="none" stroke="black" d="M1671,-122.03C1671,-138.4 1671,-160 1671,-160 1671,-160 2176.13,-160 2176.13,-160"/>
<polygon fill="black" stroke="black" points="2176.13,-163.5 2186.13,-160 2176.13,-156.5 2176.13,-163.5"/>
</g>
<!-- QuestionsChooserComponent -->
<g id="node16" class="node">
<title>QuestionsChooserComponent</title>
<polygon fill="#ffffb3" stroke="black" points="1584.98,-122 1401.02,-122 1401.02,-86 1584.98,-86 1584.98,-122"/>
<text text-anchor="middle" x="1493" y="-99.8" font-family="Times,serif" font-size="14.00">QuestionsChooserComponent</text>
</g>
<!-- QuestionsChooserComponent&#45;&gt;AppModule -->
<g id="edge16" class="edge">
<title>QuestionsChooserComponent&#45;&gt;AppModule</title>
<path fill="none" stroke="black" d="M1493,-122.02C1493,-139.37 1493,-163 1493,-163 1493,-163 2176.11,-163 2176.11,-163"/>
<polygon fill="black" stroke="black" points="2176.11,-166.5 2186.11,-163 2176.11,-159.5 2176.11,-166.5"/>
</g>
<!-- QuestionsCompletionComponent -->
<g id="node17" class="node">
<title>QuestionsCompletionComponent</title>
<polygon fill="#ffffb3" stroke="black" points="1382.94,-122 1179.06,-122 1179.06,-86 1382.94,-86 1382.94,-122"/>
<text text-anchor="middle" x="1281" y="-99.8" font-family="Times,serif" font-size="14.00">QuestionsCompletionComponent</text>
</g>
<!-- QuestionsCompletionComponent&#45;&gt;AppModule -->
<g id="edge17" class="edge">
<title>QuestionsCompletionComponent&#45;&gt;AppModule</title>
<path fill="none" stroke="black" d="M1281,-122.3C1281,-140.27 1281,-165 1281,-165 1281,-165 2176.09,-165 2176.09,-165"/>
<polygon fill="black" stroke="black" points="2176.09,-168.5 2186.09,-165 2176.09,-161.5 2176.09,-168.5"/>
</g>
<!-- StudentsCommitsComponent -->
<g id="node18" class="node">
<title>StudentsCommitsComponent</title>
<polygon fill="#ffffb3" stroke="black" points="1161.4,-122 980.6,-122 980.6,-86 1161.4,-86 1161.4,-122"/>
<text text-anchor="middle" x="1071" y="-99.8" font-family="Times,serif" font-size="14.00">StudentsCommitsComponent</text>
</g>
<!-- StudentsCommitsComponent&#45;&gt;AppModule -->
<g id="edge18" class="edge">
<title>StudentsCommitsComponent&#45;&gt;AppModule</title>
<path fill="none" stroke="black" d="M1071,-122.17C1071,-141.09 1071,-168 1071,-168 1071,-168 2176.14,-168 2176.14,-168"/>
<polygon fill="black" stroke="black" points="2176.14,-171.5 2186.14,-168 2176.14,-164.5 2176.14,-171.5"/>
</g>
<!-- AppComponent  -->
<g id="node21" class="node">
<title>AppComponent </title>
<polygon fill="#80b1d3" stroke="black" points="2282.44,-252 2173.56,-252 2173.56,-216 2282.44,-216 2282.44,-252"/>
<text text-anchor="middle" x="2228" y="-229.8" font-family="Times,serif" font-size="14.00">AppComponent </text>
</g>
<!-- AppModule&#45;&gt;AppComponent  -->
<g id="edge20" class="edge">
<title>AppModule&#45;&gt;AppComponent </title>
<path fill="none" stroke="black" stroke-dasharray="1,5" d="M2228,-187.11C2228,-187.11 2228,-205.99 2228,-205.99"/>
<polygon fill="black" stroke="black" points="2224.5,-205.99 2228,-215.99 2231.5,-205.99 2224.5,-205.99"/>
</g>
<!-- AppRoutingModule -->
<g id="node20" class="node">
<title>AppRoutingModule</title>
<polygon fill="#8dd3c7" stroke="black" points="4388.27,-122 4385.27,-126 4364.27,-126 4361.27,-122 4259.73,-122 4259.73,-86 4388.27,-86 4388.27,-122"/>
<text text-anchor="middle" x="4324" y="-99.8" font-family="Times,serif" font-size="14.00">AppRoutingModule</text>
</g>
<!-- AppRoutingModule&#45;&gt;AppModule -->
<g id="edge19" class="edge">
<title>AppRoutingModule&#45;&gt;AppModule</title>
<path fill="none" stroke="black" d="M4324,-122.38C4324,-146.28 4324,-185 4324,-185 4324,-185 2279.87,-185 2279.87,-185"/>
<polygon fill="black" stroke="black" points="2279.87,-181.5 2269.87,-185 2279.87,-188.5 2279.87,-181.5"/>
</g>
<!-- AuthService -->
<g id="node22" class="node">
<title>AuthService</title>
<ellipse fill="#fdb462" stroke="black" cx="898" cy="-104" rx="59.11" ry="18"/>
<text text-anchor="middle" x="898" y="-99.8" font-family="Times,serif" font-size="14.00">AuthService</text>
</g>
<!-- AuthService&#45;&gt;AppModule -->
<g id="edge21" class="edge">
<title>AuthService&#45;&gt;AppModule</title>
<path fill="none" stroke="black" d="M898,-122.31C898,-142.15 898,-171 898,-171 898,-171 2176,-171 2176,-171"/>
<polygon fill="black" stroke="black" points="2176,-174.5 2186,-171 2176,-167.5 2176,-174.5"/>
</g>
<!-- CommitsService -->
<g id="node23" class="node">
<title>CommitsService</title>
<ellipse fill="#fdb462" stroke="black" cx="745" cy="-104" rx="75.32" ry="18"/>
<text text-anchor="middle" x="745" y="-99.8" font-family="Times,serif" font-size="14.00">CommitsService</text>
</g>
<!-- CommitsService&#45;&gt;AppModule -->
<g id="edge22" class="edge">
<title>CommitsService&#45;&gt;AppModule</title>
<path fill="none" stroke="black" d="M745,-122.03C745,-142.77 745,-174 745,-174 745,-174 2176.01,-174 2176.01,-174"/>
<polygon fill="black" stroke="black" points="2176.01,-177.5 2186.01,-174 2176.01,-170.5 2176.01,-177.5"/>
</g>
<!-- DataService -->
<g id="node24" class="node">
<title>DataService</title>
<ellipse fill="#fdb462" stroke="black" cx="593" cy="-104" rx="58.44" ry="18"/>
<text text-anchor="middle" x="593" y="-99.8" font-family="Times,serif" font-size="14.00">DataService</text>
</g>
<!-- DataService&#45;&gt;AppModule -->
<g id="edge23" class="edge">
<title>DataService&#45;&gt;AppModule</title>
<path fill="none" stroke="black" d="M593,-122.17C593,-143.5 593,-176 593,-176 593,-176 2175.94,-176 2175.94,-176"/>
<polygon fill="black" stroke="black" points="2175.94,-179.5 2185.94,-176 2175.94,-172.5 2175.94,-179.5"/>
</g>
<!-- DatabaseService -->
<g id="node25" class="node">
<title>DatabaseService</title>
<ellipse fill="#fdb462" stroke="black" cx="441" cy="-104" rx="75.26" ry="18"/>
<text text-anchor="middle" x="441" y="-99.8" font-family="Times,serif" font-size="14.00">DatabaseService</text>
</g>
<!-- DatabaseService&#45;&gt;AppModule -->
<g id="edge24" class="edge">
<title>DatabaseService&#45;&gt;AppModule</title>
<path fill="none" stroke="black" d="M441,-122.16C441,-144.35 441,-179 441,-179 441,-179 2176.02,-179 2176.02,-179"/>
<polygon fill="black" stroke="black" points="2176.02,-182.5 2186.02,-179 2176.02,-175.5 2176.02,-182.5"/>
</g>
<!-- JsonManagerService -->
<g id="node26" class="node">
<title>JsonManagerService</title>
<ellipse fill="#fdb462" stroke="black" cx="256" cy="-104" rx="91.45" ry="18"/>
<text text-anchor="middle" x="256" y="-99.8" font-family="Times,serif" font-size="14.00">JsonManagerService</text>
</g>
<!-- JsonManagerService&#45;&gt;AppModule -->
<g id="edge25" class="edge">
<title>JsonManagerService&#45;&gt;AppModule</title>
<path fill="none" stroke="black" d="M256,-122.09C256,-145.13 256,-182 256,-182 256,-182 2175.9,-182 2175.9,-182"/>
<polygon fill="black" stroke="black" points="2175.9,-185.5 2185.9,-182 2175.9,-178.5 2175.9,-185.5"/>
</g>
<!-- ToastService -->
<g id="node27" class="node">
<title>ToastService</title>
<ellipse fill="#fdb462" stroke="black" cx="85" cy="-104" rx="61.39" ry="18"/>
<text text-anchor="middle" x="85" y="-99.8" font-family="Times,serif" font-size="14.00">ToastService</text>
</g>
<!-- ToastService&#45;&gt;AppModule -->
<g id="edge26" class="edge">
<title>ToastService&#45;&gt;AppModule</title>
<path fill="none" stroke="black" d="M85,-122.38C85,-146.28 85,-185 85,-185 85,-185 2176.15,-185 2176.15,-185"/>
<polygon fill="black" stroke="black" points="2176.15,-188.5 2186.15,-185 2176.15,-181.5 2176.15,-188.5"/>
</g>
</g>
</svg>
