<?xml version="1.0" encoding="UTF-8" standalone="no"?>
<!DOCTYPE svg PUBLIC "-//W3C//DTD SVG 1.1//EN"
 "http://www.w3.org/Graphics/SVG/1.1/DTD/svg11.dtd">
<!-- Generated by graphviz version 5.0.0 (20220707.1540)
 -->
<!-- Title: dependencies Pages: 1 -->
<svg width="2269pt" height="247pt"
 viewBox="0.00 0.00 2269.00 246.80" xmlns="http://www.w3.org/2000/svg" xmlns:xlink="http://www.w3.org/1999/xlink">
<g id="graph0" class="graph" transform="scale(1 1) rotate(0) translate(4 242.8)">
<title>dependencies</title>
<polygon fill="white" stroke="transparent" points="-4,4 -4,-242.8 2265,-242.8 2265,4 -4,4"/>
<text text-anchor="middle" x="1130.5" y="-8.2" font-family="sans-serif" font-size="14.00">dependencies</text>
<g id="clust1" class="cluster">
<title>cluster_SharedUiModule</title>
<polygon fill="none" stroke="black" stroke-dasharray="1,5" points="8,-32.8 8,-230.8 2253,-230.8 2253,-32.8 8,-32.8"/>
</g>
<g id="clust17" class="cluster">
<title>cluster_SharedUiModule_exports</title>
<polygon fill="none" stroke="black" points="16,-170.8 16,-222.8 2245,-222.8 2245,-170.8 16,-170.8"/>
</g>
<g id="clust2" class="cluster">
<title>cluster_SharedUiModule_declarations</title>
<polygon fill="none" stroke="black" points="38,-40.8 38,-92.8 2222,-92.8 2222,-40.8 38,-40.8"/>
</g>
<!-- CustomModalContainerComponent -->
<g id="node1" class="node">
<title>CustomModalContainerComponent</title>
<polygon fill="#ffffb3" stroke="black" points="2214.16,-84.8 1997.84,-84.8 1997.84,-48.8 2214.16,-48.8 2214.16,-84.8"/>
<text text-anchor="middle" x="2106" y="-62.6" font-family="Times,serif" font-size="14.00">CustomModalContainerComponent</text>
</g>
<!-- SharedUiModule -->
<g id="node14" class="node">
<title>SharedUiModule</title>
<polygon fill="#8dd3c7" stroke="black" points="1075.43,-149.8 1072.43,-153.8 1051.43,-153.8 1048.43,-149.8 962.57,-149.8 962.57,-113.8 1075.43,-113.8 1075.43,-149.8"/>
<text text-anchor="middle" x="1019" y="-127.6" font-family="Times,serif" font-size="14.00">SharedUiModule</text>
</g>
<!-- CustomModalContainerComponent&#45;&gt;SharedUiModule -->
<g id="edge1" class="edge">
<title>CustomModalContainerComponent&#45;&gt;SharedUiModule</title>
<path fill="none" stroke="black" d="M2008.16,-84.97C2008.16,-103.89 2008.16,-130.8 2008.16,-130.8 2008.16,-130.8 1085.37,-130.8 1085.37,-130.8"/>
<polygon fill="black" stroke="black" points="1085.37,-127.3 1075.37,-130.8 1085.37,-134.3 1085.37,-127.3"/>
</g>
<!-- DateRangePickerComponent -->
<g id="node2" class="node">
<title>DateRangePickerComponent</title>
<polygon fill="#ffffb3" stroke="black" points="1979.79,-84.8 1800.21,-84.8 1800.21,-48.8 1979.79,-48.8 1979.79,-84.8"/>
<text text-anchor="middle" x="1890" y="-62.6" font-family="Times,serif" font-size="14.00">DateRangePickerComponent</text>
</g>
<!-- DateRangePickerComponent&#45;&gt;SharedUiModule -->
<g id="edge2" class="edge">
<title>DateRangePickerComponent&#45;&gt;SharedUiModule</title>
<path fill="none" stroke="black" d="M1808.48,-85.1C1808.48,-103.07 1808.48,-127.8 1808.48,-127.8 1808.48,-127.8 1085.46,-127.8 1085.46,-127.8"/>
<polygon fill="black" stroke="black" points="1085.46,-124.3 1075.46,-127.8 1085.46,-131.3 1085.46,-124.3"/>
</g>
<!-- DatepickerComponent -->
<g id="node3" class="node">
<title>DatepickerComponent</title>
<polygon fill="#ffffb3" stroke="black" points="1782.24,-84.8 1639.76,-84.8 1639.76,-48.8 1782.24,-48.8 1782.24,-84.8"/>
<text text-anchor="middle" x="1711" y="-62.6" font-family="Times,serif" font-size="14.00">DatepickerComponent</text>
</g>
<!-- DatepickerComponent&#45;&gt;SharedUiModule -->
<g id="edge3" class="edge">
<title>DatepickerComponent&#45;&gt;SharedUiModule</title>
<path fill="none" stroke="black" d="M1645.76,-84.82C1645.76,-102.17 1645.76,-125.8 1645.76,-125.8 1645.76,-125.8 1085.45,-125.8 1085.45,-125.8"/>
<polygon fill="black" stroke="black" points="1085.45,-122.3 1075.45,-125.8 1085.45,-129.3 1085.45,-122.3"/>
</g>
<!-- ModalComponent -->
<g id="node4" class="node">
<title>ModalComponent</title>
<polygon fill="#ffffb3" stroke="black" points="1621.88,-84.8 1504.12,-84.8 1504.12,-48.8 1621.88,-48.8 1621.88,-84.8"/>
<text text-anchor="middle" x="1563" y="-62.6" font-family="Times,serif" font-size="14.00">ModalComponent</text>
</g>
<!-- ModalComponent&#45;&gt;SharedUiModule -->
<g id="edge4" class="edge">
<title>ModalComponent&#45;&gt;SharedUiModule</title>
<path fill="none" stroke="black" d="M1508.18,-84.83C1508.18,-101.2 1508.18,-122.8 1508.18,-122.8 1508.18,-122.8 1085.59,-122.8 1085.59,-122.8"/>
<polygon fill="black" stroke="black" points="1085.59,-119.3 1075.59,-122.8 1085.59,-126.3 1085.59,-119.3"/>
</g>
<!-- RepoIconComponent -->
<g id="node5" class="node">
<title>RepoIconComponent</title>
<polygon fill="#ffffb3" stroke="black" points="1485.76,-84.8 1350.24,-84.8 1350.24,-48.8 1485.76,-48.8 1485.76,-84.8"/>
<text text-anchor="middle" x="1418" y="-62.6" font-family="Times,serif" font-size="14.00">RepoIconComponent</text>
</g>
<!-- RepoIconComponent&#45;&gt;SharedUiModule -->
<g id="edge5" class="edge">
<title>RepoIconComponent&#45;&gt;SharedUiModule</title>
<path fill="none" stroke="black" d="M1442.38,-85.04C1442.38,-100.37 1442.38,-119.8 1442.38,-119.8 1442.38,-119.8 1085.22,-119.8 1085.22,-119.8"/>
<polygon fill="black" stroke="black" points="1085.22,-116.3 1075.22,-119.8 1085.22,-123.3 1085.22,-116.3"/>
</g>
<!-- SessionDurationPickerComponent -->
<g id="node6" class="node">
<title>SessionDurationPickerComponent</title>
<polygon fill="#ffffb3" stroke="black" points="1331.65,-84.8 1122.35,-84.8 1122.35,-48.8 1331.65,-48.8 1331.65,-84.8"/>
<text text-anchor="middle" x="1227" y="-62.6" font-family="Times,serif" font-size="14.00">SessionDurationPickerComponent</text>
</g>
<!-- SessionDurationPickerComponent&#45;&gt;SharedUiModule -->
<g id="edge6" class="edge">
<title>SessionDurationPickerComponent&#45;&gt;SharedUiModule</title>
<path fill="none" stroke="black" d="M1262.69,-84.85C1262.69,-99.17 1262.69,-116.8 1262.69,-116.8 1262.69,-116.8 1085.52,-116.8 1085.52,-116.8"/>
<polygon fill="black" stroke="black" points="1085.52,-113.3 1075.52,-116.8 1085.52,-120.3 1085.52,-113.3"/>
</g>
<!-- ShortcutsModalComponent -->
<g id="node7" class="node">
<title>ShortcutsModalComponent</title>
<polygon fill="#ffffb3" stroke="black" points="1104.27,-84.8 933.73,-84.8 933.73,-48.8 1104.27,-48.8 1104.27,-84.8"/>
<text text-anchor="middle" x="1019" y="-62.6" font-family="Times,serif" font-size="14.00">ShortcutsModalComponent</text>
</g>
<!-- ShortcutsModalComponent&#45;&gt;SharedUiModule -->
<g id="edge7" class="edge">
<title>ShortcutsModalComponent&#45;&gt;SharedUiModule</title>
<path fill="none" stroke="black" d="M1019,-84.91C1019,-84.91 1019,-103.79 1019,-103.79"/>
<polygon fill="black" stroke="black" points="1015.5,-103.79 1019,-113.79 1022.5,-103.79 1015.5,-103.79"/>
</g>
<!-- TextInputComponent -->
<g id="node8" class="node">
<title>TextInputComponent</title>
<polygon fill="#ffffb3" stroke="black" points="915.04,-84.8 778.96,-84.8 778.96,-48.8 915.04,-48.8 915.04,-84.8"/>
<text text-anchor="middle" x="847" y="-62.6" font-family="Times,serif" font-size="14.00">TextInputComponent</text>
</g>
<!-- TextInputComponent&#45;&gt;SharedUiModule -->
<g id="edge8" class="edge">
<title>TextInputComponent&#45;&gt;SharedUiModule</title>
<path fill="none" stroke="black" d="M868.92,-84.85C868.92,-99.17 868.92,-116.8 868.92,-116.8 868.92,-116.8 952.69,-116.8 952.69,-116.8"/>
<polygon fill="black" stroke="black" points="952.69,-120.3 962.69,-116.8 952.69,-113.3 952.69,-120.3"/>
</g>
<!-- TimePickerComponent -->
<g id="node9" class="node">
<title>TimePickerComponent</title>
<polygon fill="#ffffb3" stroke="black" points="760.14,-84.8 613.86,-84.8 613.86,-48.8 760.14,-48.8 760.14,-84.8"/>
<text text-anchor="middle" x="687" y="-62.6" font-family="Times,serif" font-size="14.00">TimePickerComponent</text>
</g>
<!-- TimePickerComponent&#45;&gt;SharedUiModule -->
<g id="edge9" class="edge">
<title>TimePickerComponent&#45;&gt;SharedUiModule</title>
<path fill="none" stroke="black" d="M708.61,-85.04C708.61,-100.37 708.61,-119.8 708.61,-119.8 708.61,-119.8 952.43,-119.8 952.43,-119.8"/>
<polygon fill="black" stroke="black" points="952.43,-123.3 962.43,-119.8 952.43,-116.3 952.43,-123.3"/>
</g>
<!-- ToastsComponent -->
<g id="node10" class="node">
<title>ToastsComponent</title>
<polygon fill="#ffffb3" stroke="black" points="595.88,-84.8 478.12,-84.8 478.12,-48.8 595.88,-48.8 595.88,-84.8"/>
<text text-anchor="middle" x="537" y="-62.6" font-family="Times,serif" font-size="14.00">ToastsComponent</text>
</g>
<!-- ToastsComponent&#45;&gt;SharedUiModule -->
<g id="edge10" class="edge">
<title>ToastsComponent&#45;&gt;SharedUiModule</title>
<path fill="none" stroke="black" d="M591.82,-84.83C591.82,-101.2 591.82,-122.8 591.82,-122.8 591.82,-122.8 952.71,-122.8 952.71,-122.8"/>
<polygon fill="black" stroke="black" points="952.71,-126.3 962.71,-122.8 952.71,-119.3 952.71,-126.3"/>
</g>
<!-- TooltipComponent -->
<g id="node11" class="node">
<title>TooltipComponent</title>
<polygon fill="#ffffb3" stroke="black" points="460.05,-84.8 337.95,-84.8 337.95,-48.8 460.05,-48.8 460.05,-84.8"/>
<text text-anchor="middle" x="399" y="-62.6" font-family="Times,serif" font-size="14.00">TooltipComponent</text>
</g>
<!-- TooltipComponent&#45;&gt;SharedUiModule -->
<g id="edge11" class="edge">
<title>TooltipComponent&#45;&gt;SharedUiModule</title>
<path fill="none" stroke="black" d="M454.15,-84.82C454.15,-102.17 454.15,-125.8 454.15,-125.8 454.15,-125.8 952.78,-125.8 952.78,-125.8"/>
<polygon fill="black" stroke="black" points="952.78,-129.3 962.78,-125.8 952.78,-122.3 952.78,-129.3"/>
</g>
<!-- TooltipDirective -->
<g id="node12" class="node">
<title>TooltipDirective</title>
<polygon fill="#ffffb3" stroke="black" points="319.8,-84.8 210.2,-84.8 210.2,-48.8 319.8,-48.8 319.8,-84.8"/>
<text text-anchor="middle" x="265" y="-62.6" font-family="Times,serif" font-size="14.00">TooltipDirective</text>
</g>
<!-- TooltipDirective&#45;&gt;SharedUiModule -->
<g id="edge12" class="edge">
<title>TooltipDirective&#45;&gt;SharedUiModule</title>
<path fill="none" stroke="black" d="M312.03,-85.1C312.03,-103.07 312.03,-127.8 312.03,-127.8 312.03,-127.8 952.64,-127.8 952.64,-127.8"/>
<polygon fill="black" stroke="black" points="952.64,-131.3 962.64,-127.8 952.64,-124.3 952.64,-131.3"/>
</g>
<!-- TypePickerComponent -->
<g id="node13" class="node">
<title>TypePickerComponent</title>
<polygon fill="#ffffb3" stroke="black" points="191.86,-84.8 46.14,-84.8 46.14,-48.8 191.86,-48.8 191.86,-84.8"/>
<text text-anchor="middle" x="119" y="-62.6" font-family="Times,serif" font-size="14.00">TypePickerComponent</text>
</g>
<!-- TypePickerComponent&#45;&gt;SharedUiModule -->
<g id="edge13" class="edge">
<title>TypePickerComponent&#45;&gt;SharedUiModule</title>
<path fill="none" stroke="black" d="M182.64,-84.97C182.64,-103.89 182.64,-130.8 182.64,-130.8 182.64,-130.8 952.5,-130.8 952.5,-130.8"/>
<polygon fill="black" stroke="black" points="952.5,-134.3 962.5,-130.8 952.5,-127.3 952.5,-134.3"/>
</g>
<!-- CustomModalContainerComponent  -->
<g id="node15" class="node">
<title>CustomModalContainerComponent </title>
<polygon fill="#fb8072" stroke="black" points="2237.16,-214.8 2016.84,-214.8 2016.84,-178.8 2237.16,-178.8 2237.16,-214.8"/>
<text text-anchor="middle" x="2127" y="-192.6" font-family="Times,serif" font-size="14.00">CustomModalContainerComponent </text>
</g>
<!-- SharedUiModule&#45;&gt;CustomModalContainerComponent  -->
<g id="edge14" class="edge">
<title>SharedUiModule&#45;&gt;CustomModalContainerComponent </title>
<path fill="none" stroke="black" stroke-dasharray="5,2" d="M1075.27,-133.8C1299.28,-133.8 2115.62,-133.8 2115.62,-133.8 2115.62,-133.8 2115.62,-168.58 2115.62,-168.58"/>
<polygon fill="black" stroke="black" points="2112.13,-168.58 2115.62,-178.58 2119.13,-168.58 2112.13,-168.58"/>
</g>
<!-- DateRangePickerComponent  -->
<g id="node16" class="node">
<title>DateRangePickerComponent </title>
<polygon fill="#fb8072" stroke="black" points="1999.29,-214.8 1816.71,-214.8 1816.71,-178.8 1999.29,-178.8 1999.29,-214.8"/>
<text text-anchor="middle" x="1908" y="-192.6" font-family="Times,serif" font-size="14.00">DateRangePickerComponent </text>
</g>
<!-- SharedUiModule&#45;&gt;DateRangePickerComponent  -->
<g id="edge15" class="edge">
<title>SharedUiModule&#45;&gt;DateRangePickerComponent </title>
<path fill="none" stroke="black" stroke-dasharray="5,2" d="M1075.33,-136.8C1269.36,-136.8 1898.12,-136.8 1898.12,-136.8 1898.12,-136.8 1898.12,-168.8 1898.12,-168.8"/>
<polygon fill="black" stroke="black" points="1894.63,-168.8 1898.12,-178.8 1901.63,-168.8 1894.63,-168.8"/>
</g>
<!-- DatepickerComponent  -->
<g id="node17" class="node">
<title>DatepickerComponent </title>
<polygon fill="#fb8072" stroke="black" points="1798.24,-214.8 1651.76,-214.8 1651.76,-178.8 1798.24,-178.8 1798.24,-214.8"/>
<text text-anchor="middle" x="1725" y="-192.6" font-family="Times,serif" font-size="14.00">DatepickerComponent </text>
</g>
<!-- SharedUiModule&#45;&gt;DatepickerComponent  -->
<g id="edge16" class="edge">
<title>SharedUiModule&#45;&gt;DatepickerComponent </title>
<path fill="none" stroke="black" stroke-dasharray="5,2" d="M1075.24,-138.8C1241.18,-138.8 1717.12,-138.8 1717.12,-138.8 1717.12,-138.8 1717.12,-168.77 1717.12,-168.77"/>
<polygon fill="black" stroke="black" points="1713.63,-168.77 1717.12,-178.77 1720.63,-168.77 1713.63,-168.77"/>
</g>
<!-- ModalComponent  -->
<g id="node18" class="node">
<title>ModalComponent </title>
<polygon fill="#fb8072" stroke="black" points="1633.88,-214.8 1512.12,-214.8 1512.12,-178.8 1633.88,-178.8 1633.88,-214.8"/>
<text text-anchor="middle" x="1573" y="-192.6" font-family="Times,serif" font-size="14.00">ModalComponent </text>
</g>
<!-- SharedUiModule&#45;&gt;ModalComponent  -->
<g id="edge17" class="edge">
<title>SharedUiModule&#45;&gt;ModalComponent </title>
<path fill="none" stroke="black" stroke-dasharray="5,2" d="M1075.34,-141.8C1215.21,-141.8 1567.12,-141.8 1567.12,-141.8 1567.12,-141.8 1567.12,-168.79 1567.12,-168.79"/>
<polygon fill="black" stroke="black" points="1563.63,-168.79 1567.12,-178.79 1570.63,-168.79 1563.63,-168.79"/>
</g>
<!-- RepoIconComponent  -->
<g id="node19" class="node">
<title>RepoIconComponent </title>
<polygon fill="#fb8072" stroke="black" points="1494.76,-214.8 1355.24,-214.8 1355.24,-178.8 1494.76,-178.8 1494.76,-214.8"/>
<text text-anchor="middle" x="1425" y="-192.6" font-family="Times,serif" font-size="14.00">RepoIconComponent </text>
</g>
<!-- SharedUiModule&#45;&gt;RepoIconComponent  -->
<g id="edge18" class="edge">
<title>SharedUiModule&#45;&gt;RepoIconComponent </title>
<path fill="none" stroke="black" stroke-dasharray="5,2" d="M1075.46,-144.8C1181.28,-144.8 1398.87,-144.8 1398.87,-144.8 1398.87,-144.8 1398.87,-168.61 1398.87,-168.61"/>
<polygon fill="black" stroke="black" points="1395.37,-168.61 1398.87,-178.61 1402.37,-168.61 1395.37,-168.61"/>
</g>
<!-- SessionDurationPickerComponent  -->
<g id="node20" class="node">
<title>SessionDurationPickerComponent </title>
<polygon fill="#fb8072" stroke="black" points="1337.65,-214.8 1124.35,-214.8 1124.35,-178.8 1337.65,-178.8 1337.65,-214.8"/>
<text text-anchor="middle" x="1231" y="-192.6" font-family="Times,serif" font-size="14.00">SessionDurationPickerComponent </text>
</g>
<!-- SharedUiModule&#45;&gt;SessionDurationPickerComponent  -->
<g id="edge19" class="edge">
<title>SharedUiModule&#45;&gt;SessionDurationPickerComponent </title>
<path fill="none" stroke="black" stroke-dasharray="5,2" d="M1075.67,-147.8C1126.64,-147.8 1193.56,-147.8 1193.56,-147.8 1193.56,-147.8 1193.56,-168.55 1193.56,-168.55"/>
<polygon fill="black" stroke="black" points="1190.06,-168.55 1193.56,-178.55 1197.06,-168.55 1190.06,-168.55"/>
</g>
<!-- ShortcutsModalComponent  -->
<g id="node21" class="node">
<title>ShortcutsModalComponent </title>
<polygon fill="#fb8072" stroke="black" points="1106.27,-214.8 931.73,-214.8 931.73,-178.8 1106.27,-178.8 1106.27,-214.8"/>
<text text-anchor="middle" x="1019" y="-192.6" font-family="Times,serif" font-size="14.00">ShortcutsModalComponent </text>
</g>
<!-- SharedUiModule&#45;&gt;ShortcutsModalComponent  -->
<g id="edge20" class="edge">
<title>SharedUiModule&#45;&gt;ShortcutsModalComponent </title>
<path fill="none" stroke="black" stroke-dasharray="5,2" d="M1019,-149.91C1019,-149.91 1019,-168.79 1019,-168.79"/>
<polygon fill="black" stroke="black" points="1015.5,-168.79 1019,-178.79 1022.5,-168.79 1015.5,-168.79"/>
</g>
<!-- TextInputComponent  -->
<g id="node22" class="node">
<title>TextInputComponent </title>
<polygon fill="#fb8072" stroke="black" points="914.04,-214.8 773.96,-214.8 773.96,-178.8 914.04,-178.8 914.04,-214.8"/>
<text text-anchor="middle" x="844" y="-192.6" font-family="Times,serif" font-size="14.00">TextInputComponent </text>
</g>
<!-- SharedUiModule&#45;&gt;TextInputComponent  -->
<g id="edge21" class="edge">
<title>SharedUiModule&#45;&gt;TextInputComponent </title>
<path fill="none" stroke="black" stroke-dasharray="5,2" d="M962.55,-147.8C904.91,-147.8 823.83,-147.8 823.83,-147.8 823.83,-147.8 823.83,-168.55 823.83,-168.55"/>
<polygon fill="black" stroke="black" points="820.33,-168.55 823.83,-178.55 827.33,-168.55 820.33,-168.55"/>
</g>
<!-- TimePickerComponent  -->
<g id="node23" class="node">
<title>TimePickerComponent </title>
<polygon fill="#fb8072" stroke="black" points="756.14,-214.8 605.86,-214.8 605.86,-178.8 756.14,-178.8 756.14,-214.8"/>
<text text-anchor="middle" x="681" y="-192.6" font-family="Times,serif" font-size="14.00">TimePickerComponent </text>
</g>
<!-- SharedUiModule&#45;&gt;TimePickerComponent  -->
<g id="edge22" class="edge">
<title>SharedUiModule&#45;&gt;TimePickerComponent </title>
<path fill="none" stroke="black" stroke-dasharray="5,2" d="M962.69,-144.8C861.91,-144.8 661.14,-144.8 661.14,-144.8 661.14,-144.8 661.14,-168.61 661.14,-168.61"/>
<polygon fill="black" stroke="black" points="657.64,-168.61 661.14,-178.61 664.64,-168.61 657.64,-168.61"/>
</g>
<!-- ToastsComponent  -->
<g id="node24" class="node">
<title>ToastsComponent </title>
<polygon fill="#fb8072" stroke="black" points="587.88,-214.8 466.12,-214.8 466.12,-178.8 587.88,-178.8 587.88,-214.8"/>
<text text-anchor="middle" x="527" y="-192.6" font-family="Times,serif" font-size="14.00">ToastsComponent </text>
</g>
<!-- SharedUiModule&#45;&gt;ToastsComponent  -->
<g id="edge23" class="edge">
<title>SharedUiModule&#45;&gt;ToastsComponent </title>
<path fill="none" stroke="black" stroke-dasharray="5,2" d="M962.76,-141.8C834.8,-141.8 532.88,-141.8 532.88,-141.8 532.88,-141.8 532.88,-168.79 532.88,-168.79"/>
<polygon fill="black" stroke="black" points="529.38,-168.79 532.88,-178.79 536.38,-168.79 529.38,-168.79"/>
</g>
<!-- TooltipComponent  -->
<g id="node25" class="node">
<title>TooltipComponent </title>
<polygon fill="#fb8072" stroke="black" points="448.05,-214.8 321.95,-214.8 321.95,-178.8 448.05,-178.8 448.05,-214.8"/>
<text text-anchor="middle" x="385" y="-192.6" font-family="Times,serif" font-size="14.00">TooltipComponent </text>
</g>
<!-- SharedUiModule&#45;&gt;TooltipComponent  -->
<g id="edge24" class="edge">
<title>SharedUiModule&#45;&gt;TooltipComponent </title>
<path fill="none" stroke="black" stroke-dasharray="5,2" d="M962.61,-138.8C808.7,-138.8 392.88,-138.8 392.88,-138.8 392.88,-138.8 392.88,-168.77 392.88,-168.77"/>
<polygon fill="black" stroke="black" points="389.38,-168.77 392.88,-178.77 396.38,-168.77 389.38,-168.77"/>
</g>
<!-- TooltipDirective  -->
<g id="node26" class="node">
<title>TooltipDirective </title>
<polygon fill="#fb8072" stroke="black" points="304.3,-214.8 191.7,-214.8 191.7,-178.8 304.3,-178.8 304.3,-214.8"/>
<text text-anchor="middle" x="248" y="-192.6" font-family="Times,serif" font-size="14.00">TooltipDirective </text>
</g>
<!-- SharedUiModule&#45;&gt;TooltipDirective  -->
<g id="edge25" class="edge">
<title>SharedUiModule&#45;&gt;TooltipDirective </title>
<path fill="none" stroke="black" stroke-dasharray="5,2" d="M962.69,-136.8C786.49,-136.8 257.38,-136.8 257.38,-136.8 257.38,-136.8 257.38,-168.8 257.38,-168.8"/>
<polygon fill="black" stroke="black" points="253.88,-168.8 257.38,-178.8 260.88,-168.8 253.88,-168.8"/>
</g>
<!-- TypePickerComponent  -->
<g id="node27" class="node">
<title>TypePickerComponent </title>
<polygon fill="#fb8072" stroke="black" points="173.86,-214.8 24.14,-214.8 24.14,-178.8 173.86,-178.8 173.86,-214.8"/>
<text text-anchor="middle" x="99" y="-192.6" font-family="Times,serif" font-size="14.00">TypePickerComponent </text>
</g>
<!-- SharedUiModule&#45;&gt;TypePickerComponent  -->
<g id="edge26" class="edge">
<title>SharedUiModule&#45;&gt;TypePickerComponent </title>
<path fill="none" stroke="black" stroke-dasharray="5,2" d="M962.47,-133.8C763.85,-133.8 109.88,-133.8 109.88,-133.8 109.88,-133.8 109.88,-168.58 109.88,-168.58"/>
<polygon fill="black" stroke="black" points="106.38,-168.58 109.88,-178.58 113.38,-168.58 106.38,-168.58"/>
</g>
</g>
</svg>
